<svg width="80" height="80" viewBox="0 0 80 80" fill="none" xmlns="http://www.w3.org/2000/svg">
<path d="M12.626 44.283V51.2723C12.626 52.2158 13.0104 53.0896 13.6394 53.7536C14.3034 54.4176 15.1771 54.767 16.1207 54.767H44.078C45.0217 54.767 45.8953 54.4176 46.5593 53.7536C47.2233 53.0896 47.5728 52.2158 47.5728 51.2723V16.3255C47.5728 15.382 47.1883 14.5083 46.5593 13.8443C45.8953 13.1803 45.0217 12.8309 44.078 12.8309H16.4352C14.3384 12.8309 12.626 14.5433 12.626 16.6401V44.283Z" stroke="#CBCBCB" stroke-width="1.80639" stroke-linecap="round" stroke-linejoin="round"/>
<path d="M28.3516 39.5589H21.3623" stroke="#CBCBCB" stroke-width="1.80639" stroke-linecap="round" stroke-linejoin="round"/>
<path d="M38.8356 30.8242H21.3623" stroke="#CBCBCB" stroke-width="1.80639" stroke-linecap="round" stroke-linejoin="round"/>
<path d="M38.8356 22.088H21.3623" stroke="#CBCBCB" stroke-width="1.80639" stroke-linecap="round" stroke-linejoin="round"/>
<path d="M45.8188 61.6196C54.4909 61.6196 61.5389 54.5716 61.5389 45.8994C61.5389 37.2271 54.4909 30.1793 45.8188 30.1793C37.1466 30.1793 30.0986 37.2271 30.0986 45.8994C30.0986 54.5716 37.1466 61.6196 45.8188 61.6196Z" stroke="#EDA12F" stroke-width="1.84901" stroke-linecap="round" stroke-linejoin="round"/>
<path d="M67.8043 67.8786L56.9277 57.0022" stroke="#EDA12F" stroke-width="1.84901" stroke-linecap="round" stroke-linejoin="round"/>
</svg>
