<svg width="489" height="336" viewBox="0 0 489 336" fill="none" xmlns="http://www.w3.org/2000/svg">
<path d="M108.123 302.85C108.123 304.616 92.5283 306.049 73.2908 306.049C54.0456 306.049 38.4502 304.616 38.4502 302.85C38.4502 301.085 54.0456 299.651 73.2908 299.651C92.5283 299.651 108.123 301.085 108.123 302.85Z" fill="#F5F5F5"/>
<path d="M353.692 41.3058V190.663C353.692 196.776 348.741 201.731 342.634 201.731H118.848C112.742 201.731 107.791 196.776 107.791 190.663V41.3058C107.791 35.1942 112.742 30.2377 118.848 30.2377H342.634C348.741 30.2377 353.692 35.1942 353.692 41.3058Z" fill="white"/>
<path d="M353.692 53.2521V41.3058C353.692 35.1942 348.741 30.2377 342.634 30.2377H118.848C112.742 30.2377 107.791 35.1942 107.791 41.3058V53.2521H353.692Z" fill="#F5F5F5"/>
<path d="M318.166 74.933V84.1763C318.166 84.4955 317.908 84.7539 317.59 84.7539H304.238C303.919 84.7539 303.661 84.4955 303.661 84.1763V74.933C303.661 74.6138 303.919 74.3563 304.238 74.3563H317.59C317.908 74.3563 318.166 74.6138 318.166 74.933Z" fill="#F5F5F5"/>
<path d="M318.166 97.6673V106.912C318.166 107.23 317.908 107.488 317.59 107.488H304.238C303.919 107.488 303.661 107.23 303.661 106.912V97.6673C303.661 97.3491 303.919 97.0907 304.238 97.0907H317.59C317.908 97.0907 318.166 97.3491 318.166 97.6673Z" fill="#657AFF"/>
<path d="M318.166 120.402V129.646C318.166 129.964 317.908 130.223 317.59 130.223H304.238C303.919 130.223 303.661 129.964 303.661 129.646V120.402C303.661 120.084 303.919 119.825 304.238 119.825H317.59C317.908 119.825 318.166 120.084 318.166 120.402Z" fill="white"/>
<path d="M318.166 143.137V152.381C318.166 152.7 317.908 152.958 317.59 152.958H304.238C303.919 152.958 303.661 152.7 303.661 152.381V143.137C303.661 142.819 303.919 142.56 304.238 142.56H317.59C317.908 142.56 318.166 142.819 318.166 143.137Z" fill="#657AFF"/>
<path d="M326.282 177.488C326.282 184.55 320.564 190.277 313.505 190.277C306.45 190.277 300.728 184.55 300.728 177.488C300.728 170.426 306.45 164.698 313.505 164.698C320.567 164.698 326.282 170.434 326.282 177.488Z" fill="white"/>
<path d="M289.748 177.488C289.748 184.55 284.03 190.277 276.972 190.277C269.951 190.277 264.195 184.582 264.195 177.488C264.195 170.426 269.917 164.698 276.972 164.698C284.033 164.698 289.748 170.434 289.748 177.488Z" fill="white"/>
<path d="M253.213 177.488C253.213 184.547 247.492 190.277 240.436 190.277C233.381 190.277 227.659 184.549 227.659 177.488C227.659 170.426 233.381 164.698 240.436 164.698C247.497 164.698 253.213 170.434 253.213 177.488Z" fill="white"/>
<path d="M323.063 169.005L313.505 177.488V164.698C317.31 164.698 320.724 166.363 323.063 169.005Z" fill="#657AFF"/>
<path d="M276.972 164.698V177.488L268.656 187.196C265.924 184.85 264.195 181.371 264.195 177.488C264.195 170.426 269.917 164.698 276.972 164.698Z" fill="#657AFF"/>
<path d="M253.213 177.489C253.213 179.86 252.567 182.085 251.44 183.988L240.436 177.489V164.699C247.497 164.699 253.213 170.435 253.213 177.489Z" fill="#657AFF"/>
<path d="M283.779 113.519V152.958H133.739C135.867 133.054 141.625 127.06 147.268 123.771C152.919 120.474 162.947 133.572 166.159 136.4C169.362 139.236 178.142 120.861 180.451 113.519C182.751 106.176 188.04 98.5795 193.338 100.578C198.635 102.559 202.759 122.694 209.741 122.102C216.714 121.51 219.128 108.684 226.505 106.769C233.888 104.853 238.234 122.201 239.145 128.465C239.729 132.486 239.531 136.853 248.351 136.81C259.937 136.752 258.719 85.3919 265.29 83.3371C271.86 81.2724 273.2 92.1752 276.157 102.937C279.105 113.7 283.779 113.519 283.779 113.519Z" fill="#657AFF"/>
<path d="M215.764 164.588V190.387C215.764 190.986 215.278 191.472 214.681 191.472H127.126C126.528 191.472 126.043 190.986 126.043 190.387V164.588C126.043 163.989 126.528 163.504 127.126 163.504H214.681C215.278 163.504 215.764 163.989 215.764 164.588Z" fill="white"/>
<path d="M228.223 41.7461C228.223 43.9331 226.452 45.707 224.266 45.707H124.165C121.98 45.707 120.208 43.9331 120.208 41.7461C120.208 39.5581 121.98 37.7853 124.165 37.7853H224.266C226.452 37.7853 228.223 39.5581 228.223 41.7461Z" fill="white"/>
<path d="M304.763 41.742C304.763 43.9955 302.943 45.8184 300.697 45.8184C298.446 45.8184 296.625 43.9955 296.625 41.742C296.625 39.4953 298.446 37.6724 300.697 37.6724C302.943 37.6724 304.763 39.4953 304.763 41.742Z" fill="white"/>
<path d="M323.02 41.742C323.02 43.9955 321.199 45.8184 318.954 45.8184C316.702 45.8184 314.881 43.9955 314.881 41.742C314.881 39.4953 316.702 37.6724 318.954 37.6724C321.199 37.6724 323.02 39.4953 323.02 41.742Z" fill="white"/>
<path d="M341.275 41.742C341.275 43.9955 339.454 45.8184 337.209 45.8184C334.958 45.8184 333.137 43.9955 333.137 41.742C333.137 39.4953 334.958 37.6724 337.209 37.6724C339.454 37.6724 341.275 39.4953 341.275 41.742Z" fill="white"/>
<path d="M353.692 148.771C353.692 148.771 350.627 147.159 349.975 146.514C349.174 144.912 344.654 136.096 343.101 136.712C342.626 136.894 342.121 138.371 342.602 139.585C342.633 139.665 342.683 139.777 342.734 139.896C339.616 137.281 336.278 134.832 333.711 133.828C332.793 133.757 332.899 135.407 333.736 136.265L333.811 136.339L337.771 139.683L338.619 140.553C338.619 140.553 336.414 140.598 336.994 142.454C336.994 142.454 335.187 143.065 336.268 144.559C333.689 146.586 340.645 151.491 345.801 152.018L352.396 156.797L353.692 148.771Z" fill="white"/>
<path d="M342.732 139.898L344.162 142.289L342.732 139.898Z" fill="white"/>
<path d="M336.271 144.555C336.271 144.555 337.271 144.794 339.094 146.781L336.271 144.555Z" fill="white"/>
<path d="M336.966 142.397C336.966 142.397 337.966 142.636 339.789 144.623L336.966 142.397Z" fill="white"/>
<path d="M338.526 140.474C338.526 140.474 339.527 140.713 341.349 142.7L338.526 140.474Z" fill="white"/>
<path d="M442.854 290.227C442.854 292.489 422.809 294.32 398.092 294.32C373.374 294.32 353.33 292.489 353.33 290.227C353.33 287.971 373.374 286.139 398.092 286.139C422.809 286.139 442.854 287.971 442.854 290.227Z" fill="#F5F5F5"/>
<path d="M397.306 301.262C397.306 302.036 390.451 302.661 381.999 302.661C373.547 302.661 366.693 302.036 366.693 301.262C366.693 300.491 373.547 299.864 381.999 299.864C390.451 299.864 397.306 300.491 397.306 301.262Z" fill="#F5F5F5"/>
<path d="M332.218 296.713C332.218 297.487 325.363 298.113 316.911 298.113C308.459 298.113 301.605 297.487 301.605 296.713C301.605 295.942 308.459 295.315 316.911 295.315C325.363 295.315 332.218 295.942 332.218 296.713Z" fill="#F5F5F5"/>
<path d="M362.16 233.669V288.886C362.16 290.66 363.598 292.093 365.371 292.093H429.241C431.014 292.093 432.452 290.66 432.452 288.886V233.669C432.452 231.895 431.014 230.455 429.241 230.455H365.371C363.598 230.455 362.16 231.895 362.16 233.669Z" fill="#F5F5F5"/>
<path d="M432.452 281.996V288.883C432.452 290.657 431.015 292.095 429.243 292.095H365.367C363.595 292.095 362.158 290.657 362.158 288.883V281.996H432.452Z" fill="#E1E5E2"/>
<path d="M362.158 287.812V288.883C362.158 290.657 363.595 292.095 365.367 292.095H429.243C431.015 292.095 432.452 290.657 432.452 288.883V287.812H362.158Z" fill="#C2C6C3"/>
<path d="M382.431 282.331L385.905 290.238L378.117 293.054L375.327 285.119L382.431 282.331Z" fill="white"/>
<path d="M371.277 301.188C375.157 299.767 387.912 294.974 388.797 292.86C389.313 291.623 388.823 290.255 387.997 289.194C387.155 288.106 385.961 287.336 385.126 287.352C384.727 287.359 384.162 287.647 383.583 288.039C382.321 288.884 380.972 290.208 380.972 290.208C380.972 290.208 378.085 288.399 377.112 288.74C375.754 289.221 375.088 292.582 374.196 293.71C373.216 294.948 369.838 296.48 369.299 297.928C369.057 298.573 369.465 299.819 369.699 300.461C369.931 301.1 370.639 301.421 371.277 301.188Z" fill="white"/>
<path d="M376.857 291.179C377.059 291.369 377.38 291.357 377.57 291.155C377.758 290.951 377.747 290.63 377.544 290.441C377.341 290.251 377.02 290.263 376.831 290.466C376.642 290.669 376.653 290.99 376.857 291.179Z" fill="white"/>
<path d="M376.097 292.793C376.3 292.982 376.621 292.97 376.81 292.768C376.998 292.564 376.988 292.243 376.784 292.054C376.582 291.864 376.261 291.876 376.071 292.08C375.882 292.282 375.893 292.603 376.097 292.793Z" fill="white"/>
<path d="M375.322 294.494C375.525 294.683 375.846 294.672 376.035 294.469C376.225 294.265 376.213 293.944 376.009 293.755C375.807 293.566 375.486 293.577 375.296 293.78C375.108 293.983 375.119 294.304 375.322 294.494Z" fill="white"/>
<path d="M330.145 284.114L326.73 292.047L319.364 288.26L323.266 280.809L330.145 284.114Z" fill="white"/>
<path d="M308.756 288.79C312.438 290.664 324.634 296.744 326.784 295.952C328.04 295.488 328.707 294.195 328.919 292.867C329.141 291.509 328.89 290.11 328.31 289.509C327.437 288.604 323.474 288.425 323.391 288.412C323.391 288.412 322.747 285.064 321.834 284.583C320.558 283.916 317.647 285.718 316.214 285.833C314.64 285.959 311.218 284.528 309.791 285.119C309.156 285.382 308.523 286.529 308.212 287.138C307.904 287.744 308.151 288.481 308.756 288.79Z" fill="white"/>
<path d="M319.876 286.058C319.876 286.336 320.103 286.563 320.381 286.563C320.657 286.563 320.884 286.336 320.885 286.059C320.885 285.781 320.658 285.554 320.381 285.554C320.103 285.554 319.876 285.781 319.876 286.058Z" fill="white"/>
<path d="M318.179 286.601C318.178 286.879 318.405 287.106 318.682 287.106C318.96 287.106 319.187 286.879 319.187 286.601C319.187 286.324 318.96 286.096 318.683 286.096C318.406 286.096 318.179 286.323 318.179 286.601Z" fill="white"/>
<path d="M316.407 287.193C316.407 287.471 316.634 287.698 316.912 287.698C317.19 287.698 317.417 287.471 317.417 287.193C317.417 286.916 317.19 286.689 316.912 286.688C316.635 286.688 316.407 286.915 316.407 287.193Z" fill="white"/>
<path d="M384.032 284.307L375.103 287.683C373.926 288.12 372.624 287.486 372.246 286.293C352.082 221.135 356.524 235.489 355.868 233.37C357.816 232.27 348.837 237.343 374.796 222.678L385.407 281.883C385.589 282.915 385.014 283.935 384.032 284.307Z" fill="#657AFF"/>
<path d="M384.033 284.307L375.103 287.683C373.926 288.12 372.624 287.486 372.246 286.293L370.588 280.979C372.76 277.699 376.131 276.072 376.492 272.827C376.827 269.894 373.611 264.56 373.742 261.605C373.793 260.411 374.288 259.275 374.469 258.09C375.196 253.242 370.645 249.028 370.47 244.129C370.346 240.693 372.411 237.352 371.808 233.967C371.331 231.224 369.23 229.199 370.608 225.043L374.796 222.678L385.408 281.883C385.59 282.915 385.014 283.935 384.033 284.307Z" fill="#475BD8"/>
<path d="M434.33 219.049C434.346 225.128 429.456 230.072 423.383 230.121L373.026 230.078L333.673 284.803C333.07 285.579 332.019 285.856 331.114 285.481L321.806 281.622C320.689 281.166 320.159 279.893 320.616 278.766C320.616 278.766 320.893 278.082 321.406 276.849C325.319 267.451 347.373 217.745 360.674 209.789C373.528 202.105 414.149 204.96 428.877 206.298C432.26 206.6 434.281 206.828 434.281 206.828C434.348 223.576 434.325 217.799 434.33 219.049Z" fill="#657AFF"/>
<path d="M434.33 219.049C434.346 225.128 429.456 230.072 423.383 230.121L373.026 230.078L333.673 284.803C333.07 285.579 332.019 285.856 331.114 285.481L321.806 281.622C320.689 281.166 320.159 279.893 320.616 278.766C320.616 278.766 320.893 278.082 321.406 276.849C327.723 273.929 337.511 260.617 342.776 255.991C344.814 254.196 346.892 252.368 348.269 250.027C349.76 247.523 350.388 244.512 352.214 242.235C354.285 239.633 357.634 238.312 359.72 235.725C361.587 233.417 362.483 230.088 365.182 228.823C367.203 227.886 369.615 228.44 371.751 227.812C373.201 227.379 374.448 226.433 375.834 225.829C381.058 223.586 387.603 226.563 392.559 223.773C393.529 223.227 394.385 222.484 395.412 222.069C396.691 221.546 398.125 221.595 399.503 221.644C405.705 221.856 412.25 221.888 417.694 218.895C418.437 218.478 419.178 218.005 420.009 217.842C421.534 217.549 423.099 218.323 424.639 218.144C426.994 217.866 428.274 215.574 428.779 213.477C429.292 211.356 428.82 208.729 428.877 206.297C432.26 206.6 434.281 206.828 434.281 206.828C434.348 223.576 434.325 217.799 434.33 219.049Z" fill="#475BD8"/>
<path d="M380.879 178.422C382.27 178.455 384.206 177.643 386.2 176.516C383.991 189.4 383.685 202.903 383.685 202.903L412.652 205.157C412.634 205.239 412.123 207.682 412.155 207.526C412.372 207.511 446.123 207.818 450.069 203.433C453.711 199.382 451.311 180.096 445.286 165.208C444.077 162.242 442.613 159.79 440.998 157.768C429.786 143.624 404.856 146.144 397.183 152.823C396.968 153.013 383.179 165.357 383.179 165.357L350.802 145.772C351.381 149.757 349.155 152.674 345.075 153.361C345.075 153.361 370.873 178.148 380.879 178.422Z" fill="white"/>
<path d="M450.072 203.43C446.13 207.821 412.454 207.505 412.159 207.524L412.23 207.185C413.939 206.245 415.769 205.523 417.584 204.81C427.125 201.072 425.861 201.331 430.448 201.104C433.147 200.962 435.909 200.517 438.226 199.131C439.808 198.191 441.108 196.855 442.386 195.532C443.171 194.725 443.969 193.891 444.378 192.852C445.481 190.067 443.488 187.026 443.495 184.02C443.503 181.97 444.457 179.969 444.238 177.918C443.955 175.252 441.715 172.961 441.928 170.289C442.026 169.122 442.592 167.998 442.429 166.838C442.189 165.091 440.437 163.966 439.751 162.347C439.039 160.653 439.694 158.627 441.002 157.766C442.612 159.788 444.082 162.241 445.283 165.212C451.309 180.096 453.71 199.378 450.072 203.43Z" fill="#F5F5F5"/>
<path d="M411.729 195.703L440.776 189.881L411.729 195.703Z" fill="white"/>
<path d="M403.848 200.947C403.848 200.947 403.104 213.224 414.22 204.85L412.263 195.933C412.263 195.933 403.983 192.162 402.501 193.823C401.338 195.107 405.535 197.265 405.535 197.265C405.535 197.265 395.108 199.329 394.2 202.097C393.292 204.864 403.848 200.947 403.848 200.947Z" fill="white"/>
<path d="M422.757 137.355C422.663 137.851 422.539 138.331 422.394 138.79L422.147 148.019L413.954 166.446C413.87 164.361 414.259 174 413.129 146.053C406.544 145.577 403.198 138.402 405.196 132.079C406.411 131.788 410.767 130.382 412.323 125.091C412.323 125.419 412.395 133.935 419.166 134.183C419.31 132.791 420.438 131.678 421.878 131.583C423.485 131.475 424.124 132.734 424.241 134.357C424.335 135.791 423.979 137.028 422.757 137.355Z" fill="white"/>
<path d="M412.579 133.96C412.683 133.856 413.992 133.577 414.985 134.126L412.579 133.96Z" fill="white"/>
<path d="M436.869 190.531L436.398 186.239L436.869 190.531Z" fill="white"/>
<path d="M80.349 284.725L80.2217 297.048L90.5953 296.466L89.9197 284.449L80.349 284.725Z" fill="white"/>
<path d="M102.487 302.491C97.3106 302.76 80.2312 303.502 78.1707 301.497C76.967 300.324 76.8613 298.502 77.2946 296.871C77.7317 295.2 78.7329 293.724 79.704 293.331C81.167 292.738 85.8194 294.563 85.9017 294.584C85.9017 294.584 88.3465 291.074 89.6376 290.99C91.4404 290.878 93.8604 294.429 95.4439 295.294C97.183 296.241 101.836 296.348 103.17 297.754C103.765 298.379 103.906 300.019 103.953 300.876C103.997 301.727 103.338 302.447 102.487 302.491Z" fill="white"/>
<path d="M92.2323 291.746L90.9629 292.943L92.2323 291.746Z" fill="white"/>
<path d="M91.131 293.682C90.9897 294 90.6137 294.145 90.2955 294.003C89.9774 293.862 89.8328 293.485 89.9742 293.167C90.3143 292.401 91.4708 292.916 91.131 293.682Z" fill="white"/>
<path d="M93.9004 293.234L92.6309 294.432L93.9004 293.234Z" fill="white"/>
<path d="M92.8 295.172C92.6586 295.49 92.2826 295.635 91.9645 295.493C91.6464 295.352 91.5017 294.975 91.6431 294.657C91.7846 294.339 92.1605 294.194 92.4786 294.336C92.7969 294.477 92.9414 294.854 92.8 295.172Z" fill="white"/>
<path d="M95.6299 294.818L94.3604 296.015L95.6299 294.818Z" fill="white"/>
<path d="M94.5294 296.753C94.3881 297.072 94.012 297.217 93.694 297.075C93.3757 296.933 93.2313 296.557 93.3726 296.239C93.514 295.92 93.8899 295.775 94.2081 295.917C94.5263 296.059 94.6709 296.435 94.5294 296.753Z" fill="white"/>
<path d="M55.1729 285.033L55.8111 296.467L45.4375 297.049L45.5612 285.033H55.1729Z" fill="white"/>
<path d="M67.7018 302.491C62.5255 302.76 45.4461 303.502 43.3855 301.497C42.1818 300.324 42.0762 298.502 42.5094 296.871C42.9464 295.2 43.9478 293.724 44.9188 293.331C45.3835 293.143 46.1766 293.198 47.0372 293.365C48.9094 293.72 51.1165 294.584 51.1165 294.584C51.1165 294.584 53.5612 291.074 54.8525 290.99C56.6553 290.878 59.0752 294.429 60.6587 295.294C62.3977 296.241 67.0509 296.348 68.3849 297.754C68.9803 298.379 69.1211 300.019 69.1672 300.876C69.2116 301.727 68.5526 302.447 67.7018 302.491Z" fill="white"/>
<path d="M57.4472 291.746L56.1778 292.943L57.4472 291.746Z" fill="white"/>
<path d="M56.3458 293.682C56.2045 294 55.8285 294.145 55.5104 294.003C55.1923 293.862 55.0477 293.485 55.1889 293.167C55.3304 292.849 55.7063 292.704 56.0245 292.845C56.3427 292.987 56.4873 293.363 56.3458 293.682Z" fill="white"/>
<path d="M59.1172 293.234L57.8477 294.432L59.1172 293.234Z" fill="white"/>
<path d="M58.0159 295.172C57.8745 295.49 57.4985 295.635 57.1804 295.493C56.8622 295.352 56.7176 294.975 56.8589 294.657C57.0003 294.339 57.3763 294.194 57.6945 294.336C58.0126 294.477 58.1573 294.854 58.0159 295.172Z" fill="white"/>
<path d="M60.8456 294.818L59.5762 296.015L60.8456 294.818Z" fill="white"/>
<path d="M59.7453 296.753C59.604 297.072 59.2279 297.217 58.9098 297.075C58.5917 296.933 58.4471 296.557 58.5884 296.239C58.7299 295.92 59.1058 295.775 59.4239 295.917C59.742 296.059 59.8867 296.435 59.7453 296.753Z" fill="white"/>
<path d="M45.7359 287.32H56.2968C56.7477 287.32 57.1366 287.003 57.2279 286.561L57.6816 284.364L71.1789 199.538L77.8833 285.244C78.0478 286.434 79.064 287.32 80.2639 287.32H90.2941C91.6516 287.32 92.7396 286.195 92.6961 284.838L91.4234 166.392L91.225 160.273C85.3477 160.387 109.007 159.931 51.2548 161.045L41.8677 283.205C41.7318 285.436 43.5028 287.32 45.7359 287.32Z" fill="#657AFF"/>
<path d="M45.7359 287.32H56.2968C56.7477 287.32 57.1366 287.003 57.2279 286.561L57.6816 284.364C57.1245 283.249 56.5294 282.156 56.0563 281.003C52.5078 272.28 58.3364 229.66 55.9478 220.547C55.4444 218.638 54.6507 216.805 54.1698 214.888C53.216 211.122 53.506 207.058 54.9711 203.46C56.1539 200.573 58.1075 197.831 58.0922 194.707C58.077 192.553 57.1155 190.544 56.444 188.497C55.1466 184.587 54.8643 180.339 55.6425 176.283C56.0013 174.397 56.5889 172.541 56.6499 170.624C56.7339 167.897 55.5892 163.764 53.5213 161L51.2548 161.045L41.8677 283.205C41.7318 285.436 43.5028 287.32 45.7359 287.32Z" fill="#475BD8"/>
<path d="M78.8984 286.893C80.5081 287.694 85.7271 287.408 90.2939 287.32C91.6515 287.32 92.7394 286.196 92.6959 284.838L91.4232 166.392C89.3093 166.728 87.3253 168.095 86.5167 170.082C84.6546 174.672 88.844 179.767 87.8823 184.625C87.3405 187.344 85.2651 189.505 84.3799 192.125C82.4951 197.739 86.3487 203.575 86.8142 209.472C87.1498 213.719 85.7 217.913 85.6542 222.166C85.5931 227.506 86.2511 265.23 85.6253 270.531C84.9157 276.565 80.9282 281.172 78.8984 286.893Z" fill="#475BD8"/>
<path d="M71.1758 199.54L73.4906 188.974L71.1758 199.54Z" fill="#657AFF"/>
<path d="M52.3234 154.851L48.423 173.941C48.9495 179.032 93.1433 177.266 92.6093 172.175C88.9492 171.775 99.2858 106.472 70.379 109.136C70.379 109.136 48.9421 108.691 41.2303 137.66L54.6591 139.983L52.3234 154.851Z" fill="white"/>
<path d="M80.4742 103.18C79.636 104.592 77.5871 105.045 75.3585 104.932L75.6265 109.464L74.4657 123.675L66.9701 109.506L66.3779 99.2781C65.3801 99.0255 64.941 97.9937 64.8414 96.7484C64.7149 95.2565 65.1143 93.8292 66.5646 93.6755C66.5646 91.1586 66.6841 89.2564 66.6841 89.2564C66.6841 89.2564 75.046 80.8403 80.9797 88.8179C80.9797 88.8179 82.3168 100.091 80.4742 103.18Z" fill="white"/>
<path d="M48.4279 173.939C48.9543 179.032 92.8782 177.673 92.3443 172.581C92.3443 172.581 91.1614 170.902 90.5528 170.845C85.6891 170.379 81.9968 168.83 79.7788 170.362C79.3561 170.673 79.0001 171.075 78.6146 171.431C76.9684 172.907 74.514 173.346 72.3934 172.722C70.7026 172.24 69.0491 162.568 67.3214 162.932C66.0683 163.192 65.0969 164.193 63.8882 164.587C61.7453 165.308 59.2316 163.778 58.6236 161.603C58.364 160.691 58.3937 159.725 58.1713 158.805C57.5047 156.053 54.3665 154.357 52.3283 154.849L48.4279 173.939Z" fill="#F5F5F5"/>
<path d="M41.3125 137.356C39.97 142.464 39.3367 155.519 47.0334 156.065C56.1336 156.704 74.1322 147.113 74.1322 147.113L74.4657 139.254L54.4246 145.021L55.1554 139.229" fill="white"/>
<path d="M54.4245 145.021L50.8096 145.835L54.4245 145.021Z" fill="white"/>
<path d="M72.1129 148.083C65.9318 151.236 53.9814 156.575 47.0305 156.065C40.0834 155.566 39.587 144.263 41.2388 137.656H41.2312C41.2615 137.557 41.2847 137.457 41.315 137.359C43.7415 128.407 47.4884 122.296 51.4945 118.125C52.2958 118.866 52.7383 119.844 52.3872 121.104C51.9827 122.594 50.5713 123.61 50.0065 125.045C49.1442 127.261 50.5025 129.774 50.0369 132.103C49.6479 134.02 48.1065 135.48 47.2594 137.244C46.4633 138.835 46.2997 140.952 46.2215 142.72C46.1454 144.516 46.1454 146.44 47.1451 147.929C48.3278 149.702 50.6018 150.382 52.723 150.512C55.1085 150.711 58.099 150.214 60.7353 148.953C62.1166 148.289 63.4367 147.418 64.9401 147.143C65.993 146.952 67.0765 147.067 68.1374 147.181C69.4955 147.326 70.8995 147.487 72.1129 148.083Z" fill="#F5F5F5"/>
<path d="M84.1381 140.663C84.1381 140.663 87.3708 141.847 84.5624 142.891C84.5624 142.891 86.9875 144.44 84.2406 144.873C84.6146 145.165 84.7731 145.449 84.7689 145.709C84.7354 147.244 78.8483 148.036 75.4545 146.456C75.3722 146.497 74.0485 147.155 74.1322 147.113C73.3705 146.749 72.058 142.609 73.131 140.554C75.1065 139.639 75.622 139.284 76.6652 138.934C77.6936 137.303 79.2147 136.038 80.5619 135.236L80.2207 138.227C81.1124 138.186 81.9582 138.332 83.2304 138.433C88.7103 138.884 84.1381 140.663 84.1381 140.663Z" fill="white"/>
<path d="M84.7689 145.709C84.7354 147.244 78.8483 148.036 75.4545 146.456C75.3722 146.497 74.0485 147.155 74.1322 147.113C73.3705 146.749 72.058 142.609 73.131 140.554C73.2002 140.523 73.2633 140.49 73.3326 140.458C74.5251 141.42 74.1626 142.529 74.6418 143.348C74.9423 143.853 75.5645 144.116 76.1009 143.951C76.4797 143.833 76.8088 143.531 77.1969 143.457C77.8028 143.345 78.3799 143.799 78.7934 144.302C79.2066 144.797 79.5728 145.381 80.1308 145.662C80.6582 145.933 81.2803 145.878 81.8491 145.749C82.7591 145.544 83.8507 145.068 84.7689 145.709Z" fill="#F5F5F5"/>
<path d="M81.8027 112.847L95.46 124.434L121.171 118.64L124.377 127.249C124.377 127.249 101.905 139.261 94.0372 137.955C91.8859 137.598 90.4786 137.358 90.4786 137.358" fill="white"/>
<path d="M120.549 119.867C120.158 121.904 121.524 126.151 122.386 126.741C123.587 126.042 125.029 125.364 126.136 124.891C127.788 124.905 133.149 123.604 135.231 122.517C136.849 121.628 139.797 119.839 139.25 118.669C138.917 117.975 138.33 118.162 138.248 118.183C138.36 118.082 139.592 116.921 139.314 116.279C139.085 115.766 138.303 115.857 138.195 115.863L138.186 115.867C139.536 113.985 138.371 113.312 137.848 113.793C137.41 114.207 135.432 115.359 134.949 115.652C135.802 115.048 137.249 112.1 137.03 111.719C136.331 110.477 135.305 112.029 135.305 112.029C133.599 114.549 128.614 116.218 128.614 116.218C129.681 114.352 129.624 111.257 128.452 110.44C127.275 109.619 125.504 114.027 124.56 115.962C123.891 117.327 121.777 118.977 120.549 119.867Z" fill="white"/>
<path d="M128.609 116.215C128.609 116.215 127.595 118.111 126.462 118.766L128.609 116.215Z" fill="white"/>
<path d="M138.24 118.189C138.24 118.189 136.278 119.243 135.032 119.634L138.24 118.189Z" fill="white"/>
<path d="M142.695 101.223L141.13 103.903L138.729 102.499L140.295 99.8181L142.695 101.223Z" fill="#F5F5F5"/>
<path d="M118.095 140.779C116.364 139.765 115.766 137.522 116.785 135.776C127.865 116.857 102.665 160.114 135.486 103.565C135.674 103.243 136.084 103.136 136.407 103.324C136.635 103.457 141.681 106.41 141.551 106.334C141.874 106.523 141.981 106.934 141.793 107.257L123.091 139.467C122.074 141.209 119.835 141.797 118.095 140.779Z" fill="#F5F5F5"/>
<path d="M125.611 120.122C126.787 118.948 128.785 116.109 128.785 116.109C129.852 114.242 129.796 111.148 128.624 110.33C127.447 109.509 125.675 113.917 124.732 115.853C124.064 117.218 121.948 118.868 120.722 119.758" fill="white"/>
<path d="M303.951 74.9332C303.951 74.7776 304.083 74.6454 304.239 74.6454H317.594C317.751 74.6454 317.882 74.7776 317.882 74.9332V84.1746C317.882 84.3391 317.751 84.4624 317.594 84.4624H304.239C304.083 84.4624 303.951 84.3391 303.951 84.1746V74.9332ZM304.239 85.0381H317.594C318.07 85.0381 318.457 84.6514 318.457 84.1746V74.9332C318.457 74.4565 318.07 74.0698 317.594 74.0698H304.239C303.762 74.0698 303.376 74.4565 303.376 74.9332V84.1746C303.376 84.6514 303.762 85.0381 304.239 85.0381Z" fill="#3C4150"/>
<path d="M324.002 75.7705H342.969C343.128 75.7705 343.256 75.6413 343.256 75.4827C343.256 75.3241 343.128 75.1949 342.969 75.1949H324.002C323.843 75.1949 323.715 75.3241 323.715 75.4827C323.715 75.6413 323.843 75.7705 324.002 75.7705Z" fill="#3C4150"/>
<path d="M324.002 79.8428H342.969C343.128 79.8428 343.256 79.7145 343.256 79.5549C343.256 79.3963 343.128 79.2671 342.969 79.2671H324.002C323.843 79.2671 323.715 79.3963 323.715 79.5549C323.715 79.7145 323.843 79.8428 324.002 79.8428Z" fill="#3C4150"/>
<path d="M324.002 83.915H336.214C336.372 83.915 336.501 83.7868 336.501 83.6272C336.501 83.4686 336.372 83.3394 336.214 83.3394H324.002C323.843 83.3394 323.715 83.4686 323.715 83.6272C323.715 83.7868 323.843 83.915 324.002 83.915Z" fill="#3C4150"/>
<path d="M303.951 97.6666C303.951 97.51 304.083 97.3788 304.239 97.3788H317.594C317.751 97.3788 317.882 97.51 317.882 97.6666V106.908C317.882 107.072 317.751 107.204 317.594 107.204H304.239C304.083 107.204 303.951 107.072 303.951 106.908V97.6666ZM304.239 107.779H317.594C318.07 107.779 318.457 107.385 318.457 106.908V97.6666C318.457 97.1899 318.07 96.8032 317.594 96.8032H304.239C303.762 96.8032 303.376 97.1899 303.376 97.6666V106.908C303.376 107.385 303.762 107.779 304.239 107.779Z" fill="#3C4150"/>
<path d="M324.002 98.5049H342.969C343.128 98.5049 343.256 98.3766 343.256 98.2171C343.256 98.0585 343.128 97.9293 342.969 97.9293H324.002C323.843 97.9293 323.715 98.0585 323.715 98.2171C323.715 98.3766 323.843 98.5049 324.002 98.5049Z" fill="#3C4150"/>
<path d="M324.002 102.577H342.969C343.128 102.577 343.256 102.449 343.256 102.289C343.256 102.131 343.128 102.002 342.969 102.002H324.002C323.843 102.002 323.715 102.131 323.715 102.289C323.715 102.449 323.843 102.577 324.002 102.577Z" fill="#3C4150"/>
<path d="M324.001 106.65H336.213C336.371 106.65 336.5 106.521 336.5 106.363C336.5 106.203 336.371 106.075 336.213 106.075H324.001C323.842 106.075 323.714 106.203 323.714 106.363C323.714 106.521 323.842 106.65 324.001 106.65Z" fill="#3C4150"/>
<path d="M303.951 120.4C303.951 120.244 304.083 120.112 304.238 120.112H317.594C317.751 120.112 317.882 120.244 317.882 120.4V129.65C317.882 129.805 317.751 129.937 317.594 129.937H304.238C304.083 129.937 303.951 129.805 303.951 129.65V120.4ZM304.238 130.513H317.594C318.07 130.513 318.457 130.126 318.457 129.65V120.4C318.457 119.923 318.07 119.537 317.594 119.537H304.238C303.762 119.537 303.376 119.923 303.376 120.4V129.65C303.376 130.126 303.762 130.513 304.238 130.513Z" fill="#3C4150"/>
<path d="M324.002 121.239H342.969C343.128 121.239 343.256 121.11 343.256 120.951C343.256 120.793 343.128 120.664 342.969 120.664H324.002C323.843 120.664 323.715 120.793 323.715 120.951C323.715 121.11 323.843 121.239 324.002 121.239Z" fill="#3C4150"/>
<path d="M324.002 125.312H342.969C343.128 125.312 343.256 125.183 343.256 125.024C343.256 124.865 343.128 124.736 342.969 124.736H324.002C323.843 124.736 323.715 124.865 323.715 125.024C323.715 125.183 323.843 125.312 324.002 125.312Z" fill="#3C4150"/>
<path d="M324.001 129.385H336.213C336.371 129.385 336.5 129.256 336.5 129.097C336.5 128.938 336.371 128.809 336.213 128.809H324.001C323.842 128.809 323.714 128.938 323.714 129.097C323.714 129.256 323.842 129.385 324.001 129.385Z" fill="#3C4150"/>
<path d="M303.951 143.133C303.951 142.977 304.083 142.846 304.238 142.846H317.594C317.75 142.846 317.882 142.977 317.882 143.133V152.383C317.882 152.538 317.75 152.671 317.594 152.671H304.238C304.083 152.671 303.951 152.538 303.951 152.383V143.133ZM304.238 153.245H317.594C318.07 153.245 318.457 152.859 318.457 152.383V143.133C318.457 142.656 318.07 142.269 317.594 142.269H304.238C303.762 142.269 303.376 142.656 303.376 143.133V152.383C303.376 152.859 303.762 153.245 304.238 153.245Z" fill="#3C4150"/>
<path d="M336.213 151.544H324.001C323.842 151.544 323.714 151.673 323.714 151.832C323.714 151.991 323.842 152.12 324.001 152.12H336.213C336.371 152.12 336.5 151.991 336.5 151.832C336.5 151.673 336.371 151.544 336.213 151.544Z" fill="#3C4150"/>
<path d="M276.969 189.989C274.078 189.989 271.285 188.985 269.06 187.16L277.191 177.672C277.232 177.623 277.256 177.557 277.256 177.491V164.995C283.996 165.139 289.462 170.661 289.462 177.491C289.462 184.381 283.861 189.989 276.969 189.989ZM264.484 177.491C264.484 170.429 270.397 164.995 276.681 164.995V177.385L268.632 186.783C268.541 186.708 268.46 186.634 268.369 186.553C265.658 183.838 264.484 180.671 264.484 177.491ZM276.969 164.411C269.766 164.411 263.909 170.273 263.909 177.491C263.909 184.71 269.759 190.564 276.969 190.564C284.173 190.564 290.037 184.702 290.037 177.491C290.037 170.219 284.123 164.411 276.969 164.411Z" fill="#3C4150"/>
<path d="M313.504 189.989C306.62 189.989 301.011 184.381 301.011 177.491C301.011 170.692 306.464 165.143 313.216 164.995V177.491C313.216 177.734 313.526 177.872 313.692 177.706L323.031 169.41C324.945 171.663 325.997 174.515 325.997 177.491C325.997 184.381 320.395 189.989 313.504 189.989ZM322.653 168.982L313.79 176.85V164.995C317.297 164.995 320.179 166.506 322.653 168.982ZM313.504 164.411C306.3 164.411 300.443 170.273 300.443 177.491C300.443 184.702 306.3 190.564 313.504 190.564C320.707 190.564 326.572 184.702 326.572 177.491C326.572 170.262 320.694 164.411 313.504 164.411Z" fill="#3C4150"/>
<path d="M251.334 183.592L240.722 177.327V164.995C247.818 164.995 252.927 171.17 252.927 177.491C252.927 180.007 252.338 181.59 251.334 183.592ZM240.434 189.989C233.551 189.989 227.949 184.381 227.949 177.491C227.949 170.692 233.396 165.143 240.147 164.995V177.491C240.147 177.59 240.204 177.681 240.287 177.738L251.039 184.086C248.772 187.736 244.731 189.989 240.434 189.989ZM240.434 164.411C233.231 164.411 227.375 170.273 227.375 177.491C227.375 184.702 233.231 190.564 240.434 190.564C247.503 190.564 253.502 184.82 253.502 177.491C253.502 170.262 247.624 164.411 240.434 164.411Z" fill="#3C4150"/>
<path d="M215.474 190.383C215.474 190.828 215.121 191.181 214.678 191.181H127.128C126.684 191.181 126.331 190.828 126.331 190.383V164.592C126.331 164.148 126.684 163.795 127.128 163.795H214.678C215.121 163.795 215.474 164.148 215.474 164.592V190.383ZM214.678 163.219H127.128C126.372 163.219 125.756 163.836 125.756 164.592V190.383C125.756 191.148 126.372 191.757 127.128 191.757H214.678C215.441 191.757 216.049 191.148 216.049 190.383V164.592C216.049 163.836 215.441 163.219 214.678 163.219Z" fill="#3C4150"/>
<path d="M207.829 170.209H197.168C197.009 170.209 196.881 170.337 196.881 170.496C196.881 170.655 197.009 170.784 197.168 170.784H207.829C207.987 170.784 208.115 170.655 208.115 170.496C208.115 170.337 207.987 170.209 207.829 170.209Z" fill="#3C4150"/>
<path d="M165.989 170.784H192.651C192.809 170.784 192.937 170.655 192.937 170.497C192.937 170.337 192.809 170.209 192.651 170.209H165.989C165.831 170.209 165.703 170.337 165.703 170.497C165.703 170.655 165.831 170.784 165.989 170.784Z" fill="#3C4150"/>
<path d="M133.979 170.784H161.025C161.184 170.784 161.312 170.655 161.312 170.497C161.312 170.337 161.184 170.209 161.025 170.209H133.979C133.821 170.209 133.692 170.337 133.692 170.497C133.692 170.655 133.821 170.784 133.979 170.784Z" fill="#3C4150"/>
<path d="M207.828 177.2H181.31C181.152 177.2 181.023 177.329 181.023 177.489C181.023 177.647 181.152 177.776 181.31 177.776H207.828C207.987 177.776 208.115 177.647 208.115 177.489C208.115 177.329 207.987 177.2 207.828 177.2Z" fill="#3C4150"/>
<path d="M147.747 177.2C147.589 177.2 147.46 177.329 147.46 177.488C147.46 177.647 147.589 177.776 147.747 177.776H178.058C178.217 177.776 178.345 177.647 178.345 177.488C178.345 177.329 178.217 177.2 178.058 177.2H147.747Z" fill="#3C4150"/>
<path d="M133.979 177.776H143.131C143.29 177.776 143.419 177.647 143.419 177.488C143.419 177.329 143.29 177.2 143.131 177.2H133.979C133.821 177.2 133.692 177.329 133.692 177.488C133.692 177.647 133.821 177.776 133.979 177.776Z" fill="#3C4150"/>
<path d="M157.631 184.193H133.979C133.821 184.193 133.691 184.322 133.691 184.481C133.691 184.639 133.821 184.769 133.979 184.769H157.631C157.789 184.769 157.918 184.639 157.918 184.481C157.918 184.322 157.789 184.193 157.631 184.193Z" fill="#3C4150"/>
<path d="M191.193 184.192H160.883C160.725 184.192 160.596 184.321 160.596 184.48C160.596 184.638 160.725 184.768 160.883 184.768H191.193C191.353 184.768 191.481 184.638 191.481 184.48C191.481 184.321 191.353 184.192 191.193 184.192Z" fill="#3C4150"/>
<path d="M207.828 184.192H195.809C195.651 184.192 195.522 184.321 195.522 184.48C195.522 184.638 195.651 184.768 195.809 184.768H207.828C207.986 184.768 208.114 184.638 208.114 184.48C208.114 184.321 207.986 184.192 207.828 184.192Z" fill="#3C4150"/>
<path d="M224.271 45.4175H124.162C122.142 45.4175 120.499 43.7728 120.499 41.7425C120.499 39.7199 122.142 38.0753 124.162 38.0753H224.271C226.291 38.0753 227.934 39.7199 227.934 41.7425C227.934 43.7728 226.291 45.4175 224.271 45.4175ZM224.271 37.4997H124.162C121.821 37.4997 119.924 39.3988 119.924 41.7425C119.924 44.0851 121.821 45.9932 124.162 45.9932H224.271C226.603 45.9932 228.509 44.0851 228.509 41.7425C228.509 39.3988 226.603 37.4997 224.271 37.4997Z" fill="#3C4150"/>
<path d="M300.699 45.5328C298.613 45.5328 296.913 43.8303 296.913 41.7422C296.913 39.6531 298.613 37.9605 300.699 37.9605C302.786 37.9605 304.478 39.6531 304.478 41.7422C304.478 43.8303 302.786 45.5328 300.699 45.5328ZM300.699 37.3849C298.293 37.3849 296.338 39.3408 296.338 41.7422C296.338 44.1514 298.293 46.1074 300.699 46.1074C303.098 46.1074 305.053 44.1514 305.053 41.7422C305.053 39.3408 303.098 37.3849 300.699 37.3849Z" fill="#3C4150"/>
<path d="M318.958 45.5328C316.872 45.5328 315.171 43.8303 315.171 41.7422C315.171 39.6531 316.872 37.9605 318.958 37.9605C321.036 37.9605 322.736 39.6531 322.736 41.7422C322.736 43.8303 321.036 45.5328 318.958 45.5328ZM318.958 37.3849C316.551 37.3849 314.597 39.3408 314.597 41.7422C314.597 44.1514 316.551 46.1074 318.958 46.1074C321.356 46.1074 323.311 44.1514 323.311 41.7422C323.311 39.3408 321.356 37.3849 318.958 37.3849Z" fill="#3C4150"/>
<path d="M337.208 45.5328C335.121 45.5328 333.422 43.8303 333.422 41.7422C333.422 39.6531 335.121 37.9605 337.208 37.9605C339.295 37.9605 340.987 39.6531 340.987 41.7422C340.987 43.8303 339.295 45.5328 337.208 45.5328ZM337.208 37.3849C334.802 37.3849 332.847 39.3408 332.847 41.7422C332.847 44.1514 334.802 46.1074 337.208 46.1074C339.607 46.1074 341.562 44.1514 341.562 41.7422C341.562 39.3408 339.607 37.3849 337.208 37.3849Z" fill="#3C4150"/>
<path d="M449.858 203.234C448.061 205.258 438.984 206.042 436.544 206.35C433.308 206.669 435.09 206.531 431.115 206.21C430.704 205.561 429.982 205.125 429.152 205.125C423.614 205.125 419.874 205.125 414.326 205.125C414.421 205.061 414.477 205.021 414.49 204.919C414.525 204.832 412.55 195.856 412.527 195.834L440.832 190.16C441.199 190.083 441.094 189.522 440.717 189.601L437.136 190.317L436.684 186.206C436.667 186.05 436.527 185.943 436.363 185.951C436.208 185.968 436.092 186.115 436.109 186.272L436.568 190.433C431.086 191.532 450.049 187.729 411.763 195.407C410.31 194.766 406.843 193.368 404.47 193.153L398.211 176.932C397.858 176.028 396.97 175.411 395.993 175.411H392.404L392.576 173.873C392.615 173.488 392.049 173.432 392.01 173.808L391.829 175.411H373.364C364.87 170.684 352.359 159.889 345.89 153.73C345.808 153.665 345.742 153.59 345.676 153.533C346.294 153.39 346.888 153.194 347.467 152.917C347.483 152.917 347.491 152.908 347.5 152.891H347.508C349.93 151.726 351.369 149.425 351.155 146.323C358.185 150.574 382.275 165.144 383.032 165.602C383.138 165.668 383.278 165.66 383.369 165.57C383.508 165.447 397.16 153.229 397.373 153.039C401.584 149.373 407.367 148.327 412.864 147.934C412.868 148.016 413.18 155.297 413.16 154.832C413.934 172.775 413.55 163.888 413.661 166.458C413.661 166.79 414.14 166.803 414.219 166.565C414.256 166.48 422.381 148.194 422.342 148.279C425.278 148.727 427.682 148.983 430.622 150.252C430.622 150.261 430.622 150.261 430.63 150.261C435.195 152.107 439.542 155.586 442.663 160.645C446.842 167.377 450.029 180.445 451.091 188.805C451.524 192.322 452.199 200.618 449.858 203.234ZM423.386 229.831C383.823 229.798 372.706 229.79 373.028 229.79C372.766 229.79 375.606 225.992 333.446 284.628C332.92 285.295 332.008 285.542 331.22 285.213C324.584 282.466 332.024 285.547 321.915 281.357C320.953 280.962 320.485 279.844 320.879 278.874C321.134 278.282 346.029 218.879 360.822 210.032C362.096 209.277 363.648 208.619 365.422 208.06C380.801 208.06 416.996 208.06 431.205 208.06C431.362 208.06 431.493 207.928 431.493 207.772C431.493 207.499 431.498 207.38 431.485 207.303C431.8 207.284 433.568 207.17 433.998 207.139L434.039 219.053C434.056 224.947 429.276 229.781 423.386 229.831ZM429.242 230.743C430.852 230.743 432.166 232.059 432.166 233.67V281.71H385.668L376.535 230.743H429.242ZM432.166 288.879C432.166 290.496 430.838 291.806 429.242 291.806H389.299C389.299 290.894 388.929 289.924 388.223 289.019C387.467 288.04 385.963 286.822 384.839 287.103L383.788 284.703L384.133 284.572C385.093 284.202 385.726 283.288 385.735 282.286H432.166V288.879ZM376.979 290.606C377.093 290.483 377.283 290.475 377.405 290.589C377.529 290.705 377.529 290.894 377.422 291.017C377.294 291.145 377.099 291.13 376.995 291.026C376.874 290.921 376.876 290.712 376.979 290.606ZM376.658 292.629C376.552 292.744 376.354 292.752 376.24 292.645C376.134 292.539 376.11 292.41 376.182 292.267C376.227 292.133 376.485 292.067 376.642 292.201C376.783 292.343 376.755 292.533 376.658 292.629ZM375.442 293.92C375.535 293.827 375.713 293.769 375.87 293.903C375.989 294.022 376.002 294.195 375.887 294.331C375.759 294.457 375.583 294.441 375.459 294.347C375.459 294.339 375.459 294.339 375.459 294.339C375.285 294.18 375.4 294.004 375.442 293.92ZM388.535 292.744C387.66 294.831 373.334 300.127 371.179 300.916C370.686 301.098 370.145 300.842 369.973 300.365C369.915 300.217 369.866 300.061 369.816 299.905C370.482 299.79 371.082 299.47 371.541 298.976C372.363 298.096 372.593 296.814 372.149 295.703L372.272 295.613C372.651 295.354 374.228 294.297 374.457 293.838L374.966 294.026C374.928 294.18 374.98 294.454 375.179 294.643C375.471 294.915 375.941 294.884 376.182 294.61C376.446 294.329 376.438 293.862 376.15 293.607C375.887 293.361 375.437 293.331 375.147 293.64L375.138 293.649L374.687 293.492V293.483C374.959 293.013 375.266 292.246 375.295 292.16L375.739 292.324C375.739 292.495 375.718 292.727 375.96 292.941C376.222 293.202 376.691 293.195 376.962 292.909C377.241 292.591 377.199 292.151 376.921 291.905C376.629 291.614 376.138 291.682 375.919 291.938L375.911 291.946C375.825 291.915 375.373 291.75 375.459 291.782C375.631 291.363 375.812 290.927 376.001 290.524L376.503 290.713C376.494 290.754 376.494 290.795 376.494 290.836C376.503 291.026 376.576 291.198 376.716 291.329C377.008 291.606 377.465 291.566 377.718 291.297C377.979 291.036 377.971 290.546 377.685 290.294C377.595 290.211 377.496 290.154 377.39 290.121C377.146 290.06 376.889 290.119 376.683 290.327L376.675 290.335L376.19 290.154C376.435 289.696 376.886 288.978 377.405 288.978C378.145 288.978 379.78 289.8 380.822 290.449C380.929 290.524 381.078 290.507 381.176 290.409C381.184 290.4 382.514 289.101 383.747 288.279C384.042 288.074 384.727 287.647 385.086 287.647C385.102 287.638 385.119 287.638 385.134 287.638C385.89 287.589 386.983 288.353 387.771 289.372C388.524 290.339 388.615 291.083 388.65 291.165C387.721 293.304 375.163 297.916 372.953 298.721C372.628 298.848 372.741 299.364 373.151 299.264C376.29 298.118 386.37 294.361 388.716 292.012C388.704 292.185 388.644 292.474 388.535 292.744ZM365.364 291.806C363.772 291.806 362.449 290.498 362.449 288.879V282.286H370.695L371.969 286.38C372.377 287.673 373.462 288.491 375.928 287.679L376.363 288.912C376.092 289.184 375.862 289.537 375.648 289.957L375.517 289.907C375.41 289.875 375.295 289.924 375.254 290.03C375.213 290.137 375.27 290.26 375.377 290.294L375.459 290.327C375.27 290.722 375.089 291.157 374.909 291.585L374.753 291.527C374.654 291.486 374.531 291.544 374.49 291.651C374.473 291.699 374.482 291.757 374.507 291.806H365.364ZM370.514 281.71H362.449V255.639C362.848 256.93 360.357 248.878 370.514 281.71ZM376.839 288.542L376.462 287.473L383.246 284.908L384.297 287.293C384.034 287.416 383.747 287.589 383.426 287.802C382.4 288.485 381.332 289.464 380.938 289.841C380.157 289.373 377.973 288.131 377.02 288.469C376.962 288.493 376.897 288.518 376.839 288.542ZM375.887 230.366C375.76 229.666 377.621 240.056 385.127 281.932C385.292 282.707 384.843 283.691 383.928 284.037C383.739 284.109 374.872 287.466 375.007 287.416C373.922 287.808 372.825 287.179 372.518 286.208C372.2 285.18 361.536 250.726 362.219 252.926C361.925 253.508 366.369 244.676 373.578 230.366H375.887ZM327.786 288.863C326.689 288.416 324.821 288.21 323.631 288.139C323.442 287.252 322.858 284.802 321.963 284.325C321.906 284.3 321.848 284.275 321.791 284.251L322.785 282.344L329.413 285.09L327.786 288.863ZM320.354 285.763C320.362 285.755 320.37 285.755 320.378 285.755C320.542 285.755 320.682 285.895 320.682 286.06C320.682 286.224 320.542 286.355 320.378 286.355C320.195 286.355 320.083 286.193 320.083 286.06C320.083 285.903 320.197 285.772 320.354 285.763ZM316.912 286.89C317.076 286.89 317.207 287.03 317.207 287.194C317.207 287.586 316.617 287.586 316.617 287.194C316.617 287.03 316.748 286.89 316.912 286.89ZM328.099 289.71C328.617 290.245 328.847 291.552 328.633 292.817C328.567 293.244 328.387 294.023 327.929 294.687C327.843 294.666 326.46 295.866 311.698 288.338C311.559 288.265 311.384 288.321 311.312 288.463C311.24 288.605 311.295 288.778 311.437 288.851C316.265 291.313 324.304 295.182 327.337 295.308L327.336 295.309C327.327 295.317 327.319 295.309 327.31 295.309C327.121 295.466 326.933 295.588 326.686 295.679C324.6 296.484 310.824 289.519 308.888 288.535C308.419 288.3 308.231 287.727 308.468 287.268C308.535 287.129 308.608 286.989 308.699 286.849C310.238 288.034 312.536 287.469 313.364 285.69C313.759 285.78 315.794 286.269 316.288 286.109H316.295L316.507 286.616C316.505 286.617 316.503 286.617 316.501 286.619C315.957 286.99 316.207 287.901 316.912 287.901C317.298 287.901 317.618 287.589 317.618 287.194C317.618 286.8 317.306 286.479 316.912 286.479C316.899 286.479 316.907 286.479 316.895 286.479L316.713 286.043C316.797 286.018 317.015 285.997 318.094 285.583L318.276 286.018C318.276 286.019 318.275 286.019 318.275 286.019C317.72 286.397 317.969 287.309 318.686 287.309C319.072 287.309 319.392 286.997 319.392 286.602C319.392 286.208 319.072 285.887 318.686 285.887C318.678 285.887 318.672 285.887 318.667 285.887L318.481 285.443C319.306 285.119 319.682 285.01 319.766 284.981L319.974 285.478C319.794 285.602 319.672 285.814 319.672 286.06C319.672 286.437 319.984 286.767 320.378 286.767C320.781 286.767 321.093 286.447 321.093 286.06C321.093 285.751 320.88 285.449 320.559 285.369C320.477 285.345 320.452 285.349 320.37 285.344C320.367 285.344 320.365 285.345 320.363 285.345L320.164 284.867C320.535 284.787 321.296 284.603 321.7 284.834C322.242 285.122 322.85 287.129 323.105 288.469C323.13 288.6 323.245 288.69 323.377 288.699C324.25 288.699 327.43 289.047 328.058 289.677C328.074 289.686 328.091 289.701 328.099 289.71ZM318.686 286.298C319.07 286.298 319.084 286.898 318.686 286.898C318.514 286.898 318.382 286.766 318.382 286.602C318.382 286.443 318.508 286.298 318.686 286.298ZM353.98 175.411V161.804C359.198 166.302 366.213 171.946 372.198 175.411H353.98ZM411.648 195.974L411.657 195.982C411.78 196.031 411.894 196.089 412.01 196.138L413.899 204.729C413.897 204.731 413.515 205.011 413.357 205.125C412.109 205.125 411.053 205.125 409.086 205.125C403.081 189.562 405.131 194.876 404.692 193.738C407.77 194.157 411.529 195.974 411.648 195.974ZM346.983 152.513C345.996 151.82 346.009 151.762 345.833 151.732C342.282 151.436 336.766 148.414 336.058 146.018C335.926 145.558 336.017 145.18 336.337 144.883C338.067 145.638 338.828 147.455 339.286 146.997C339.409 146.882 339.409 146.7 339.302 146.586C337.758 144.891 336.757 144.423 336.444 144.308C336.161 143.912 336.175 143.493 336.272 143.395C336.428 143.009 336.904 142.795 337.044 142.738C337.044 142.738 337.044 142.738 337.052 142.738C337.918 143.131 338.928 144.12 339.573 144.818C339.665 144.923 339.853 144.947 339.984 144.834C340.1 144.728 340.107 144.547 340.001 144.431C339.281 143.673 338.232 142.605 337.216 142.187C337.142 141.85 337.183 141.586 337.331 141.381C337.693 140.872 338.613 140.838 338.621 140.838C338.629 140.838 338.629 140.838 338.637 140.831C338.637 140.831 338.637 140.831 338.645 140.831C339.007 140.995 339.861 141.504 341.134 142.894C341.225 142.999 341.413 143.023 341.545 142.911C341.659 142.803 341.668 142.623 341.562 142.507C340.05 140.855 339.064 140.369 338.72 140.238C338.711 140.238 338.711 140.238 338.703 140.23L337.956 139.466L334.012 136.135L333.939 136.062C333.282 135.393 333.157 134.113 333.652 134.113C337.055 135.463 341.279 139.139 342.514 140.083L343.919 142.434C343.996 142.575 344.193 142.612 344.313 142.532C344.445 142.45 344.494 142.277 344.411 142.137C344.362 142.055 342.892 139.602 342.983 139.753L342.867 139.482C342.58 138.758 342.686 137.903 342.916 137.386C343.039 137.098 343.163 136.991 343.204 136.982C344.574 136.452 349.693 146.635 349.775 146.717C349.968 146.911 350.505 147.284 350.589 147.326C350.549 148.999 349.799 150.677 348.28 151.773C348.272 151.79 348.272 151.79 348.264 151.798C348.255 151.798 348.255 151.807 348.247 151.807C347.776 152.152 347.108 152.471 346.983 152.513ZM353.405 190.663C353.405 196.607 348.576 201.441 342.637 201.441H118.848C112.909 201.441 108.08 196.607 108.08 190.663V135.083C112.433 133.397 116.761 131.384 119.891 129.854C115.2 137.928 117.513 133.956 116.539 135.634C115.438 137.496 116.07 139.925 117.953 141.027C119.811 142.108 122.219 141.515 123.34 139.614C124.245 138.063 129.164 129.583 130.067 128.029V152.669H126.288C126.13 152.669 126.002 152.798 126.002 152.957C126.002 153.116 126.13 153.245 126.288 153.245C144.589 153.245 276.391 153.245 292.554 153.245C292.712 153.245 292.841 153.116 292.841 152.957C292.841 152.798 292.712 152.669 292.554 152.669H284.066C284.065 143.72 284.064 83.3076 284.064 74.356C284.064 74.1964 283.936 74.0682 283.776 74.0682C283.618 74.0682 283.49 74.1964 283.49 74.356V113.196C282.47 113.024 278.866 111.748 276.435 102.862C274.081 94.3151 272.757 85.5191 268.838 83.3194C267.777 82.7271 266.554 82.637 265.207 83.0639C265.101 83.0972 264.993 83.1461 264.886 83.2117V74.357C264.886 74.1935 264.755 74.0692 264.599 74.0692C264.443 74.0692 264.311 74.1935 264.311 74.357V83.6561C261.947 86.082 260.698 94.8545 259.277 104.844C257.166 119.676 254.776 136.489 248.352 136.522C248.269 136.52 246.998 136.547 245.708 136.374V74.357C245.708 74.1935 245.585 74.0692 245.42 74.0692C245.264 74.0692 245.133 74.1935 245.133 74.357V136.292C240.245 135.437 239.965 132.564 239.432 128.424C238.75 123.746 235.802 110.813 230.438 107.244C229.182 106.406 227.867 106.151 226.528 106.463V74.357C226.528 74.1935 226.406 74.0692 226.242 74.0692C226.085 74.0692 225.954 74.1935 225.954 74.357V106.636C222.496 107.771 220.155 111.216 217.88 114.562C215.441 118.138 213.133 121.525 209.715 121.813C208.903 121.888 208.114 121.632 207.358 121.131V74.357C207.358 74.1935 207.226 74.0692 207.071 74.0692C206.907 74.0692 206.783 74.1935 206.783 74.357V120.712C204.319 118.697 202.151 114.233 200.188 110.171C197.962 105.559 195.859 101.21 193.436 100.305C191.613 99.6172 189.782 100.018 188.179 101.053V74.357C188.179 74.1935 188.048 74.0692 187.891 74.0692C187.727 74.0692 187.604 74.1935 187.604 74.357V101.448C184.121 104.005 181.469 109.308 180.179 113.435C178.265 119.512 172.737 131.129 169 135.059V96.4414C177 86.4305 174.501 71.1 162.93 64.3187C152.622 58.2834 139.341 61.7695 133.312 72.0877C127.611 81.8558 130.412 94.2789 139.447 100.7L138.626 102.106L138.224 101.868C137.897 101.68 137.443 101.753 137.205 102.139L136.631 103.117L136.556 103.076C136.097 102.805 135.505 102.96 135.234 103.421C133.816 105.852 132.399 108.305 130.642 111.33V95.2902C130.642 95.1335 130.519 95.0023 130.355 95.0023C130.199 95.0023 130.067 95.1335 130.067 95.2902V112.317L129.821 112.745C129.788 111.594 129.46 110.566 128.786 110.097C128.501 109.892 128.109 109.874 127.727 110.155C127.71 110.155 127.701 110.164 127.694 110.171C126.493 110.805 125.177 114.031 124.302 115.837C123.973 116.51 123.152 117.407 121.968 118.393C121.649 118.295 121.393 118.286 121.172 118.353C121.089 118.353 121.336 118.312 108.08 121.295V53.5403H353.405V147.013C353.323 146.963 350.79 145.429 350.949 145.525H350.942C350.651 145.384 350.394 145.296 349.816 145.558C348.025 142.063 344.559 135.815 342.998 136.44C342.703 136.555 342.505 136.892 342.391 137.156C342.193 137.608 342.046 138.315 342.161 139.046C340.14 137.389 336.202 134.362 333.734 133.537C332.47 133.455 332.518 135.429 333.528 136.464L337.562 139.885L338.021 140.345C336.885 140.636 336.462 141.365 336.649 142.285C336.354 142.442 335.861 142.754 335.697 143.28C335.68 143.321 335.672 143.354 335.672 143.395H324.001C323.844 143.395 323.713 143.527 323.713 143.683C323.713 143.848 323.844 143.971 324.001 143.971H335.68C335.713 144.143 335.788 144.324 335.894 144.506C335.45 144.958 335.319 145.525 335.508 146.175C335.631 146.594 335.877 147.029 336.239 147.474H324.001C323.844 147.474 323.713 147.597 323.713 147.762C323.713 147.917 323.844 148.049 324.001 148.049H336.748C338.481 149.792 341.644 151.486 344.518 152.094V152.102C344.403 152.777 344.535 153.295 344.88 153.566C346.189 154.877 350.543 158.82 353.405 161.303V175.411C352.453 175.448 351.857 176.402 352.19 177.253L353.405 180.401V190.663ZM128.457 110.566C129.331 111.17 129.685 113.89 128.556 115.935C128.548 115.935 128.548 115.943 128.548 115.943C128.459 116.065 127.575 117.305 127.348 117.57C127.348 117.579 127.34 117.579 127.333 117.587C126.901 118.18 126.052 119.272 125.41 119.914C125.295 120.03 125.295 120.21 125.41 120.325L125.419 120.333C125.37 120.418 122.099 126.043 122.149 125.957C121.346 124.691 120.642 121.818 120.81 120.054C120.81 120.045 120.819 120.037 120.819 120.03C120.827 120.03 120.827 120.021 120.827 120.021C120.983 120.021 124.247 117.506 124.991 115.976C125.465 115.001 127.61 109.932 128.457 110.566ZM117.032 135.922L117.172 135.683L122.979 139.079L122.84 139.318C121.905 140.933 119.847 141.468 118.239 140.526C116.636 139.587 116.099 137.523 117.032 135.922ZM133.731 107.145L139.546 110.549C137.979 113.245 145.208 100.801 124.261 136.868L118.453 133.472C118.506 133.38 126.592 119.435 126.543 119.52C126.552 119.512 126.56 119.503 126.56 119.495C127.873 117.958 128.849 116.468 129.032 116.247C129.394 115.614 129.641 114.817 129.755 113.994C129.965 113.632 133.978 106.721 133.731 107.145ZM141.813 102.163L141.025 103.511L139.127 102.394L139.923 101.029C140.427 101.365 141.257 101.877 141.813 102.163ZM168.425 135.625C167.99 136.004 167.587 136.259 167.226 136.358C166.873 136.457 166.593 136.399 166.347 136.185C165.706 135.618 164.762 134.606 163.669 133.439C160.014 129.542 154.339 123.466 149.821 122.989V104.605C156.472 105.302 163.651 102.751 168.425 97.1404V135.625ZM168.425 89.9949C165.297 97.391 157.666 101.7 149.821 100.741V74.357C149.821 74.1935 149.699 74.0692 149.534 74.0692C149.378 74.0692 149.247 74.1935 149.247 74.357V100.659C147.103 100.33 144.991 99.5986 143.004 98.4385C134.511 93.4644 131.636 82.5137 136.605 74.0124C141.559 65.5189 152.507 62.6574 161 67.6237C164.368 69.5973 166.947 72.5489 168.425 76.1005V89.9949ZM169 77.6541C170.061 80.9386 170.17 84.7937 169 88.458V77.6541ZM134.827 119.817C134.908 119.906 135.002 119.943 135.118 119.908C136.329 119.528 138.139 118.568 138.343 118.459C138.425 118.464 138.761 118.308 138.987 118.787C139.234 119.306 138.33 120.482 135.094 122.258C133.904 122.884 133.112 123.07 132.901 123.146C133.04 122.904 134.946 119.611 134.827 119.817ZM138.289 116.149C138.7 116.124 138.963 116.214 139.053 116.396C139.204 116.744 138.291 117.83 138.079 117.946C137.952 118.015 136.311 118.884 135.143 119.288V119.281L136.293 117.299C137.262 116.822 138.059 116.305 138.289 116.149ZM138.248 113.929C138.297 113.936 138.364 113.953 138.405 113.994C138.577 114.151 138.683 114.677 137.969 115.672C137.821 115.762 137.402 116.042 136.844 116.354L138.248 113.929ZM133.484 152.669H130.642V127.034L132.482 123.86H132.491C133.35 123.589 134.054 123.456 135.365 122.767C138.642 120.966 139.998 119.585 139.513 118.542C139.365 118.245 139.152 118.031 138.898 117.933C140.119 116.541 139.661 115.724 138.708 115.59C139.447 114.315 138.963 113.723 138.782 113.567C138.708 113.501 138.634 113.452 138.543 113.427L142.043 107.401C142.304 106.96 142.17 106.365 141.698 106.085L141.615 106.036L142.19 105.049C142.396 104.696 142.281 104.244 141.928 104.038L141.525 103.799L142.322 102.427C144.523 103.528 146.856 104.235 149.247 104.539V122.957C148.499 122.957 147.776 123.137 147.119 123.523C141.6 126.738 135.653 132.732 133.484 152.669ZM226.528 107.063C226.545 107.055 226.562 107.055 226.578 107.048C233.612 105.227 238.07 122.285 238.989 129.46C239.4 132.683 239.818 135.98 245.133 136.859C245.84 137.02 247.341 137.098 248.352 137.098C255.277 137.064 257.7 119.988 259.844 104.917C261.133 95.9069 262.349 87.3233 264.311 84.5108C264.562 84.1466 264.95 83.7335 265.371 83.6072C266.587 83.2283 267.63 83.3027 268.558 83.8206C272.273 85.9019 273.649 94.927 275.876 103.01C278.463 112.446 282.371 113.64 283.49 113.789V152.67C225.48 152.67 177.843 152.67 134.059 152.67C136.211 133.036 142.01 127.166 147.415 124.017C151.911 121.408 159.625 129.955 163.243 133.825C164.351 135.01 165.304 136.029 165.97 136.612C166.356 136.958 166.848 137.064 167.382 136.917C171.73 135.721 179.184 118.497 180.721 113.609C182.082 109.273 185.164 103.064 189.222 101.128C190.602 100.453 191.949 100.363 193.239 100.848C195.44 101.67 197.493 105.921 199.67 110.418C201.895 115.024 205.262 122.783 209.764 122.389C213.452 122.077 215.835 118.582 218.348 114.882C220.533 111.684 222.775 108.379 225.954 107.236C226.143 107.171 226.332 107.113 226.528 107.063ZM141.402 106.579C141.61 106.711 141.643 106.954 141.542 107.113L140.827 108.346L135.012 104.943L135.735 103.709C135.841 103.52 136.071 103.463 136.261 103.569C136.176 103.519 137.426 104.255 141.402 106.579ZM76.7607 139.203C76.8182 139.186 76.8757 139.145 76.9086 139.087C77.8531 137.591 79.1426 136.53 80.0544 135.905C80.5308 135.576 81.0482 135.395 81.5493 135.387C81.9188 135.38 82.4034 135.445 82.4527 135.815C82.5267 136.44 81.5985 137.599 80.153 137.945C80.0051 137.977 79.9147 138.117 79.9312 138.265C79.9558 138.413 80.0707 138.528 80.235 138.511C81.0754 138.477 81.8583 138.602 83.2084 138.717C85.5493 138.915 85.6396 139.326 85.6396 139.326C85.6725 139.539 84.9004 140.049 84.0708 140.378L81.4753 140.362C81.4671 140.362 81.4671 140.362 81.4671 140.362C81.311 140.362 81.1878 140.493 81.1797 140.649C81.1797 140.806 81.311 140.937 81.4671 140.937L84.0955 140.954C84.6622 141.175 85.4178 141.62 85.4178 141.941C85.4178 142.014 85.3521 142.285 84.4733 142.614C84.4733 142.614 84.4652 142.606 84.4568 142.614C84.4486 142.606 84.4486 142.606 84.4404 142.606L81.771 142.59C81.615 142.59 81.4835 142.721 81.4835 142.878C81.4835 143.042 81.6068 143.165 81.771 143.165C81.7895 143.165 84.4521 143.187 84.4652 143.173C84.8429 143.429 85.3111 143.88 85.2536 144.127C85.229 144.276 84.9415 144.464 84.2516 144.588C83.3888 144.555 81.76 144.493 81.8613 144.497C81.8531 144.497 81.8531 144.497 81.8531 144.497C81.697 144.497 81.5657 144.62 81.5657 144.777C81.5575 144.933 81.6806 145.072 81.8367 145.072L84.1283 145.155C84.6129 145.575 84.4733 145.805 84.4158 145.887C83.7177 147.021 78.6005 147.605 75.5697 146.199C75.4389 146.101 75.2415 146.248 75.159 146.281C75.0765 146.322 74.1073 146.799 74.1898 146.758C73.5858 146.456 72.4628 142.097 73.352 140.773C74.607 140.181 75.6326 139.607 76.7607 139.203ZM94.0833 137.673C94.0008 137.66 90.681 137.099 90.5268 137.073C90.4057 137.048 90.2363 137.134 90.1982 137.311C90.1653 137.468 90.2721 137.616 90.4282 137.64C90.4282 137.64 90.4447 137.64 90.4857 137.649C91.36 145.616 91.3607 153.365 91.3728 160.85C91.3641 166.706 91.2522 171.67 92.3173 172.369C92.3091 172.41 92.3009 172.443 92.2845 172.476C92.2845 172.635 91.9099 172.997 91.7177 173.126C86.161 177.146 49.3245 178.188 48.7192 173.948C52.5354 155.591 51.2188 161.924 51.5036 160.555C51.5283 160.555 51.5529 160.546 51.5776 160.538C64.7504 155.307 72.09 148.529 73.1056 147.967C73.3458 147.845 72.2356 148.409 75.4547 146.775C76.7525 147.342 78.4034 147.597 79.964 147.597C82.2638 147.597 84.3747 147.054 84.9086 146.19C85.0482 145.96 85.1879 145.541 84.8182 145.04C85.4096 144.876 85.7464 144.612 85.8204 144.242C85.9271 143.749 85.4919 143.264 85.1304 142.952C85.7136 142.664 85.9928 142.326 85.9928 141.941C85.9928 141.373 85.3603 140.929 84.8511 140.666C85.4836 140.345 86.2885 139.827 86.2064 139.244C86.116 138.644 85.2126 138.307 83.2576 138.15C82.6272 138.095 81.7804 138.004 81.5328 137.986C82.5102 137.369 83.1098 136.432 83.0195 135.741C82.9784 135.453 82.732 134.787 81.541 134.812C80.925 134.82 80.3007 135.034 79.7258 135.429C78.7894 136.07 77.467 137.156 76.4731 138.692C76.0543 138.849 75.66 139.014 75.2412 139.21C75.0399 138.919 74.7684 138.818 74.4197 138.972C74.4197 138.972 74.4115 138.98 74.4034 138.98H74.3951C74.3951 138.98 74.3951 138.98 74.3869 138.98L54.7645 144.62L55.4379 139.268C55.4626 139.104 55.3477 138.964 55.1916 138.939C55.0355 138.923 54.8876 139.038 54.8712 139.194L54.1649 144.785L50.7479 145.549C50.4479 145.628 50.3743 146.137 50.9377 146.116C52.0383 146.075 56.2392 144.797 73.1877 139.918C73.0809 140.049 72.9824 140.214 72.9002 140.386C72.892 140.395 72.8838 140.411 72.8756 140.419C72.0696 142.839 72.5773 145.262 73.6395 147.038C68.0654 149.83 61.2558 153.021 54.5673 154.791C52.367 155.351 48.7318 156.103 46.485 155.712C46.3783 155.695 46.2797 155.678 46.1812 155.646C43.0631 155.165 41.6177 151.62 41.0969 148.493C40.133 142.65 41.5854 137.509 41.598 137.427C41.7877 137.045 46.6467 113.985 66.8386 109.859C67.6664 111.424 74.6374 124.611 74.2145 123.811C74.349 124.058 74.7483 123.981 74.7483 123.697C75.7988 110.938 75.5959 113.331 75.8817 109.835C78.19 110.448 80.2337 111.689 81.7052 113.164C81.7874 113.164 81.7758 113.217 83.4877 114.66H83.4959C95.9921 125.206 95.2561 124.764 95.5207 124.716C129.66 117.02 117.885 119.674 120.433 119.1C119.734 120.946 120.783 125.059 121.829 126.516L120.424 128.933C115.016 131.612 100.087 138.666 94.0833 137.673ZM92.4077 284.843C92.4421 286.066 91.4948 286.996 90.3543 287.03C79.3379 287.03 80.252 287.037 80.038 287.013C79.0851 286.914 78.3049 286.174 78.1734 285.221C77.7778 280.166 72.5166 212.949 72.0412 206.874L72.534 211.547L72.9807 192.644L73.7715 189.035C73.8518 188.665 73.2936 188.536 73.21 188.911L70.8951 199.477C70.8934 199.485 70.8958 199.493 70.8947 199.501C70.8899 199.514 70.8879 199.528 70.8879 199.542L57.4011 284.308L56.9493 286.503C56.8836 286.808 56.6125 287.03 56.3004 287.03C56.218 287.03 45.5506 287.043 45.2613 286.997C43.4299 286.759 42.0306 285.128 42.1565 283.223L50.4112 175.814C58.6283 178.678 84.9122 177.149 91.2167 174.079L92.4077 284.843ZM89.615 290.705C88.3667 290.787 86.3625 293.451 85.7957 294.232C84.3739 293.705 82.0667 292.958 80.5554 292.924L80.6128 287.605H89.8041L89.9847 290.713C89.8615 290.705 89.7383 290.696 89.615 290.705ZM94.2639 296.632C94.2051 296.795 94.0162 296.895 93.8122 296.814C93.638 296.726 93.5597 296.53 93.6398 296.353C93.6726 296.271 93.7383 296.205 93.8286 296.172C94.1115 296.059 94.396 296.368 94.2639 296.632ZM92.5638 294.914C92.5638 294.963 92.5556 295.013 92.5391 295.054C92.4424 295.248 92.2262 295.3 92.0792 295.227C91.9167 295.162 91.8214 294.945 91.9067 294.774C91.9395 294.692 92.0135 294.627 92.0956 294.593C92.3251 294.501 92.5638 294.667 92.5638 294.914ZM90.8718 293.565C90.7912 293.727 90.5841 293.825 90.4118 293.739C90.2393 293.664 90.1571 293.459 90.2393 293.286C90.2721 293.196 90.3461 293.139 90.4282 293.105C90.7264 292.986 90.9794 293.296 90.8718 293.565ZM90.6089 291.552C90.8791 291.699 91.1491 291.887 91.4274 292.109L90.9284 292.58C90.6305 292.47 90.359 292.468 90.0914 292.629C89.9272 292.727 89.7957 292.867 89.7136 293.048C89.5083 293.516 89.7136 294.059 90.1818 294.264C90.5881 294.468 91.1767 294.297 91.3974 293.796C91.5335 293.49 91.4616 293.117 91.3483 292.974L91.8727 292.48C91.873 292.48 91.8734 292.481 91.8738 292.481C92.2763 292.834 92.6869 293.229 93.073 293.615L93.0755 293.617L92.5976 294.068C92.5973 294.068 92.597 294.068 92.5966 294.068C92.3748 293.969 92.1203 293.969 91.8902 294.051C91.6602 294.141 91.4796 294.314 91.381 294.537C91.1658 295.039 91.4136 295.559 91.8492 295.753C92.2491 295.953 92.8484 295.79 93.0648 295.284C93.188 295.013 93.1634 294.709 93.0237 294.462C93.0233 294.461 93.0223 294.46 93.0217 294.459L93.4824 294.026L93.4837 294.026C93.9436 294.47 94.3872 294.898 94.7978 295.202C94.7988 295.203 94.7997 295.203 94.8007 295.204L94.3226 295.655C94.2397 295.636 93.9934 295.492 93.6234 295.638C93.3933 295.728 93.2126 295.901 93.1141 296.122C92.8962 296.576 93.107 297.132 93.5741 297.339C94.0651 297.536 94.5858 297.33 94.7896 296.871C94.9125 296.592 94.888 296.29 94.7497 296.043L95.2846 295.539H95.2907C95.299 295.539 95.299 295.548 95.3072 295.548C96.1818 296.023 97.7798 296.309 98.8553 296.526C98.8641 298.014 99.7511 299.387 101.122 299.995C101.615 300.217 102.133 300.332 102.667 300.332C102.987 300.332 103.299 300.292 103.611 300.21C103.636 300.44 103.652 300.67 103.669 300.892C103.7 301.531 103.226 302.152 102.469 302.207C91.8409 302.758 79.9312 302.807 78.3706 301.294C78.0756 301.007 77.8626 300.68 77.7067 300.343C79.5596 301.176 83.9956 301.432 88.7543 301.432C92.4577 301.432 96.3559 301.278 99.3775 301.118C99.535 301.11 99.6572 300.975 99.6494 300.816C99.6406 300.658 99.5271 300.538 99.3472 300.543C78.2242 301.658 77.6308 299.549 77.4437 299.516C77.4415 299.433 77.196 298.54 77.5245 297.143C79.9014 298.016 82.3295 296.191 82.3295 293.771C84.0133 294.158 85.7711 294.84 85.7957 294.849C85.9189 294.898 86.0585 294.857 86.1407 294.75C87.0524 293.434 88.8183 291.329 89.6561 291.281C89.9576 291.259 90.3409 291.412 90.6089 291.552ZM55.208 290.713C55.0848 290.705 54.9615 290.696 54.8383 290.705C53.5817 290.787 51.5776 293.451 51.0108 294.232C49.5891 293.705 47.2816 292.958 45.7705 292.924L45.8198 287.605H55.0355L55.208 290.713ZM59.4791 296.632C59.4194 296.797 59.2291 296.894 59.0274 296.814C58.8539 296.726 58.7746 296.53 58.8549 296.353C58.8877 296.271 58.9534 296.205 59.0437 296.172C59.3268 296.059 59.6112 296.368 59.4791 296.632ZM57.7542 295.054C57.6575 295.248 57.4411 295.3 57.2943 295.227C57.132 295.162 57.0365 294.946 57.1218 294.774C57.1628 294.692 57.2285 294.627 57.3107 294.593C57.6081 294.475 57.8655 294.775 57.7542 295.054ZM55.9061 293.105C56.0906 293.198 56.1507 293.406 56.0868 293.565C56.0062 293.728 55.8005 293.826 55.6269 293.739C55.4642 293.673 55.3692 293.457 55.4544 293.286C55.5133 293.124 55.7288 293.035 55.9061 293.105ZM55.824 291.552C56.0868 291.692 56.3579 291.881 56.6454 292.103C56.6461 292.103 56.6467 292.104 56.6475 292.104L56.1437 292.58C56.0617 292.546 55.9634 292.513 55.8733 292.513C55.4828 292.448 55.0906 292.691 54.9287 293.048C54.7335 293.488 54.9058 294.054 55.3969 294.264H55.4051C55.8111 294.468 56.3874 294.292 56.6125 293.796C56.7111 293.574 56.7111 293.328 56.6289 293.097C56.6126 293.056 56.596 293.015 56.5635 292.974L57.088 292.48C57.0883 292.48 57.0886 292.481 57.0889 292.481C57.4913 292.834 57.9021 293.229 58.2881 293.615C58.2891 293.616 58.2898 293.617 58.2907 293.618L57.8131 294.069C57.7305 294.051 57.4954 293.912 57.1053 294.051C56.8754 294.141 56.6947 294.314 56.5961 294.537C56.3818 295.037 56.6268 295.559 57.0642 295.753C57.4644 295.953 58.0637 295.79 58.2799 295.284C58.4031 295.013 58.3785 294.709 58.2388 294.462C58.2383 294.461 58.2374 294.461 58.237 294.46L58.6976 294.026C58.698 294.026 58.6984 294.026 58.6988 294.026C59.1587 294.47 59.6023 294.898 60.013 295.202C60.0139 295.203 60.0148 295.203 60.0158 295.204L59.5374 295.655C59.4546 295.636 59.2085 295.492 58.8384 295.638C58.6084 295.728 58.4278 295.901 58.3292 296.122C58.1118 296.575 58.3212 297.132 58.7891 297.339C59.2791 297.535 59.8004 297.331 60.0048 296.871C60.1276 296.592 60.1033 296.29 59.9647 296.043L60.4997 295.539H60.5058C60.514 295.539 60.514 295.548 60.5223 295.548C61.4067 296.023 62.9928 296.308 64.0705 296.526C64.0843 299.014 66.4691 300.833 68.8345 300.21C68.8509 300.44 68.8756 300.67 68.8838 300.892C68.9157 301.53 68.4417 302.152 67.6845 302.207C57.0642 302.758 45.1462 302.807 43.5856 301.294C43.1689 300.889 43.0307 300.543 42.9175 300.341C44.7679 301.176 49.2075 301.432 53.9697 301.432C57.6731 301.432 61.5713 301.278 64.5929 301.118C64.9647 301.099 64.9526 300.531 64.5624 300.543C43.4382 301.658 42.8459 299.549 42.6587 299.516C42.6564 299.433 42.4112 298.54 42.7397 297.143C45.1245 298.019 47.5446 296.18 47.5446 293.771C49.2284 294.158 50.9862 294.84 51.0108 294.849C51.134 294.898 51.2736 294.857 51.3558 294.75C52.2675 293.434 54.0334 291.329 54.8712 291.281C54.9862 291.272 55.1094 291.288 55.2409 291.322C55.4297 291.363 55.6187 291.445 55.824 291.552ZM75.3396 109.44C75.3441 109.526 75.198 112.748 75.0558 113.037C74.3172 114.533 71.0061 114.636 69.4834 113.649C69.4397 113.566 67.1006 109.141 67.2492 109.423C66.5149 96.6264 66.6949 99.763 66.6661 99.2608C66.6578 99.1375 66.5675 99.0308 66.4442 98.9985C65.4915 98.7518 65.204 97.625 65.1301 96.7204C65.0808 96.1614 65.0726 95.0679 65.6393 94.4345C66.2883 94.0234 66.8961 93.8922 67.4545 94.0322C68.4156 94.2701 68.9413 95.249 68.9413 95.2569C68.9988 95.3557 69.0973 95.4135 69.1958 95.4135C69.2205 95.4135 69.2369 95.4047 69.2534 95.4047C77.5574 93.8844 79.0276 90.086 79.2823 88.548L80.8182 90.0605V90.0693C80.9496 91.5407 81.1549 94.1389 81.1549 96.6793C81.1549 99.2853 80.9414 101.827 80.2268 103.035C78.8524 105.36 74.5334 104.511 70.9536 104.441C70.7975 104.424 70.6579 104.556 70.6496 104.721C70.6496 104.876 70.7647 105.008 70.929 105.016L75.0851 105.214C75.0902 105.297 75.3565 109.718 75.3396 109.44ZM108.08 41.3062C108.08 35.3619 112.909 30.5269 118.848 30.5269H342.637C348.576 30.5269 353.405 35.3619 353.405 41.3062V52.9647H108.08V41.3062ZM421.858 147.951C420.134 151.814 418.806 154.825 418.835 154.758L413.726 154.544C413.403 147.105 413.43 147.259 413.431 147.342L413.414 146.347C413.496 146.334 415.649 146.443 417.834 145.13C417.842 145.13 417.842 145.122 417.842 145.122C418.557 144.711 419.23 144.193 419.846 143.577C419.961 143.47 419.961 143.289 419.846 143.173C419.739 143.059 419.558 143.059 419.444 143.173C419.188 143.429 418.934 143.659 418.663 143.864L418.654 143.88C416.952 145.23 415.038 145.845 413.168 145.771C413.16 145.771 413.16 145.771 413.16 145.771L413.151 145.764C409.504 145.355 407.045 143.507 405.694 140.025C405.524 139.65 405.249 138.692 405.225 138.528C405.082 138.24 404.747 136.101 405.02 134.187C405.102 133.554 405.242 132.929 405.431 132.32C408.331 131.554 410.896 129.42 412.133 126.475C412.79 132.018 415.908 134.466 419.156 134.466C419.295 134.5 419.435 134.36 419.452 134.212C419.583 132.937 420.609 131.951 421.899 131.869C423.14 131.795 423.829 132.625 423.952 134.376C424.027 135.436 423.862 136.761 422.68 137.073C422.581 137.106 422.499 137.188 422.474 137.303C422.274 138.341 422.105 138.683 422.105 138.783C422.012 141.975 421.855 148.033 421.858 147.951ZM451.715 189.594C450.772 181.095 447.563 168.111 443.961 161.738C440.507 155.305 435.052 151.005 428.947 149.011C435.718 144.899 437.736 136.365 434.187 129.78C435.897 120.726 428.427 112.491 419.32 113.295C414.619 108.563 406.339 110.485 404.33 117.045C397.028 118.765 394.874 128.34 400.905 132.995C398.41 136.633 398.446 141.644 401.324 145.311C402.425 146.709 403.829 147.778 405.423 148.452C402.49 149.216 399.427 150.491 396.996 152.604C396.79 152.785 384.757 163.564 383.147 165.002L353.98 147.358C353.98 131.175 353.98 54.1061 353.98 41.3062C353.98 35.0408 348.888 29.9512 342.637 29.9512H118.848C112.597 29.9512 107.505 35.0408 107.505 41.3062C107.505 52.9294 107.505 111.119 107.505 121.427L95.5371 124.124L85.0154 115.203C87.2691 112.018 85.3984 106.367 84.2105 102.394C83.3726 99.5819 82.5842 96.9094 82.5842 94.8956C82.5842 94.6245 82.5924 94.3689 82.6253 94.1223C82.7073 93.4487 83.0441 92.5275 83.4466 91.4507C84.424 88.7948 85.6479 85.4819 84.2023 82.8671C83.2905 81.2225 81.4014 80.08 78.5758 79.4877C67.7685 77.2117 59.3631 78.2415 58.6741 89.2304C58.0128 100.154 59.9795 101.758 54.1402 105.666C51.8239 107.212 50.8301 109.143 51.3393 111.1C51.7171 112.556 52.8917 113.846 54.6659 114.858C50.4634 118.115 47.0388 122.69 44.8834 127.108C43.2588 130.282 41.7092 134.596 41.0476 137.246C41.0346 137.332 39.6046 142.884 40.4645 148.263C40.4645 148.271 40.4645 148.271 40.4645 148.271C40.4694 148.301 40.6154 149.173 40.6288 149.2C41.2294 152.291 42.7345 155.333 45.7869 156.147C47.3429 156.603 50.1931 156.313 51.7911 156.007L48.1442 173.882C48.1339 173.902 48.1282 173.965 48.1524 174.038C48.1524 174.34 48.4765 174.733 48.7438 174.967C49.1087 175.241 49.2943 175.361 49.8527 175.6L41.5815 283.19C41.441 285.393 43.0617 287.332 45.253 287.572L45.1955 292.957C42.8072 293.356 40.5521 299.129 43.1832 301.705C45.4789 303.938 64.5652 302.93 67.7174 302.775C68.7244 302.723 69.5177 301.868 69.4505 300.859C69.4023 299.893 69.2493 298.251 68.5962 297.554C67.2038 296.084 62.7879 295.998 60.952 295.113L61.0427 295.027C61.1583 294.918 61.1638 294.736 61.0548 294.621C60.9449 294.504 60.7644 294.499 60.6481 294.608L60.4382 294.806C60.0452 294.519 59.5952 294.093 59.1207 293.626L59.3134 293.445C59.4289 293.335 59.4345 293.153 59.3254 293.038C59.2148 292.922 59.0334 292.916 58.9187 293.026L58.7094 293.223L58.707 293.221C58.3128 292.826 57.9185 292.44 57.516 292.077C57.5157 292.077 57.5156 292.077 57.5154 292.077L57.6442 291.956C57.7597 291.846 57.7653 291.664 57.6562 291.549C57.5463 291.433 57.3643 291.427 57.2496 291.537L57.0747 291.701C57.0739 291.7 57.0732 291.7 57.0725 291.699C56.6372 291.354 56.2101 291.058 55.7912 290.886L55.6022 287.605H56.3004C56.8836 287.605 57.3929 287.194 57.5078 286.619L57.9678 284.407L71.085 201.976L77.5984 285.286C77.771 286.528 78.7977 287.482 80.0297 287.597L79.9722 292.957C79.8326 292.991 79.7011 293.023 79.5943 293.064C77.4482 293.937 75.4187 299.209 77.968 301.705C79.118 302.823 84.4815 303.136 90.1736 303.136C92.457 303.136 94.7978 303.087 96.9334 303.012C99.0773 302.947 101.016 302.848 102.502 302.775C103.51 302.723 104.303 301.868 104.235 300.859C104.187 299.893 104.035 298.251 103.381 297.554C101.993 296.088 97.5571 295.99 95.7366 295.113L95.8273 295.027C95.9429 294.918 95.9484 294.736 95.8393 294.62C95.7295 294.504 95.5474 294.499 95.4327 294.608L95.223 294.806C94.8301 294.519 94.3799 294.093 93.9054 293.626L94.0979 293.445C94.2135 293.335 94.2192 293.153 94.1099 293.038C94.0001 292.922 93.818 292.916 93.7033 293.026L93.4941 293.223C93.4935 293.222 93.4927 293.222 93.4919 293.221C93.0977 292.826 92.6951 292.432 92.3009 292.077C92.3006 292.077 92.3004 292.077 92.3 292.076L92.4287 291.956C92.5443 291.846 92.5498 291.664 92.4408 291.549C92.3309 291.433 92.1488 291.427 92.0341 291.537L91.8595 291.701C91.8588 291.7 91.8581 291.7 91.8575 291.699C91.4221 291.346 90.995 291.058 90.5679 290.886L90.3871 287.597C91.8952 287.561 93.0311 286.273 92.9827 284.834L91.7917 173.767C92.3938 173.383 92.9728 172.86 92.8923 172.147C92.8583 171.975 92.7302 171.884 92.6377 171.884C91.9395 171.81 91.9395 165.989 91.9477 160.85C91.9477 154.355 91.956 145.928 91.0689 137.747C91.6766 137.854 92.7033 138.027 93.9929 138.24C97.7027 138.824 104.004 136.633 107.505 135.297V190.663C107.505 196.927 112.597 202.017 118.848 202.017H342.637C348.888 202.017 353.98 196.927 353.98 190.663V181.898L364.001 207.879C364.01 207.895 364.017 207.912 364.025 207.92C362.712 208.397 361.537 208.939 360.527 209.54C345.577 218.477 321.372 276.202 320.345 278.66C319.836 279.926 320.444 281.373 321.693 281.891L322.259 282.121L321.2 284.144C320.67 284.132 320.231 284.267 319.941 284.334L319.89 284.212C319.846 284.108 319.725 284.059 319.621 284.102C319.517 284.146 319.467 284.266 319.512 284.371L319.546 284.454C319.544 284.455 319.542 284.455 319.54 284.456C318.993 284.628 318.631 284.77 318.257 284.909L318.192 284.755C318.09 284.505 317.708 284.663 317.814 284.913L317.873 285.056C317.356 285.254 316.871 285.426 316.485 285.501L316.42 285.346C316.377 285.242 316.256 285.192 316.152 285.236C316.048 285.28 315.998 285.401 316.042 285.506L316.064 285.557C315.55 285.478 316.15 285.726 313.257 285.073C309.818 284.312 309.253 284.499 307.96 287.005C307.568 287.754 307.883 288.673 308.625 289.044C310.875 290.192 324.499 297.15 326.884 296.221C329.741 295.171 329.833 290.103 328.296 289.126L329.939 285.303L331.007 285.747C332.104 286.193 333.252 285.807 333.906 284.974L360.206 248.396C360.232 248.478 361.985 254.141 361.874 253.781C361.874 266.636 361.874 275.402 361.874 288.879C361.874 290.812 363.442 292.382 365.364 292.382H374.589C374.432 292.727 374.292 293.04 374.137 293.286L373.98 293.229C373.874 293.188 373.758 293.237 373.717 293.344C373.676 293.451 373.734 293.574 373.841 293.607L373.89 293.623C373.487 294.084 372.74 294.593 371.952 295.137C371.044 295.779 369.421 296.786 369.028 297.825C368.763 298.538 369.153 299.846 369.431 300.563C369.692 301.281 370.498 301.751 371.377 301.459C377.611 299.173 388.199 295.038 389.061 292.974C389.143 292.785 389.201 292.587 389.242 292.382H429.242C431.173 292.382 432.742 290.812 432.742 288.879C432.742 280.555 432.742 242.752 432.742 233.67C432.742 231.738 431.173 230.168 429.242 230.168H425.612C430.745 229.091 434.614 224.511 434.614 219.077V219.044L434.565 207.09C437.391 206.96 448.546 205.793 450.286 203.62C452.607 201.037 452.094 193.058 451.715 189.594Z" fill="#3C4150"/>
<path d="M408.034 134.936C407.684 134.886 407.365 135.167 407.336 135.487C407.279 135.857 407.593 136.159 407.886 136.186C408.232 136.227 408.551 135.98 408.593 135.635C408.634 135.289 408.387 134.977 408.034 134.936Z" fill="#3C4150"/>
<path d="M409.292 133.85C409.628 134.075 409.906 133.579 409.612 133.373C408.804 132.829 407.779 132.738 406.844 132.995C406.467 133.094 406.635 133.651 406.983 133.554C408.094 133.245 408.721 133.565 409.292 133.85Z" fill="#3C4150"/>
<path d="M413.029 135.462C412.684 135.42 412.363 135.667 412.322 136.012C412.281 136.358 412.527 136.67 412.88 136.711C413.226 136.752 413.538 136.506 413.579 136.169C413.62 135.823 413.373 135.503 413.029 135.462Z" fill="#3C4150"/>
<path d="M412.372 133.752C412.094 134.052 412.492 134.447 412.741 134.196C412.881 134.13 413.998 133.908 414.844 134.377C415.198 134.554 415.447 134.047 415.124 133.876C414.048 133.276 412.594 133.538 412.372 133.752Z" fill="#3C4150"/>
<path d="M409.439 138.734C409.678 138.843 410.005 138.846 410.088 138.825C410.244 138.825 410.367 138.693 410.367 138.536C410.359 138.373 410.219 138.257 410.072 138.249C409.932 138.257 409.784 138.257 409.669 138.208C409.603 138.175 409.554 138.109 409.554 138.068C409.554 137.835 410.25 137.86 410.696 137.13C410.85 136.926 411.036 136.404 411 135.807C410.983 135.642 410.869 135.519 410.696 135.536C410.531 135.545 410.417 135.684 410.425 135.84C410.419 135.924 410.457 136.366 410.277 136.695C410.277 136.769 410.072 137.076 409.792 137.221C409.743 137.255 409.694 137.27 409.644 137.296C408.755 137.666 408.832 138.456 409.439 138.734Z" fill="#3C4150"/>
<path d="M411.123 140.848C410.13 141.563 409.243 141.004 409.029 140.725C408.931 140.593 408.75 140.568 408.627 140.667C408.496 140.757 408.47 140.938 408.569 141.07C408.849 141.448 409.423 141.777 410.105 141.777C410.532 141.777 411 141.654 411.46 141.316C411.583 141.226 411.616 141.045 411.525 140.914C411.428 140.782 411.247 140.757 411.123 140.848Z" fill="#3C4150"/>
<path d="M422.408 135.216C422.343 135.363 422.4 135.528 422.548 135.593C422.666 135.665 422.85 135.619 422.927 135.453C423.616 133.949 422.819 132.93 422.302 132.609C422.171 132.519 421.99 132.56 421.908 132.7C421.825 132.831 421.859 133.003 421.999 133.094C422.039 133.119 423.05 133.793 422.408 135.216Z" fill="#3C4150"/>
<path d="M75.6105 96.195C75.2902 96.2851 75.1095 96.6218 75.1916 96.9429C75.282 97.2631 75.6105 97.453 75.9226 97.362C76.2348 97.2719 76.4236 96.9351 76.3333 96.6219C76.2513 96.2929 75.9226 96.104 75.6105 96.195Z" fill="#3C4150"/>
<path d="M74.2059 95.545C74.6927 95.312 75.2209 95.175 75.865 95.175C76.0047 95.175 76.1525 95.0516 76.1525 94.896C76.1608 94.7393 76.0293 94.6081 75.8732 94.5993C75.2269 94.5993 74.5447 94.7305 73.9595 95.035C73.8116 95.1015 73.7542 95.2738 73.828 95.4138C73.9029 95.5763 74.0905 95.6145 74.2059 95.545Z" fill="#3C4150"/>
<path d="M66.6831 95.1433C66.1446 95.2236 65.6767 95.7718 65.8289 96.6637C65.9438 97.3137 66.3875 97.8972 66.9788 98.1938C67.138 98.2574 67.3018 98.1879 67.3649 98.0616C67.4306 97.9138 67.3731 97.7415 67.2334 97.6749C66.7981 97.4615 66.4777 97.0337 66.3957 96.557C66.3059 96.0176 66.5422 95.7395 66.7735 95.7102C66.8967 95.6857 67.0281 95.7601 67.0609 95.8502C67.1184 95.998 67.2827 96.0802 67.4306 96.0224C67.5784 95.9735 67.6523 95.809 67.603 95.6612C67.4716 95.299 67.0691 95.0768 66.6831 95.1433Z" fill="#3C4150"/>
<path d="M79.5527 99.8781C79.4132 99.8125 79.2407 99.8702 79.1749 100.018C79.1092 100.158 79.0025 100.338 78.8546 100.371C78.7151 100.405 78.5178 100.323 78.2797 100.133C78.1565 100.035 77.9757 100.059 77.8772 100.19C77.7787 100.314 77.8033 100.495 77.9265 100.594C78.2384 100.832 78.6169 101.025 78.9943 100.93C79.2817 100.857 79.52 100.635 79.6924 100.257C79.7663 100.117 79.7006 99.9436 79.5527 99.8781Z" fill="#3C4150"/>
<path d="M79.7337 95.1015C79.4134 95.1671 79.208 95.4793 79.2655 95.8083C79.3313 96.1372 79.6433 96.3506 79.9637 96.285C80.284 96.2194 80.4894 95.9071 80.4319 95.5782C80.3661 95.2493 80.0623 95.0349 79.7337 95.1015Z" fill="#3C4150"/>
<path d="M78.6332 94.0814C79.1352 93.8934 79.6136 93.7809 80.3171 93.8435C80.4814 93.8513 80.6127 93.7446 80.6292 93.5802C80.6456 93.4235 80.5307 93.2835 80.3664 93.2679C79.6599 93.1993 78.97 93.3266 78.428 93.5469C78.2801 93.6046 78.2062 93.7691 78.2637 93.9169C78.3066 94.0373 78.4382 94.1304 78.6332 94.0814Z" fill="#3C4150"/>
<path d="M78.4526 97.9958C78.2636 97.9879 78.0254 97.9713 77.8036 98.0946C77.6722 98.1769 77.6311 98.357 77.7133 98.497C77.7918 98.6282 77.988 98.6673 78.1075 98.588C78.2688 98.495 79.1785 98.776 79.3067 98.1025C79.356 97.8479 79.1917 97.6502 79.1014 97.5357C78.6907 97.0256 78.4115 96.4334 78.3048 95.8C78.2718 95.6443 78.1239 95.5376 77.9679 95.5699C77.8119 95.5954 77.7051 95.7432 77.7379 95.8988C77.9317 97.0364 78.6571 97.9713 78.74 97.9713C78.6293 98.0261 78.5351 97.9928 78.4526 97.9958Z" fill="#3C4150"/>
<path d="M379.05 194.036C377.784 194.036 376.526 193.009 376.236 191.735C375.955 190.469 376.748 189.443 378.013 189.443C379.285 189.443 380.544 190.469 380.825 191.735C381.114 193.009 380.315 194.036 379.05 194.036Z" fill="white"/>
</svg>
