<svg width="24" height="24" viewBox="0 0 24 24" fill="none" xmlns="http://www.w3.org/2000/svg">
<g id="Download">
<path id="Vector" fill-rule="evenodd" clip-rule="evenodd" d="M11.6015 15.9895C11.5698 15.9672 11.5401 15.9424 11.5132 15.9153C11.5017 15.9041 11.4901 15.8932 11.4786 15.8812L7.36405 11.0812C7.11733 10.793 7.14519 10.3679 7.43319 10.1212C7.72119 9.87427 8.14645 9.90163 8.40661 10.1896L11.3145 13.5853V3.08573C11.3145 2.70163 11.6159 2.3999 11.9999 2.3999C12.3839 2.3999 12.6853 2.70163 12.6853 3.08573V13.5852L15.5932 10.1896C15.8399 9.90163 16.2786 9.87427 16.5666 10.1212C16.8546 10.3679 16.8825 10.8068 16.6357 11.0812L12.5212 15.8812C12.5097 15.8932 12.4981 15.9041 12.4866 15.9153C12.3637 16.0386 12.1919 16.1141 11.9999 16.1141C11.8501 16.1141 11.7129 16.0682 11.6015 15.9895ZM3.40118 20.5986C4.04534 21.2296 4.92376 21.5999 5.82808 21.5999H18.1717C19.076 21.5999 19.9545 21.2434 20.5986 20.5986C21.2293 19.9541 21.5999 19.0764 21.5999 18.1713V16.7999C21.5999 16.4158 21.2985 16.1141 20.9145 16.1141C20.5305 16.1141 20.2281 16.4158 20.2281 16.7999V18.1713C20.2281 18.7062 20.0092 19.241 19.6252 19.6249C19.2412 20.009 18.7064 20.2283 18.1717 20.2283H5.82808C5.29336 20.2283 4.75863 20.009 4.37463 19.6249C3.99063 19.241 3.77173 18.7062 3.77173 18.1713V16.7999C3.77173 16.4158 3.46933 16.1141 3.08533 16.1141C2.70133 16.1141 2.3999 16.4158 2.3999 16.7999V18.1713C2.3999 19.0764 2.75606 19.9541 3.40118 20.5986Z" fill="rgba(19, 76, 222, 1)"/>
</g>
</svg>
