<svg width="24" height="24" viewBox="0 0 24 24" fill="none" xmlns="http://www.w3.org/2000/svg">
<g id="Doc View">
<path id="Vector" fill-rule="evenodd" clip-rule="evenodd" d="M7.57392 10.5906C4.93086 10.5906 2.70017 8.66774 1.6133 7.52438C1.35116 7.2287 1.19995 6.86582 1.19995 6.48854C1.19995 6.11222 1.3374 5.74934 1.59955 5.46614C2.70017 4.32326 4.91712 2.3999 7.57392 2.3999C10.2307 2.3999 12.4477 4.32326 13.5345 5.46614C13.7967 5.74934 13.9479 6.11222 13.9479 6.48854C13.9479 6.86582 13.8104 7.2287 13.5483 7.51094C12.4614 8.6543 10.2307 10.5772 7.57392 10.5772V10.5906ZM2.59627 6.40989C3.53292 7.39197 5.44043 9.24566 7.57392 9.24566C9.70741 9.24566 11.7731 7.40342 12.5301 6.6095L13.0397 5.92406L12.5479 6.58558C11.7909 5.79262 9.79086 3.74496 7.57392 3.74496C5.35796 3.74496 3.55435 5.39894 2.6177 6.38102L2.10814 7.06742L2.59627 6.40989ZM7.57392 8.88278C6.2249 8.88278 5.13704 7.80662 5.13704 6.50198C5.13704 5.19763 6.2249 4.12157 7.57392 4.12157C8.92294 4.12157 10.0108 5.19763 10.0108 6.50198C10.0108 7.80662 8.90919 8.88278 7.57392 8.88278ZM7.57392 5.4527C6.98188 5.4527 6.51355 5.92406 6.51355 6.48854C6.51355 7.05398 6.99563 7.52438 7.57392 7.52438C8.15221 7.52438 8.63428 7.05398 8.63428 6.48854C8.63428 5.92406 8.15221 5.4527 7.57392 5.4527ZM9.23319 21.5999H20.6576C21.2143 21.5999 21.772 21.3637 22.1716 20.95C22.5712 20.5362 22.7999 19.9756 22.7999 19.3842V4.6153C22.7999 4.02451 22.5712 3.4633 22.1716 3.04973C21.772 2.63626 21.229 2.3999 20.6576 2.3999H14.2316C13.831 2.3999 13.5169 2.72487 13.5169 3.13834C13.5169 3.55191 13.831 3.87686 14.2316 3.87686H20.6576C20.8432 3.87686 21.0287 3.96547 21.1574 4.09834C21.3007 4.2313 21.3714 4.4233 21.3714 4.6153V19.3842C21.3714 19.5762 21.286 19.7682 21.1574 19.9017C21.0287 20.0495 20.8432 20.1234 20.6576 20.1234H9.23319C9.04763 20.1234 8.86206 20.0495 8.73345 19.9017C8.5901 19.7682 8.51941 19.5762 8.51941 19.3842V13.4764C8.51941 13.0636 8.20523 12.7381 7.80465 12.7381C7.40505 12.7381 7.09086 13.0636 7.09086 13.4764V19.3842C7.09086 19.9756 7.31962 20.5516 7.71922 20.95C8.11882 21.3637 8.66178 21.5999 9.23319 21.5999ZM13.5581 12.7429H17.6886C18.0735 12.7429 18.3769 12.4473 18.3769 12.0709C18.3769 11.6937 18.0735 11.398 17.6886 11.398H13.5581C13.1722 11.398 12.8698 11.6937 12.8698 12.0709C12.8698 12.4473 13.1722 12.7429 13.5581 12.7429ZM17.6876 16.1058H10.8051C10.4192 16.1058 10.1168 15.8101 10.1168 15.4329C10.1168 15.0565 10.4192 14.7609 10.8051 14.7609H17.6876C18.0735 14.7609 18.3769 15.0565 18.3769 15.4329C18.3769 15.8101 18.0735 16.1058 17.6876 16.1058Z" fill="rgba(19, 76, 222, 1)"/>
</g>
</svg>
