<svg width="32" height="32" viewBox="0 0 32 32" fill="none" xmlns="http://www.w3.org/2000/svg">
<path fill-rule="evenodd" clip-rule="evenodd" d="M19.9571 23.964C19.7931 23.7827 19.5545 23.6934 19.3171 23.6934L19.3171 23.6747C19.0985 23.6747 18.8598 23.7654 18.6771 23.9454C18.3118 24.3067 18.3118 24.868 18.6771 25.2294L22.4451 28.9558C22.6091 29.1858 22.8811 29.3334 23.1917 29.3334C23.5024 29.3334 23.7731 29.1872 23.9371 28.9592L27.725 25.248C28.0917 24.8854 28.0917 24.3254 27.725 23.964C27.3597 23.6027 26.793 23.6027 26.4277 23.964L24.1064 26.2599L24.1064 18.196C24.1064 17.6907 23.7037 17.2934 23.1917 17.2934C22.6811 17.2934 22.2784 17.6907 22.2784 18.196L22.2784 26.2598L19.9571 23.964ZM6.7413 2.6667L21.3651 2.6667C22.0957 2.6667 22.7904 2.95604 23.3024 3.4627C23.8144 3.9507 24.1064 4.65603 24.1064 5.3787L24.1064 13.5147C24.1064 14.02 23.7037 14.4187 23.1917 14.4187C22.6811 14.4187 22.2784 14.02 22.2784 13.5147L22.2784 5.3787C22.2784 5.14403 22.1877 4.90803 22.0037 4.74537C21.8397 4.56537 21.6024 4.47471 21.3651 4.47471L6.7413 4.4747C6.50397 4.4747 6.26663 4.56536 6.10263 4.74537C5.9373 4.9267 5.82798 5.14403 5.82798 5.3787L5.82798 23.4574C5.82798 23.6934 5.91863 23.928 6.10263 24.0907C6.26663 24.2707 6.50396 24.3614 6.74129 24.3614L14.9665 24.3614C15.4785 24.3614 15.8812 24.76 15.8812 25.2654C15.8812 25.7718 15.4785 26.1695 14.9665 26.1695L6.74129 26.1695C6.01064 26.1695 5.31598 25.8802 4.80398 25.3742C4.29199 24.868 4 24.1814 4 23.4574L4 5.3787C4 4.65603 4.29199 3.96803 4.80399 3.4627C5.31598 2.95603 6.01064 2.6667 6.7413 2.6667ZM18.6225 17.1307L9.48393 17.1307C8.97194 17.1307 8.56927 17.528 8.56927 18.0334C8.56927 18.54 8.97194 18.9374 9.48393 18.9374L18.6225 18.9374C19.1345 18.9374 19.5371 18.54 19.5371 18.0334C19.5371 17.528 19.1345 17.1307 18.6225 17.1307ZM9.48393 12.6107L18.6225 12.6107C19.1345 12.6107 19.5371 13.008 19.5371 13.5147C19.5371 14.02 19.1345 14.4187 18.6225 14.4187L9.48393 14.4187C8.97194 14.4187 8.56927 14.02 8.56927 13.5147C8.56927 13.008 8.97194 12.6107 9.48393 12.6107ZM18.6225 8.0907L9.48393 8.0907C8.97194 8.0907 8.56927 8.48804 8.56927 8.9947C8.56927 9.50004 8.97194 9.89871 9.48393 9.89871L18.6225 9.89871C19.1345 9.89871 19.5371 9.50004 19.5371 8.9947C19.5371 8.48804 19.1345 8.0907 18.6225 8.0907Z" fill="#161719"/>
</svg>
