<svg width="24" height="24" viewBox="0 0 24 24" fill="none" xmlns="http://www.w3.org/2000/svg">
<path fill-rule="evenodd" clip-rule="evenodd" d="M19.0714 21H4.92857C3.86143 21 3 20.1386 3 19.0714V4.92857C3 3.86143 3.86143 3 4.92857 3H19.0714C20.1386 3 21 3.86143 21 4.92857V19.0714C21 20.1386 20.1386 21 19.0714 21ZM4.92857 4.28571C4.56857 4.28571 4.28571 4.56857 4.28571 4.92857V6.9364H19.7143V4.92857C19.7143 4.56857 19.4314 4.28571 19.0714 4.28571H4.92857ZM19.7143 8.2149H4.28571V19.0714C4.28571 19.4314 4.56857 19.7143 4.92857 19.7143H19.0714C19.4314 19.7143 19.7143 19.4314 19.7143 19.0714V8.2149ZM6.0711 6.25988C6.4062 6.25988 6.67785 5.98823 6.67785 5.65313C6.67785 5.31804 6.4062 5.04639 6.0711 5.04639C5.736 5.04639 5.46436 5.31804 5.46436 5.65313C5.46436 5.98823 5.736 6.25988 6.0711 6.25988ZM8.65002 5.65313C8.65002 5.98823 8.37837 6.25988 8.04327 6.25988C7.70817 6.25988 7.43652 5.98823 7.43652 5.65313C7.43652 5.31804 7.70817 5.04639 8.04327 5.04639C8.37837 5.04639 8.65002 5.31804 8.65002 5.65313ZM10.0147 6.25988C10.3498 6.25988 10.6215 5.98823 10.6215 5.65313C10.6215 5.31804 10.3498 5.04639 10.0147 5.04639C9.67961 5.04639 9.40796 5.31804 9.40796 5.65313C9.40796 5.98823 9.67961 6.25988 10.0147 6.25988Z" fill="#838799"/>
<path fill-rule="evenodd" clip-rule="evenodd" d="M9.74554 10.0149C10.223 9.93648 10.681 10.1707 11.0034 10.6402C11.2441 10.9909 11.2815 11.5034 11.2358 12.0157C11.1883 12.5481 11.0425 13.1644 10.831 13.7917C10.7496 14.0331 10.6576 14.2784 10.5566 14.5235C10.603 14.4634 10.6536 14.3927 10.7133 14.3091C10.7355 14.278 10.759 14.2451 10.784 14.2104C10.909 14.0367 11.0603 13.8341 11.2467 13.6425C11.3699 13.5158 11.521 13.4231 11.6978 13.3982C11.8757 13.3732 12.0352 13.4232 12.1625 13.4998C12.1983 13.5214 12.2326 13.5457 12.2653 13.5721C12.286 13.5449 12.3072 13.5184 12.3291 13.4925C12.5067 13.2822 12.7509 13.0854 13.0569 13.0271C13.4104 12.9598 13.6672 13.1619 13.823 13.3175C13.8998 13.3941 13.9731 13.4808 14.0366 13.5559C14.0402 13.5601 14.0437 13.5643 14.0472 13.5685C14.1171 13.6511 14.1782 13.7225 14.2411 13.7847C14.3681 13.9103 14.4587 13.9538 14.5445 13.9562C14.6351 13.9587 14.8148 13.9174 15.1194 13.65C15.2647 13.5224 15.4859 13.5368 15.6134 13.6821C15.741 13.8274 15.7267 14.0486 15.5814 14.1762C15.2159 14.4971 14.8691 14.6656 14.5251 14.6561C14.1763 14.6465 13.9242 14.4561 13.7487 14.2826C13.6604 14.1952 13.5803 14.1007 13.5126 14.0207L13.5106 14.0184C13.4399 13.9347 13.3837 13.8683 13.3284 13.8132C13.2727 13.7575 13.2353 13.7316 13.2119 13.7204C13.1968 13.7132 13.1928 13.714 13.1886 13.7148C13.1884 13.7149 13.1881 13.715 13.1878 13.715C13.1001 13.7317 12.9863 13.7996 12.864 13.9444C12.8036 14.0158 12.7476 14.0987 12.698 14.1875C12.7939 14.4127 12.8573 14.6652 12.8606 14.8839C12.8623 14.998 12.8485 15.1421 12.7795 15.2707C12.6979 15.4229 12.5428 15.5397 12.3352 15.5397C12.1585 15.5397 12.0056 15.4583 11.9076 15.3211C11.8221 15.2016 11.7941 15.063 11.7862 14.9512C11.7702 14.7246 11.8266 14.4591 11.9165 14.2157C11.8731 14.1572 11.8325 14.1185 11.8012 14.0996C11.7974 14.0974 11.7943 14.0957 11.7919 14.0945C11.7836 14.0994 11.769 14.1098 11.7485 14.1308C11.5999 14.2837 11.4731 14.4516 11.3524 14.6194C11.3329 14.6464 11.3131 14.6741 11.2931 14.7022C11.1968 14.8374 11.095 14.9803 10.9958 15.09C10.883 15.2149 10.6958 15.3887 10.4313 15.3917C10.3418 15.3927 10.2594 15.3742 10.1836 15.3423C9.81716 16.0742 9.37975 16.7608 8.91069 17.2844C8.78167 17.4284 8.56032 17.4406 8.4163 17.3116C8.27228 17.1825 8.26013 16.9612 8.38915 16.8172C8.8486 16.3043 9.2877 15.5975 9.64936 14.841C8.4388 13.2624 8.29364 11.8225 8.70306 10.9088C8.91307 10.44 9.28571 10.0905 9.74554 10.0149ZM9.97416 14.0957C9.09153 12.7952 9.09238 11.7523 9.34207 11.1951C9.485 10.8761 9.69351 10.7331 9.85905 10.7059C10.007 10.6816 10.2186 10.7344 10.4261 11.0366C10.5207 11.1744 10.5813 11.4723 10.5384 11.9534C10.4972 12.4144 10.3675 12.9746 10.1674 13.568C10.1084 13.7429 10.0438 13.9194 9.97416 14.0957ZM11.8001 14.0906C11.8001 14.0906 11.7997 14.0908 11.7988 14.091Z" fill="#838799"/>
<path fill-rule="evenodd" clip-rule="evenodd" d="M10.645 16.7157C10.645 16.5224 10.8018 16.3656 10.9951 16.3656H14.3453C14.5387 16.3656 14.6955 16.5224 14.6955 16.7157C14.6955 16.9091 14.5387 17.0658 14.3453 17.0658H10.9951C10.8018 17.0658 10.645 16.9091 10.645 16.7157Z" fill="#838799"/>
</svg>
