<svg width="33" height="32" viewBox="0 0 33 32" fill="none" xmlns="http://www.w3.org/2000/svg">
<path fill-rule="evenodd" clip-rule="evenodd" d="M12.2929 8.03596C12.4569 8.21729 12.6955 8.30663 12.9329 8.30663V8.3253C13.1515 8.3253 13.3902 8.23463 13.5729 8.05463C13.9382 7.69329 13.9382 7.13196 13.5729 6.77063L9.80491 3.04423C9.64091 2.81423 9.36892 2.66663 9.05826 2.66663C8.74759 2.66663 8.47694 2.81276 8.31295 3.04076L4.525 6.75196C4.15833 7.11463 4.15833 7.67463 4.525 8.03596C4.89032 8.39729 5.45697 8.39729 5.8223 8.03596L8.14364 5.74009V13.804C8.14364 14.3093 8.54626 14.7066 9.05826 14.7066C9.56892 14.7066 9.97157 14.3093 9.97157 13.804V5.74022L12.2929 8.03596ZM25.5087 29.3333H10.8849C10.1543 29.3333 9.45961 29.044 8.94762 28.5373C8.43563 28.0493 8.14364 27.344 8.14364 26.6213V18.4853C8.14364 17.98 8.54626 17.5813 9.05826 17.5813C9.56892 17.5813 9.97157 17.98 9.97157 18.4853V26.6213C9.97157 26.856 10.0623 27.092 10.2463 27.2546C10.4103 27.4346 10.6476 27.5253 10.8849 27.5253H25.5087C25.746 27.5253 25.9834 27.4346 26.1474 27.2546C26.3127 27.0733 26.422 26.856 26.422 26.6213V8.54262C26.422 8.30662 26.3314 8.07196 26.1474 7.90929C25.9834 7.72929 25.746 7.63862 25.5087 7.63862H17.2835C16.7715 7.63862 16.3688 7.23996 16.3688 6.73463C16.3688 6.22823 16.7715 5.8305 17.2835 5.8305H25.5087C26.2394 5.8305 26.934 6.11982 27.446 6.62582C27.958 7.13196 28.25 7.81862 28.25 8.54262V26.6213C28.25 27.344 27.958 28.032 27.446 28.5373C26.934 29.044 26.2394 29.3333 25.5087 29.3333ZM13.6275 14.8693H22.7661C23.2781 14.8693 23.6807 14.472 23.6807 13.9666C23.6807 13.46 23.2781 13.0626 22.7661 13.0626H13.6275C13.1155 13.0626 12.7129 13.46 12.7129 13.9666C12.7129 14.472 13.1155 14.8693 13.6275 14.8693ZM22.7661 19.3893H13.6275C13.1155 19.3893 12.7129 18.992 12.7129 18.4853C12.7129 17.98 13.1155 17.5813 13.6275 17.5813H22.7661C23.2781 17.5813 23.6807 17.98 23.6807 18.4853C23.6807 18.992 23.2781 19.3893 22.7661 19.3893ZM13.6275 23.9093H22.7661C23.2781 23.9093 23.6807 23.512 23.6807 23.0053C23.6807 22.5 23.2781 22.1013 22.7661 22.1013H13.6275C13.1155 22.1013 12.7129 22.5 12.7129 23.0053C12.7129 23.512 13.1155 23.9093 13.6275 23.9093Z" fill="#161719"/>
</svg>
