<svg width="243" height="228" viewBox="0 0 243 228" fill="none" xmlns="http://www.w3.org/2000/svg">
<path d="M0 2.00001C0 -2.97055 4.02944 -7 9 -7H243V234.694H8.99999C4.02943 234.694 0 230.664 0 225.694V2.00001Z" fill="#EEF6FF"/>
<g clip-path="url(#clip0_9601_10746)">
<g clip-path="url(#clip1_9601_10746)">
<g opacity="0.6">
<path d="M100.384 86.9985C100.384 86.9985 96.6023 79.715 87.0195 80.6295C77.4432 81.544 78.5798 88.8406 74.0203 88.1547C69.4608 87.4688 63.0722 88.1547 61.707 92.7142C60.3352 97.2802 54.1818 94.7719 53.9466 98.6455C53.718 102.526 61.0145 105.263 69.4542 101.84C77.8939 98.4169 81.9962 104.498 93.8587 103.394C105.721 102.29 107.191 100.925 114.207 101.611C121.222 102.297 121.059 97.4893 117.865 94.295C114.671 91.1007 101.75 91.4077 100.378 86.9985H100.384Z" fill="white"/>
</g>
</g>
<path d="M167.795 36.6916C168.309 36.6304 168.689 36.1657 168.64 35.652L167.856 28.4482C167.795 27.9345 167.329 27.5554 166.815 27.6043C166.3 27.6654 165.92 28.1302 165.969 28.6439L166.753 35.8477C166.815 36.3614 167.28 36.7405 167.795 36.6916Z" fill="white" stroke="#3C4150" stroke-width="0.263046" stroke-miterlimit="10"/>
<path d="M121.271 149.078C121.271 149.078 114.618 146.607 112.755 147.769C110.893 148.931 106.874 153.297 106.568 150.387C106.396 148.723 110.403 144.284 111.383 142.914C112.351 141.544 112.67 139.844 114.299 139.465C116.1 139.061 123.82 145.947 123.82 145.947C123.82 145.947 123.085 146.656 122.362 147.733C121.32 149.286 121.283 149.066 121.283 149.066L121.271 149.078Z" fill="#3C4150"/>
<path d="M169.488 180.73C164.452 180.73 153.204 175.19 142.666 168.5C133.22 162.507 124.361 155.597 121.102 150.949C119.484 148.638 123.197 144.846 124.961 144.051C129.936 141.801 137.778 147.659 147.653 151.695C156.181 155.181 163.276 158.813 163.276 158.813L169.488 180.73Z" fill="#163FB7"/>
<path d="M169.487 180.73C164.451 180.73 153.203 175.19 142.666 168.5L147.641 151.695C156.169 155.181 163.263 158.813 163.263 158.813L169.475 180.73H169.487Z" fill="#163FB7"/>
<path d="M103.837 161.504C103.837 161.504 96.8899 160.048 95.2235 161.479C93.5571 162.91 90.2244 167.815 89.4892 164.989C89.0604 163.363 92.3809 158.385 93.1283 156.893C93.888 155.401 93.937 153.664 95.5053 153.052C97.2207 152.38 105.896 158.042 105.896 158.042C105.896 158.042 105.271 158.85 104.719 160.024C103.923 161.724 103.849 161.504 103.849 161.504H103.837Z" fill="#3C4150"/>
<path d="M104.866 156.086C102.134 157.052 99.6711 161.064 101.129 163.082C107.047 171.313 134.163 184.767 143.511 183.348L144.871 164.549C144.871 164.549 109.939 154.288 104.854 156.086H104.866Z" fill="#134CDE"/>
<path d="M165.394 36.9363C165.909 36.8752 166.289 36.4104 166.24 35.8968L165.37 27.8491C165.308 27.3354 164.843 26.9562 164.328 27.0052C163.814 27.0663 163.434 27.5311 163.483 28.0447L164.353 36.0924C164.414 36.6061 164.88 36.9853 165.394 36.9363Z" fill="white" stroke="#3C4150" stroke-width="0.263046" stroke-miterlimit="10"/>
<path d="M162.981 37.2052C163.496 37.144 163.875 36.6793 163.826 36.1656L163.655 34.5879L162.846 27.1517C162.785 26.638 162.319 26.2589 161.805 26.3078C161.29 26.3689 160.91 26.8337 160.959 27.3474L161.927 36.3491C161.989 36.8627 162.454 37.2419 162.969 37.193L162.981 37.2052Z" fill="white" stroke="#3C4150" stroke-width="0.263046" stroke-miterlimit="10"/>
<path d="M160.553 37.4622C161.067 37.401 161.447 36.9363 161.398 36.4226L161.324 35.7866L161.263 35.224L160.614 29.2066C160.553 28.6929 160.087 28.3137 159.572 28.3626C159.058 28.4238 158.678 28.8886 158.727 29.4022L159.511 36.6183C159.572 37.1319 160.038 37.5111 160.553 37.4622Z" fill="white" stroke="#3C4150" stroke-width="0.263046" stroke-miterlimit="10"/>
<path d="M159.34 36.2999C159.462 38.1957 160.234 40.4094 160.234 40.4094L167.525 41.3511C167.525 41.3511 169.301 37.4251 168.419 34.1596" fill="white"/>
<path d="M159.34 36.2999C159.462 38.1957 160.234 40.4094 160.234 40.4094L167.525 41.3511C167.525 41.3511 169.301 37.4251 168.419 34.1596" stroke="#3C4150" stroke-width="0.263046" stroke-miterlimit="10"/>
<path d="M121.076 94.0524C121.076 94.0524 120.99 85.2342 136.392 81.1125C148.253 77.9326 158.594 80.1708 163.605 89.6861C167.967 97.9907 169.377 105.61 171.925 126.83C171.925 126.83 137.715 127.099 128.759 136.015C128.759 136.015 129.188 117.266 121.738 99.0303C120.978 97.1835 120.892 95.6546 121.076 94.0402V94.0524Z" fill="white" stroke="#3C4150" stroke-width="0.263046" stroke-miterlimit="10"/>
<path d="M122.522 101.036C120.733 97.6726 119.373 96.315 116.494 94.1502C107.096 87.081 94.304 77.6268 90.5547 67.4632L98.8865 60.1738C104.204 70.3741 125.23 83.6075 131.761 82.678" fill="white"/>
<path d="M122.522 101.036C120.733 97.6726 119.373 96.315 116.494 94.1502C107.096 87.081 94.304 77.6268 90.5547 67.4632L98.8865 60.1738C104.204 70.3741 125.23 83.6075 131.761 82.678" stroke="#3C4150" stroke-width="0.263046" stroke-miterlimit="10"/>
<path d="M139.553 80.672C139.553 80.672 160.921 67.3652 159.598 43.0386C159.512 41.5587 160.725 40.3234 162.208 40.3724L166.889 40.5191C167.746 40.5436 168.469 41.1551 168.641 41.9868C169.572 46.4387 171.63 61.0297 164.769 81.4547C164.058 83.5462 162.502 86.8851 165.112 92.7924" fill="white"/>
<path d="M139.553 80.672C139.553 80.672 160.921 67.3652 159.598 43.0386C159.512 41.5587 160.725 40.3234 162.208 40.3724L166.889 40.5191C167.746 40.5436 168.469 41.1551 168.641 41.9868C169.572 46.4387 171.63 61.0297 164.769 81.4547C164.058 83.5462 162.502 86.8851 165.112 92.7924" stroke="#3C4150" stroke-width="0.263046" stroke-miterlimit="10"/>
<path d="M128.77 136.016C129.174 138.095 139.086 137.374 151.07 134.976C163.065 132.579 172.328 128.898 171.936 126.819C171.532 124.739 160.909 123.039 148.913 125.437C136.918 127.834 128.365 133.925 128.77 136.004V136.016Z" fill="#3C4150"/>
<path d="M155.751 167.901C159.145 156.637 150.237 144.382 150.348 136.811C150.348 136.811 150.164 129.68 153.362 129.289C163.862 128.005 171.496 127.846 171.496 127.846C171.729 128.139 185.599 150.289 176.238 175.765C171.251 189.341 154.746 171.179 155.739 167.901H155.751Z" fill="#134CDE"/>
<path d="M131.907 166.922C138.168 156.954 129.003 144.394 131.122 137.116C131.122 137.116 134.516 132.799 147.198 129.582C163.886 125.351 171.507 127.833 171.507 127.833C171.642 128.151 166.178 153.248 152.92 174.493C151.83 176.242 150.788 178.235 149.587 179.923C141.17 191.689 130.081 169.821 131.907 166.922Z" fill="#134CDE"/>
<path d="M152.909 174.639C152.909 174.639 152.86 174.639 152.848 174.627C152.786 174.59 152.762 174.504 152.799 174.443C152.872 174.309 160.542 160.549 160.787 139.476C160.787 139.403 160.861 139.342 160.922 139.342C160.996 139.342 161.057 139.403 161.057 139.476C160.922 150.52 158.753 159.473 156.952 165.038C155.004 171.068 153.056 174.541 153.031 174.566C153.007 174.615 152.958 174.639 152.921 174.639H152.909Z" fill="#561C17"/>
<path d="M136.257 78.997L135.89 74.8875L135.78 73.6889L135.142 66.6686L137.961 72.7594L139.651 76.4163L140.191 77.5782C140.558 78.361 141.11 78.3365 141.992 78.7768C142.347 78.9603 144.589 80.0366 143.168 81.5165C141.391 83.3755 136.711 83.5957 134.383 82.3237C134.383 82.3237 136.405 80.3057 136.282 78.9848L136.257 78.997Z" fill="white" stroke="#3C4150" stroke-width="0.263046" stroke-miterlimit="10"/>
<path d="M139.15 62.2899C139.15 62.2899 140.167 63.6353 140.559 65.69C140.951 67.7447 137.104 63.8921 137.104 63.8921L139.162 62.2899H139.15Z" fill="#3C4150"/>
<path d="M141.011 66.1432C139.026 62.6819 135.081 61.2143 132.201 62.8654C129.334 64.5165 128.611 68.6504 130.609 72.1117C132.594 75.5729 136.539 77.0406 139.418 75.3895C142.285 73.7384 143.008 69.6044 141.011 66.1432Z" fill="white" stroke="#3C4150" stroke-width="0.263046" stroke-miterlimit="10"/>
<path d="M129.678 70.2527L132.251 68.8706C132.814 68.5649 133.231 68.0267 133.341 67.4029C133.537 66.3144 134.015 65.6051 136.564 64.6633C139.786 63.4769 141.097 60.7251 140.754 58.9272C140.411 57.0926 138.316 56.6156 137.054 58.071C135.792 59.5265 135.657 57.2761 134.04 57.6919C131.013 58.4747 131.393 60.8963 129.016 61.7891C125.904 62.9633 121.358 67.5497 126.198 71.8793L129.678 70.2404V70.2527Z" fill="#3C4150"/>
<path d="M135.975 68.7236C135.975 68.7236 135.999 68.6502 135.987 68.6135C135.963 68.5524 135.901 68.5157 135.84 68.5402C135.803 68.5402 134.909 68.7481 134.848 69.8121C134.848 69.8733 134.897 69.9344 134.958 69.9467C135.019 69.9467 135.068 69.8978 135.093 69.8366C135.289 69.1884 135.889 68.797 135.914 68.7848C135.938 68.7848 135.963 68.7603 135.975 68.7359V68.7236Z" fill="#561C17"/>
<path d="M136.085 70.3627C136.257 70.595 136.539 70.6684 136.71 70.5461C136.882 70.4238 136.869 70.1303 136.686 69.8979C136.514 69.6655 136.232 69.5921 136.061 69.7144C135.889 69.8368 135.902 70.1303 136.085 70.3627Z" fill="#561C17"/>
<path d="M140.008 66.6812C140.008 66.6812 140.045 66.6322 140.045 66.5956C140.045 66.5344 139.996 66.4732 139.935 66.461C139.898 66.461 139.126 66.2042 138.844 67.0603C138.832 67.1092 138.844 67.1826 138.905 67.2193C138.954 67.256 139.003 67.2193 139.04 67.1826C139.346 66.7423 139.922 66.6812 139.947 66.6812C139.971 66.6812 139.996 66.6812 140.008 66.6812Z" fill="#561C17"/>
<path d="M139.456 68.2467C139.529 68.528 139.762 68.7115 139.958 68.6504C140.167 68.5892 140.265 68.3201 140.191 68.0388C140.118 67.7575 139.885 67.5741 139.689 67.6352C139.48 67.6964 139.382 67.9654 139.456 68.2467Z" fill="#561C17"/>
<path d="M126.197 71.8915C126.197 71.8915 129.702 75.1204 132.446 74.3376C132.446 74.3376 129.064 72.1728 132.777 68.467C132.777 68.467 128.391 69.5188 126.197 71.8915Z" fill="#3C4150"/>
<path d="M130.805 72.5765C131.516 72.6988 132.177 72.2952 132.3 71.6592C132.41 71.0232 131.932 70.4117 131.222 70.2894C130.511 70.1671 129.849 70.5707 129.727 71.2067C129.616 71.8427 130.094 72.4542 130.805 72.5765Z" fill="white"/>
<path d="M132.779 68.467C132.779 68.467 133.808 71.9649 134.751 72.3196C135.695 72.6743 140.326 71.0843 142.091 69.4087C143.01 71.5491 142.275 74.0686 140.302 75.3039C139.653 75.7075 138.917 76.0132 138.145 76.1845C136.565 76.5391 134.886 76.5147 133.71 75.4017C133.355 75.0592 132.84 72.2829 132.84 72.2829C132.84 72.2829 132.423 70.7052 131.223 70.2771C131.223 70.2771 131.86 68.9562 132.779 68.467Z" fill="#3C4150"/>
<path d="M141.479 71.0728C141.479 71.0728 139.947 72.2469 137.975 72.8462C137.975 72.8462 138.967 74.4728 140.744 73.3476C141.773 72.6872 141.479 71.0728 141.479 71.0728Z" fill="white"/>
<path d="M139.48 81.5777C139.48 81.5777 141.968 80.0366 142.862 80.4891C143.756 80.9539 144.001 84.0605 142.825 84.6475C141.649 85.2346 138.439 82.605 139.48 81.5654V81.5777Z" fill="#3C4150"/>
<path d="M140.888 80.4646C140.888 80.4646 137.028 80.1466 135.999 79.0703C134.97 77.9941 132.078 81.8467 132.372 82.6906C132.667 83.5345 140.508 86.5799 140.79 85.8705C141.06 85.1611 141.966 81.0517 140.888 80.4646Z" fill="#F5F5F5"/>
<path d="M140.889 80.4644C140.889 80.4644 141.073 79.0211 140.632 78.3729C140.632 78.3729 140.301 77.7859 140.852 77.688C141.404 77.5902 144.871 78.8621 145.288 79.4248C145.704 79.9874 146.525 82.8982 145.631 83.363C144.736 83.8277 141.624 81.2838 141.281 81.0392C140.926 80.7946 140.889 80.4644 140.889 80.4644Z" fill="#F5F5F5"/>
<path d="M154.551 118.355C154.551 118.856 154.146 119.248 153.656 119.248C153.166 119.248 152.762 118.844 152.762 118.355C152.762 117.865 153.056 117.388 153.546 117.388C154.244 117.388 154.563 117.853 154.563 118.355H154.551Z" fill="#F5F5F5"/>
<path d="M151.572 106.576C151.572 107.078 151.168 107.469 150.678 107.469C150.188 107.469 149.783 107.065 149.783 106.576C149.783 106.087 150.077 105.61 150.567 105.61C151.266 105.61 151.584 106.075 151.584 106.576H151.572Z" fill="#F5F5F5"/>
<path d="M148.828 97.8323C148.828 98.3338 148.424 98.7251 147.934 98.7251C147.443 98.7251 147.039 98.3215 147.039 97.8323C147.039 97.3431 147.333 96.8661 147.823 96.8661C148.522 96.8661 148.84 97.3309 148.84 97.8323H148.828Z" fill="#F5F5F5"/>
<path d="M142.42 84.7696C141.758 84.7696 141.158 84.4027 141.121 84.3782L141.195 84.2682C141.195 84.2682 142.065 84.7941 142.8 84.5862C143.523 84.3782 143.547 82.7027 143.547 82.6904H143.682C143.682 82.7638 143.657 84.4883 142.836 84.7207C142.702 84.7574 142.555 84.7696 142.42 84.7696Z" fill="#561C17"/>
<path d="M134.357 118.098C134.357 118.098 134.05 125.326 135.423 124.274C136.795 123.222 139.54 120.789 139.552 121.241C139.564 121.694 148.276 119.932 146.462 122.574C144.649 125.216 151.143 125.045 151.143 125.045C151.143 125.045 132.568 127.98 128.757 136.016C128.757 136.016 129.382 132.028 127.74 122.012C127.74 122.012 132.163 120.006 134.357 118.098Z" fill="#F5F5F5"/>
<path d="M96.559 66.0942C93.8756 69.0784 91.4741 68.6259 90.5551 67.4762C89.6362 66.3265 90.8369 63.8437 93.2262 61.9358C95.6278 60.0278 97.968 59.0371 98.887 60.1868C99.8059 61.3365 98.6052 63.8193 96.559 66.0942Z" fill="#3C4150"/>
<path d="M127.999 93.8328C127.815 88.7693 120.524 90.2003 120.145 87.9132C119.765 85.6261 112.965 81.2231 112.389 81.2842C111.813 81.3332 106.838 78.459 105.503 78.6914C104.167 78.9237 102.158 74.5452 101.312 72.6006C100.626 71.0228 96.8277 68.1976 95.4186 67.1824C93.4949 68.699 91.8408 68.54 90.9219 67.8184C94.8305 77.8597 107.439 87.1671 116.726 94.163C119.593 96.3278 120.966 97.6854 122.754 101.049C124.004 104.363 125.009 107.678 125.818 110.87L125.891 110.943L131.246 103.764C131.246 103.764 128.195 98.9084 128.011 93.845L127.999 93.8328Z" fill="#F5F5F5"/>
<path d="M98.5795 54.9027L98.2364 54.8171C97.5871 54.6458 96.9132 55.0494 96.7416 55.6977L96.4598 56.7862L93.5804 50.3774C93.3354 49.827 92.6247 49.3622 92.0243 49.3622C91.5097 49.3622 91.1544 49.9004 91.3627 50.3774L93.2986 54.6825C93.1148 54.7192 92.931 54.7559 92.735 54.7926L90.2354 49.2155C90.0149 48.7385 89.4757 48.4572 88.9734 48.6284C88.3975 48.8241 88.1279 49.4601 88.3607 49.9982L90.7745 55.3919C90.603 55.4653 90.4192 55.5264 90.2477 55.5998L88.275 51.1968C88.0544 50.7198 87.5153 50.4385 87.0129 50.6097C86.4371 50.8054 86.1675 51.4414 86.4003 51.9796L88.422 56.4926C88.2505 56.5905 88.1034 56.6883 87.9442 56.7862L86.2655 53.0436C86.0327 52.5422 85.4446 52.3098 84.93 52.5299C84.4276 52.7623 84.1948 53.3616 84.4154 53.8631L87.111 59.8927C87.9074 62.1798 89.8311 64.0511 90.8971 64.9562C91.4117 65.3965 92.1101 65.5432 92.7717 65.3598C93.948 65.0296 95.8717 64.149 97.5993 61.7395C97.8199 61.4338 97.9791 61.0913 98.0894 60.7244L99.4127 56.3703C99.5842 55.7221 99.1799 55.0494 98.5305 54.8782L98.5795 54.9027Z" fill="white" stroke="#3C4150" stroke-width="0.263046" stroke-miterlimit="10"/>
<path d="M161.277 35.2112L161.339 35.7861L161.89 35.6393L161.792 35.1012" fill="white"/>
<path d="M161.277 35.2112L161.339 35.7861L161.89 35.6393L161.792 35.1012" stroke="#3C4150" stroke-width="0.263046" stroke-miterlimit="10"/>
<path d="M163.652 34.5878L163.738 35.2238L164.24 35.1015L164.179 34.5022" fill="white"/>
<path d="M163.652 34.5878L163.738 35.2238L164.24 35.1015L164.179 34.5022" stroke="#3C4150" stroke-width="0.263046" stroke-miterlimit="10"/>
<path d="M165.971 33.3035L166.13 34.71L166.632 34.5877L166.485 33.3402" fill="white"/>
<path d="M165.971 33.3035L166.13 34.71L166.632 34.5877L166.485 33.3402" stroke="#3C4150" stroke-width="0.263046" stroke-miterlimit="10"/>
<path d="M159.438 35.9324V36.3971L158.752 35.7244C158.311 35.2719 157.576 35.2719 157.122 35.7244L156.877 35.9568C156.424 36.3971 156.424 37.131 156.877 37.5835L160.063 40.8001C160.063 40.8001 160.394 40.9469 161.006 40.5188" fill="white"/>
<path d="M159.438 35.9324V36.3971L158.752 35.7244C158.311 35.2719 157.576 35.2719 157.122 35.7244L156.877 35.9568C156.424 36.3971 156.424 37.131 156.877 37.5835L160.063 40.8001C160.063 40.8001 160.394 40.9469 161.006 40.5188" stroke="#3C4150" stroke-width="0.263046" stroke-miterlimit="10"/>
<path d="M141.379 83.4975C141.477 86.7997 140.926 110.796 103.996 113.059C101.705 113.193 99.5114 114.013 97.6858 115.395L92.6621 119.211C92.025 119.7 92.0495 120.654 92.7112 121.106L97.4162 124.299C100.443 126.341 104.069 127.295 107.709 127.014C115.33 126.414 128.563 124.078 137.642 115.346C148.437 104.974 145.337 89.0501 143.683 83.155C143.413 82.201 142.163 81.9931 141.6 82.8003C141.453 83.0082 141.379 83.2529 141.391 83.5097L141.379 83.4975Z" fill="#134CDE"/>
<path d="M210.325 77.2473C210.325 85.7231 203.427 92.5844 194.899 92.5844C186.371 92.5844 179.473 85.7108 179.473 77.2473C179.473 68.7838 186.383 61.9102 194.899 61.9102C203.414 61.9102 210.325 68.7838 210.325 77.2473Z" fill="white" stroke="#3C4150" stroke-width="0.526091" stroke-miterlimit="10"/>
<path d="M194.898 64.8943C188.049 64.8943 182.474 70.4347 182.474 77.2471C182.474 84.0595 188.049 89.6 194.898 89.6C201.747 89.6 207.322 84.0595 207.322 77.2471C207.322 70.4347 201.747 64.8943 194.898 64.8943ZM194.898 90.6518C187.473 90.6518 181.42 84.6344 181.42 77.2471C181.42 69.8599 187.461 63.8425 194.898 63.8425C202.335 63.8425 208.376 69.8599 208.376 77.2471C208.376 84.6344 202.335 90.6518 194.898 90.6518Z" fill="#F5F5F5"/>
<path d="M198.317 75.0097C198.317 75.0097 198.207 74.9363 198.133 74.9363H196.81C196.724 74.5082 196.552 74.1413 196.307 73.8233H198.108C198.182 73.8233 198.243 73.7989 198.292 73.7499C198.341 73.701 198.366 73.6399 198.366 73.5665V72.7837C198.366 72.7103 198.341 72.6492 198.292 72.6003C198.243 72.5513 198.182 72.5269 198.108 72.5269H191.664C191.59 72.5269 191.529 72.5513 191.48 72.6003C191.431 72.6492 191.406 72.7103 191.406 72.7837V73.8111C191.406 73.8722 191.431 73.9334 191.48 73.9823C191.529 74.0312 191.59 74.0557 191.651 74.0557H192.779C193.869 74.0557 194.567 74.3492 194.862 74.9241H191.664C191.59 74.9241 191.529 74.9485 191.48 74.9975C191.431 75.0464 191.406 75.1075 191.406 75.1687V75.9514C191.406 76.0248 191.431 76.086 191.48 76.1349C191.529 76.1838 191.59 76.2083 191.664 76.2083H194.972C194.862 76.6363 194.592 76.9543 194.175 77.1745C193.759 77.3946 193.207 77.5047 192.533 77.5047H191.664C191.602 77.5047 191.541 77.5292 191.492 77.5781C191.443 77.627 191.418 77.6882 191.418 77.7493V78.7278C191.418 78.7889 191.443 78.8501 191.492 78.899C192.484 79.9508 193.771 81.4185 195.352 83.302C195.401 83.3631 195.462 83.3998 195.548 83.3998H197.055C197.165 83.3998 197.239 83.3509 197.275 83.2653C197.324 83.1675 197.312 83.0818 197.239 83.0085C195.731 81.1616 194.543 79.7918 193.685 78.8745C194.567 78.7767 195.278 78.4832 195.829 78.0306C196.381 77.5659 196.712 76.9666 196.834 76.2205H198.133C198.207 76.2205 198.268 76.1961 198.317 76.1471C198.366 76.0982 198.39 76.0371 198.39 75.9759V75.1931C198.39 75.1198 198.366 75.0586 198.317 75.0097Z" fill="#D3D3D3"/>
<path d="M191.04 87.8266H190.942C189.594 87.3007 188.357 86.5547 187.279 85.5884C187.168 85.4906 187.156 85.3071 187.266 85.1971C187.364 85.087 187.548 85.0748 187.658 85.1726C188.675 86.1021 189.852 86.8115 191.138 87.2885C191.285 87.3374 191.359 87.5086 191.297 87.6432C191.261 87.7533 191.15 87.8266 191.04 87.8266Z" fill="white"/>
<path d="M186.249 84.3652C186.163 84.3652 186.089 84.3285 186.028 84.2552C185.893 84.0839 185.758 83.9127 185.636 83.7415C185.55 83.6192 185.575 83.4479 185.709 83.3501C185.832 83.2645 186.004 83.2889 186.102 83.4112C186.224 83.5825 186.347 83.7415 186.469 83.9005C186.567 84.0228 186.543 84.194 186.42 84.2918C186.371 84.3285 186.31 84.353 186.249 84.353V84.3652Z" fill="white"/>
<path d="M195.647 63.2925C195.439 63.2925 195.23 63.2803 195.022 63.2803C194.863 63.2803 194.74 63.158 194.74 62.999C194.74 62.84 194.863 62.7177 195.022 62.7177C195.23 62.7177 195.451 62.7177 195.671 62.7299C195.831 62.7299 195.941 62.8645 195.941 63.0235C195.941 63.1702 195.806 63.2925 195.659 63.2925H195.647Z" fill="white"/>
<path d="M201.417 64.76L201.295 64.7356C200.314 64.2463 199.273 63.8794 198.195 63.6348C198.048 63.5981 197.95 63.4514 197.986 63.3046C198.023 63.1578 198.17 63.06 198.317 63.0967C199.432 63.3535 200.51 63.7327 201.54 64.2341C201.674 64.3075 201.736 64.4665 201.662 64.601C201.613 64.6989 201.515 64.76 201.417 64.76Z" fill="white"/>
<path d="M203.194 65.787L203.035 65.7381C202.864 65.628 202.692 65.5057 202.521 65.4079C202.386 65.3223 202.349 65.151 202.435 65.0287C202.521 64.8942 202.692 64.8575 202.815 64.9431C202.998 65.0532 203.182 65.1755 203.354 65.2978C203.476 65.3834 203.513 65.5546 203.427 65.6892C203.378 65.7626 203.28 65.8115 203.194 65.8115V65.787Z" fill="white"/>
<path d="M115.304 29.4628C115.304 34.6363 111.089 38.8314 105.881 38.8314C100.674 38.8314 96.459 34.6363 96.459 29.4628C96.459 24.2893 100.686 20.0942 105.881 20.0942C111.076 20.0942 115.304 24.2893 115.304 29.4628Z" fill="white" stroke="#3C4150" stroke-width="0.526091" stroke-miterlimit="10"/>
<path d="M105.88 21.9168C101.702 21.9168 98.2959 25.3046 98.2959 29.463C98.2959 33.6214 101.702 37.0093 105.88 37.0093C110.059 37.0093 113.465 33.6214 113.465 29.463C113.465 25.3046 110.059 21.9168 105.88 21.9168ZM105.88 37.6575C101.347 37.6575 97.6465 33.9883 97.6465 29.463C97.6465 24.9377 101.335 21.2686 105.88 21.2686C110.426 21.2686 114.114 24.9377 114.114 29.463C114.114 33.9883 110.426 37.6575 105.88 37.6575Z" fill="#F5F5F5"/>
<path d="M108.577 27.5674C108.577 27.5674 108.491 27.5185 108.43 27.5185H107.388C107.315 27.176 107.192 26.8947 106.996 26.6379H108.418C108.418 26.6379 108.528 26.6134 108.565 26.5889C108.601 26.5522 108.626 26.5033 108.626 26.4544V25.8306C108.626 25.8306 108.601 25.7328 108.565 25.6961C108.528 25.6594 108.479 25.6472 108.418 25.6472H103.321C103.321 25.6472 103.222 25.6716 103.186 25.6961C103.149 25.7328 103.137 25.7817 103.137 25.8306V26.6379C103.137 26.6379 103.161 26.7357 103.198 26.7724C103.235 26.8091 103.284 26.8335 103.333 26.8335H104.215C105.073 26.8335 105.624 27.0659 105.857 27.5185H103.333C103.333 27.5185 103.235 27.5429 103.198 27.5674C103.161 27.6041 103.149 27.653 103.149 27.7019V28.3257C103.149 28.3257 103.161 28.4235 103.198 28.4602C103.235 28.4969 103.284 28.5091 103.333 28.5091H105.943C105.857 28.8394 105.649 29.0962 105.318 29.2674C104.987 29.4387 104.558 29.5243 104.019 29.5243H103.333C103.333 29.5243 103.235 29.5487 103.198 29.5854C103.161 29.6221 103.137 29.671 103.137 29.72V30.4905C103.137 30.4905 103.149 30.5883 103.186 30.625C103.97 31.4567 104.987 32.6064 106.237 34.0985C106.273 34.1474 106.322 34.1719 106.396 34.1719H107.584C107.67 34.1719 107.731 34.1352 107.756 34.0618C107.793 33.9884 107.793 33.915 107.731 33.8539C106.543 32.3984 105.6 31.3099 104.926 30.5883C105.624 30.5027 106.188 30.2826 106.616 29.9156C107.045 29.5487 107.315 29.0717 107.413 28.4847H108.442C108.442 28.4847 108.552 28.4602 108.589 28.4235C108.626 28.3868 108.65 28.3379 108.65 28.289V27.6652C108.65 27.6652 108.626 27.5674 108.589 27.5307L108.577 27.5674Z" fill="#D3D3D3"/>
<path d="M103.516 35.9329H103.455C102.622 35.6149 101.874 35.1624 101.225 34.5631C101.152 34.502 101.152 34.3919 101.225 34.3185C101.286 34.2451 101.397 34.2451 101.47 34.3185C102.095 34.8811 102.806 35.3214 103.59 35.6149C103.676 35.6516 103.725 35.7495 103.688 35.8351C103.663 35.9085 103.602 35.9452 103.529 35.9452L103.516 35.9329Z" fill="white"/>
<path d="M100.6 33.8168C100.6 33.8168 100.502 33.7924 100.465 33.7557C100.38 33.6578 100.306 33.5478 100.233 33.4377C100.184 33.3643 100.196 33.2542 100.269 33.2053C100.343 33.1564 100.453 33.1686 100.502 33.242C100.576 33.3399 100.649 33.4499 100.723 33.5478C100.784 33.6212 100.772 33.7312 100.698 33.7802C100.661 33.8046 100.625 33.8168 100.588 33.8168H100.6Z" fill="white"/>
<path d="M106.335 20.9387C106.212 20.9387 106.077 20.9387 105.955 20.9387C105.857 20.9387 105.783 20.8653 105.783 20.7675C105.783 20.6696 105.857 20.5962 105.955 20.5962C106.09 20.5962 106.212 20.5962 106.347 20.5962C106.445 20.5962 106.518 20.6819 106.506 20.7675C106.506 20.8531 106.42 20.9265 106.335 20.9265V20.9387Z" fill="white"/>
<path d="M109.863 21.8433H109.789C109.189 21.5253 108.552 21.3051 107.902 21.1584C107.804 21.1339 107.755 21.0483 107.78 20.9504C107.804 20.8648 107.89 20.8037 107.988 20.8281C108.662 20.9871 109.324 21.2195 109.948 21.5253C110.034 21.562 110.071 21.672 110.022 21.7576C109.997 21.8188 109.936 21.8555 109.875 21.8555L109.863 21.8433Z" fill="white"/>
<path d="M110.941 22.4669L110.843 22.4425C110.733 22.3691 110.635 22.308 110.524 22.2346C110.439 22.1856 110.414 22.0756 110.475 22.0022C110.524 21.9166 110.635 21.8921 110.708 21.9533C110.819 22.0266 110.929 22.0878 111.039 22.1612C111.113 22.2101 111.137 22.3202 111.088 22.3936C111.051 22.4425 111.002 22.4669 110.941 22.4669Z" fill="white"/>
<path d="M66.8154 155.274C66.8154 160.448 62.6005 164.643 57.3931 164.643C52.1856 164.643 47.9707 160.448 47.9707 155.274C47.9707 150.101 52.1856 145.906 57.3931 145.906C62.6005 145.906 66.8154 150.101 66.8154 155.274Z" fill="white" stroke="#3C4150" stroke-width="0.526091" stroke-miterlimit="10"/>
<path d="M57.392 147.729C53.2139 147.729 49.8076 151.116 49.8076 155.275C49.8076 159.433 53.2139 162.821 57.392 162.821C61.5702 162.821 64.9765 159.433 64.9765 155.275C64.9765 151.116 61.5702 147.729 57.392 147.729ZM57.392 163.469C52.8585 163.469 49.1582 159.8 49.1582 155.275C49.1582 150.749 52.8463 147.08 57.392 147.08C61.9378 147.08 65.6259 150.749 65.6259 155.275C65.6259 159.8 61.9378 163.469 57.392 163.469Z" fill="#F5F5F5"/>
<path d="M60.0887 153.379C60.0887 153.379 60.0029 153.33 59.9416 153.33H58.9001C58.8266 152.988 58.7041 152.706 58.508 152.45H59.9294C59.9294 152.45 60.0396 152.425 60.0764 152.401C60.1132 152.364 60.1377 152.315 60.1377 152.266V151.642C60.1377 151.642 60.1132 151.545 60.0764 151.508C60.0396 151.471 59.9906 151.459 59.9294 151.459H54.8322C54.8322 151.459 54.7342 151.483 54.6974 151.508C54.6607 151.545 54.6484 151.593 54.6484 151.642V152.45C54.6484 152.45 54.6729 152.547 54.7097 152.584C54.7465 152.621 54.7955 152.645 54.8445 152.645H55.7267C56.5844 152.645 57.1357 152.878 57.3685 153.33H54.8445C54.8445 153.33 54.7465 153.355 54.7097 153.379C54.6729 153.416 54.6607 153.465 54.6607 153.514V154.137C54.6607 154.137 54.6729 154.235 54.7097 154.272C54.7465 154.309 54.7955 154.321 54.8445 154.321H57.4543C57.3685 154.651 57.1602 154.908 56.8294 155.079C56.4986 155.25 56.0698 155.336 55.5306 155.336H54.8445C54.8445 155.336 54.7465 155.36 54.7097 155.397C54.6729 155.434 54.6484 155.483 54.6484 155.532V156.302C54.6484 156.302 54.6607 156.4 54.6974 156.437C55.4816 157.268 56.4986 158.418 57.7484 159.91C57.7851 159.959 57.8341 159.984 57.9077 159.984H59.0962C59.1819 159.984 59.2432 159.947 59.2677 159.874C59.3045 159.8 59.3045 159.727 59.2432 159.666C58.0547 158.21 57.1112 157.122 56.4373 156.4C57.1357 156.314 57.6994 156.094 58.1282 155.727C58.5571 155.361 58.8266 154.884 58.9246 154.296H59.9539C59.9539 154.296 60.0641 154.272 60.1009 154.235C60.1377 154.199 60.1622 154.15 60.1622 154.101V153.477C60.1622 153.477 60.1377 153.379 60.1009 153.342L60.0887 153.379Z" fill="#D3D3D3"/>
<path d="M55.028 161.733H54.9668C54.1336 161.415 53.3862 160.962 52.7368 160.363C52.6633 160.302 52.6633 160.192 52.7368 160.118C52.798 160.045 52.9083 160.045 52.9818 160.118C53.6067 160.681 54.3174 161.121 55.1016 161.415C55.1873 161.451 55.2363 161.549 55.1996 161.635C55.1751 161.708 55.1138 161.745 55.0403 161.745L55.028 161.733Z" fill="white"/>
<path d="M52.1118 159.628C52.1118 159.628 52.0138 159.604 51.9771 159.567C51.8913 159.469 51.8178 159.359 51.7443 159.249C51.6952 159.176 51.7075 159.066 51.781 159.017C51.8545 158.968 51.9648 158.98 52.0138 159.054C52.0873 159.151 52.1608 159.261 52.2344 159.359C52.2956 159.433 52.2834 159.543 52.2099 159.592C52.1731 159.616 52.1363 159.628 52.0996 159.628H52.1118Z" fill="white"/>
<path d="M57.8463 146.75C57.7238 146.75 57.589 146.75 57.4665 146.75C57.3684 146.75 57.2949 146.676 57.2949 146.579C57.2949 146.481 57.3684 146.407 57.4665 146.407C57.6012 146.407 57.7238 146.407 57.8585 146.407C57.9566 146.407 58.0301 146.493 58.0178 146.579C58.0178 146.664 57.9321 146.738 57.8463 146.738V146.75Z" fill="white"/>
<path d="M61.3744 147.643H61.3008C60.7005 147.325 60.0633 147.105 59.4139 146.958C59.3159 146.933 59.2669 146.848 59.2914 146.75C59.3159 146.664 59.4017 146.603 59.4997 146.628C60.1736 146.787 60.8352 147.019 61.4601 147.325C61.5459 147.361 61.5827 147.471 61.5337 147.557C61.5091 147.618 61.4479 147.655 61.3866 147.655L61.3744 147.643Z" fill="white"/>
<path d="M62.4528 148.267L62.3547 148.242C62.2445 148.169 62.1464 148.108 62.0362 148.034C61.9504 147.985 61.9259 147.875 61.9872 147.802C62.0362 147.716 62.1464 147.692 62.22 147.753C62.3302 147.826 62.4405 147.888 62.5508 147.961C62.6243 148.01 62.6488 148.12 62.5998 148.193C62.563 148.242 62.514 148.267 62.4528 148.267Z" fill="white"/>
<path d="M62.5388 167.627C55.7753 175.834 41.023 197.885 46.3652 205.456C51.7074 213.027 83.9688 211.339 89.2497 208.526C94.5307 205.713 81.2855 170.66 76.9725 166.245C74.1176 163.322 70.7971 162.368 67.5134 163.713C65.8225 164.398 64.1561 165.695 62.551 167.639L62.5388 167.627Z" fill="white" stroke="#3C4150" stroke-width="0.526091" stroke-miterlimit="10"/>
<path d="M78.4912 155.324C78.4912 155.324 71.6541 156.253 71.017 160.301C70.3676 164.362 76.9963 161.121 81.4196 162.209C85.8428 163.286 83.3432 160.093 82.3508 157.953C81.3583 155.813 81.4196 155.03 78.5034 155.324H78.4912Z" fill="white" stroke="#3C4150" stroke-width="0.526091" stroke-miterlimit="10"/>
<path d="M77.0957 205.284V201.945L126.107 201.639L126.033 205.284H77.0957Z" fill="#6AA319"/>
<path d="M79.0182 201.848C83.4782 198.142 93.648 194.888 111.157 197.114C122.552 198.558 128.507 202.961 125.223 206.801C121.229 211.461 109.589 213.112 92.4472 211.571C80.6478 210.507 73.4555 206.483 79.0305 201.86L79.0182 201.848Z" fill="#EDEDED" stroke="#3C4150" stroke-width="0.526091" stroke-miterlimit="10"/>
<path d="M79.0202 198.631C83.4802 194.925 93.6499 191.672 111.159 193.898C122.554 195.341 128.509 199.744 125.225 203.585C121.231 208.245 109.591 209.896 92.4492 208.355C80.6498 207.291 73.4574 203.267 79.0324 198.644L79.0202 198.631Z" fill="white" stroke="#3C4150" stroke-width="0.526091" stroke-miterlimit="10"/>
<path d="M103.659 208.135C100.681 208.135 97.4097 207.976 93.8564 207.658C86.468 206.997 81.3831 204.992 80.5867 202.435C80.1088 200.907 81.2238 199.574 82.2408 198.717C84.6301 196.724 92.1165 192.345 109.858 194.608C116.757 195.489 121.695 197.69 122.724 200.356C123.128 201.408 122.908 202.484 122.062 203.463C120.31 205.505 116.953 206.887 112.076 207.597C109.613 207.951 106.808 208.135 103.671 208.135H103.659ZM82.7187 199.304C81.4934 200.32 81.0155 201.298 81.2974 202.215C81.9958 204.441 86.9459 206.276 93.9177 206.9C108.388 208.196 118.178 206.802 121.474 202.974C122.136 202.215 122.307 201.42 122.001 200.625C121.082 198.253 116.279 196.186 109.748 195.366C102.972 194.51 97.0176 194.547 92.043 195.489C86.9826 196.442 84.1767 198.094 82.7064 199.317L82.7187 199.304Z" fill="#F5F5F5"/>
<path d="M54.5508 209.835V207.536L88.3193 207.328L88.2703 209.835H54.5508Z" fill="#6AA319"/>
<path d="M55.8741 207.462C58.9495 204.906 65.9581 202.668 78.0148 204.196C85.8688 205.199 89.9734 208.233 87.7067 210.862C84.9498 214.066 76.9365 215.216 65.1249 214.152C57.0013 213.418 52.039 210.654 55.8741 207.462Z" fill="#EDEDED" stroke="#3C4150" stroke-width="0.526091" stroke-miterlimit="10"/>
<path d="M55.8741 205.248C58.9495 202.692 65.9581 200.454 78.0148 201.983C85.8688 202.986 89.9734 206.019 87.7067 208.649C84.9498 211.853 76.9365 213.003 65.1249 211.939C57.0013 211.205 52.039 208.441 55.8741 205.248Z" fill="white" stroke="#3C4150" stroke-width="0.526091" stroke-miterlimit="10"/>
<path d="M72.7818 211.792C70.7478 211.792 68.5178 211.682 66.104 211.462C61.0069 211.009 57.5026 209.627 56.9635 207.866C56.7797 207.279 56.8287 206.362 58.103 205.31C59.7571 203.94 64.9033 200.919 77.1315 202.472C81.8855 203.072 85.2796 204.588 85.9902 206.435C86.272 207.169 86.1127 207.903 85.5369 208.575C83.7235 210.691 79.288 211.78 72.794 211.78L72.7818 211.792ZM58.4338 205.714C57.5884 206.411 57.2576 207.083 57.4536 207.719C57.9315 209.248 61.35 210.52 66.153 210.948C76.1268 211.841 82.8658 210.887 85.1325 208.245C85.5859 207.719 85.7084 207.169 85.5001 206.631C84.8752 205.004 81.5547 203.573 77.058 202.998C72.3897 202.399 68.285 202.436 64.8543 203.084C61.3745 203.744 59.4385 204.882 58.4216 205.714H58.4338Z" fill="#F5F5F5"/>
<path d="M74.1905 183.71C74.1292 183.649 74.0435 183.612 73.9332 183.612H72.0463C71.9237 183 71.6909 182.475 71.3356 182.022H73.9087C74.019 182.022 74.0925 181.985 74.166 181.924C74.2273 181.863 74.264 181.777 74.264 181.667V180.542C74.264 180.444 74.2273 180.359 74.166 180.285C74.1047 180.224 74.019 180.187 73.9087 180.187H64.7069C64.6089 180.187 64.5231 180.224 64.4496 180.285C64.3761 180.346 64.3516 180.432 64.3516 180.542V182.01C64.3516 182.108 64.3883 182.193 64.4618 182.254C64.5354 182.328 64.6089 182.365 64.7069 182.365H66.312C67.8681 182.365 68.8606 182.78 69.2772 183.612H64.7069C64.6089 183.612 64.5231 183.649 64.4496 183.71C64.3761 183.771 64.3516 183.857 64.3516 183.967V185.092C64.3516 185.19 64.3883 185.275 64.4496 185.349C64.5108 185.41 64.5966 185.447 64.7069 185.447H69.4242C69.2649 186.046 68.8851 186.511 68.2969 186.816C67.7088 187.134 66.9246 187.293 65.9444 187.293H64.7069C64.6089 187.293 64.5231 187.33 64.4618 187.403C64.3883 187.477 64.3516 187.55 64.3516 187.648V189.042C64.3516 189.14 64.3883 189.214 64.4496 189.287C65.8586 190.779 67.6966 192.871 69.9511 195.573C70.0123 195.659 70.1103 195.708 70.2329 195.708H72.3894C72.5486 195.708 72.6467 195.647 72.7079 195.512C72.7814 195.378 72.7692 195.255 72.6589 195.133C70.5024 192.504 68.8116 190.547 67.5863 189.238C68.8361 189.091 69.853 188.688 70.6372 188.027C71.4214 187.367 71.8992 186.511 72.0585 185.459H73.9087C74.019 185.459 74.0925 185.422 74.166 185.361C74.2273 185.3 74.264 185.214 74.264 185.104V183.979C74.264 183.881 74.2273 183.795 74.166 183.722L74.1905 183.71Z" fill="#DDDDDD"/>
<path d="M60.1009 178.023C58.2385 181.399 54.9302 181.9 54.5627 185.435C54.1951 188.97 52.1611 194.877 52.1611 196.393C52.1611 197.91 52.5287 207.976 54.0725 208.135C54.0725 208.135 44.3929 209.125 45.998 198.925C47.6031 188.725 55.6409 178.561 56.8784 176.335C58.1159 174.109 61.0811 170.134 63.0783 167.994C64.2913 166.172 66.3375 164.79 67.8569 164.154C69.3762 163.518 70.7363 163.689 68.543 167.566C66.3498 171.443 62.6372 171.749 62.8087 174.794C62.9803 177.84 60.1131 178.011 60.1131 178.011L60.1009 178.023Z" fill="#F2F2F2"/>
</g>
<defs>
<clipPath id="clip0_9601_10746">
<rect width="166.573" height="205.113" fill="white" transform="translate(43.75 19.7886)"/>
</clipPath>
<clipPath id="clip1_9601_10746">
<rect width="66.0411" height="22.9805" fill="white" transform="translate(53.9473 80.5511)"/>
</clipPath>
</defs>
</svg>
