<svg width="24" height="24" viewBox="0 0 24 24" fill="none" xmlns="http://www.w3.org/2000/svg">
<path fill-rule="evenodd" clip-rule="evenodd" d="M2.40039 10.5186C2.40039 14.9896 6.0455 18.6373 10.5133 18.6373C12.5044 18.6373 14.3313 17.9129 15.7463 16.715L20.4215 21.3944C20.5454 21.5308 20.723 21.6 20.9015 21.6H20.915C21.0801 21.6 21.2577 21.5308 21.395 21.3944C21.6686 21.1197 21.6686 20.6941 21.395 20.4203L16.7178 15.7399C17.9082 14.3267 18.6263 12.5034 18.6263 10.5186C18.6263 6.04766 14.9812 2.39999 10.5133 2.39999C6.0455 2.39999 2.40039 6.04766 2.40039 10.5186ZM15.3239 15.2394C16.5182 14.0203 17.2564 12.3535 17.2564 10.5186C17.2564 6.80179 14.2276 3.77184 10.5133 3.77184C6.7991 3.77184 3.77128 6.80179 3.77128 10.5186C3.77128 14.2355 6.7991 17.2664 10.5133 17.2664C12.3527 17.2664 14.0241 16.5228 15.2433 15.3201C15.2557 15.3057 15.2682 15.2913 15.2826 15.2778C15.2961 15.2644 15.3095 15.2509 15.3239 15.2394Z" fill="white"/>
</svg>
