<svg xmlns="http://www.w3.org/2000/svg" width="90" height="90" viewBox="0 0 90 90" fill="none">
<g clip-path="url(#clip0_274_14437)">
<mask id="path-1-inside-1_274_14437" fill="white">
<path d="M54.93 20.5988C58.2 17.97 61.575 14.4375 63.2812 10.1437C64.1738 7.90125 63.8925 5.35875 62.52 3.33375C61.1063 1.245 58.7625 0 56.25 0H33.75C31.2375 0 28.8938 1.24875 27.48 3.33375C26.1075 5.35875 25.8263 7.90125 26.715 10.1363C28.425 14.4338 31.7963 17.97 35.07 20.595C17.6063 27.0788 3.75 49.3462 3.75 67.5C3.75 79.9088 13.8412 90 26.25 90H63.75C76.1588 90 86.25 79.9088 86.25 67.5C86.25 49.3462 72.3938 27.0788 54.93 20.5988ZM56.31 7.36875C54.3787 12.2288 48.4575 16.3425 44.9925 18.2812C41.5312 16.3575 35.6362 12.2812 33.7462 7.5L56.31 7.36875ZM63.7463 82.5H26.25C17.9775 82.5 11.25 75.7725 11.25 67.5C11.25 47.8387 28.9125 26.25 45 26.25C61.0875 26.25 78.75 47.8387 78.75 67.5C78.75 75.7725 72.0225 82.5 63.75 82.5H63.7463Z"/>
</mask>
<path d="M54.93 20.5988L36.1336 -2.78278L-5.06435 30.3362L44.4937 48.7249L54.93 20.5988ZM63.2812 10.1437L35.4077 -0.949736L35.4048 -0.942354L35.4018 -0.934971L63.2812 10.1437ZM62.52 3.33375L37.6758 20.1493L37.6812 20.1573L37.6866 20.1653L62.52 3.33375ZM27.48 3.33375L2.6498 -13.5026L2.64657 -13.4978L27.48 3.33375ZM26.715 10.1363L-1.16182 21.2215L-1.15938 21.2276L26.715 10.1363ZM35.07 20.595L45.5117 48.7192L95.1279 30.2983L53.837 -2.81012L35.07 20.595ZM44.9925 18.2812L30.4184 44.5033L45.0413 52.6307L59.6411 44.4617L44.9925 18.2812ZM33.7462 7.5L33.5717 -22.4995L-10.2704 -22.2445L5.8469 18.5284L33.7462 7.5ZM73.7264 43.9803C78.8145 39.89 86.7085 32.4264 91.1607 21.2225L35.4018 -0.934971C35.9947 -2.42692 36.6269 -3.18801 36.7021 -3.27772C36.787 -3.37898 36.6379 -3.1882 36.1336 -2.78278L73.7264 43.9803ZM91.1548 21.2372C95.7665 9.64991 94.2384 -3.33968 87.3534 -13.4978L37.6866 20.1653C33.5466 14.0572 32.581 6.15259 35.4077 -0.949736L91.1548 21.2372ZM87.3642 -13.4818C80.3873 -23.7899 68.7497 -30 56.25 -30V30C48.7753 30 41.8252 26.2799 37.6758 20.1493L87.3642 -13.4818ZM56.25 -30H33.75V30H56.25V-30ZM33.75 -30C21.225 -30 9.60934 -23.7665 2.6498 -13.5026L52.3102 20.1701C48.1782 26.264 41.25 30 33.75 30V-30ZM2.64657 -13.4978C-4.228 -3.35498 -5.77145 9.62937 -1.16182 21.2215L54.5918 -0.948997C57.4239 6.17313 56.443 14.0725 52.3134 20.1653L2.64657 -13.4978ZM-1.15938 21.2276C3.28988 32.4093 11.1584 39.875 16.303 44.0001L53.837 -2.81012C53.3536 -3.19773 53.213 -3.37964 53.3011 -3.27447C53.3799 -3.18051 54.0034 -2.42775 54.5894 -0.955128L-1.15938 21.2276ZM24.6283 -7.52922C8.23554 -1.44308 -4.19384 10.9215 -12.2566 23.267C-20.3497 35.6588 -26.25 51.3773 -26.25 67.5H33.75C33.75 65.469 34.7778 60.9768 37.9788 56.0755C41.2101 51.1279 44.4407 49.1168 45.5117 48.7192L24.6283 -7.52922ZM-26.25 67.5C-26.25 96.4773 -2.72729 120 26.25 120V60C30.4098 60 33.75 63.3402 33.75 67.5H-26.25ZM26.25 120H63.75V60H26.25V120ZM63.75 120C92.7273 120 116.25 96.4773 116.25 67.5H56.25C56.25 63.3402 59.5902 60 63.75 60V120ZM116.25 67.5C116.25 51.3774 110.35 35.6587 102.256 23.2668C94.1931 10.9216 81.7623 -1.44366 65.3663 -7.52744L44.4937 48.7249C45.5615 49.1212 48.7906 51.1297 52.0216 56.0766C55.2222 60.9769 56.25 65.4689 56.25 67.5H116.25ZM28.4305 -3.70989C29.319 -5.94561 30.3444 -7.33564 30.8019 -7.90654C31.2877 -8.51297 31.5861 -8.75701 31.5141 -8.69427C31.4667 -8.6529 31.2944 -8.51186 31.0045 -8.3134C30.7209 -8.11923 30.4719 -7.97089 30.3439 -7.89924L59.6411 44.4617C62.6859 42.7581 66.8478 40.101 70.9387 36.5352C74.6274 33.3199 80.6671 27.3113 84.1895 18.4474L28.4305 -3.70989ZM59.5666 -7.94079C59.4427 -8.00967 59.1977 -8.15467 58.9183 -8.3448C58.6324 -8.5393 58.4674 -8.67441 58.4294 -8.70734C58.3657 -8.76258 58.6822 -8.5035 59.1889 -7.87356C59.6648 -7.282 60.7309 -5.84239 61.6456 -3.52845L5.8469 18.5284C9.37277 27.448 15.4726 33.4608 19.1309 36.6317C23.2141 40.1709 27.3719 42.8101 30.4184 44.5033L59.5666 -7.94079ZM33.9208 37.4995L56.4845 37.3682L56.1355 -22.6307L33.5717 -22.4995L33.9208 37.4995ZM63.7463 52.5H26.25V112.5H63.7463V52.5ZM26.25 52.5C34.546 52.5 41.25 59.204 41.25 67.5H-18.75C-18.75 92.341 1.40896 112.5 26.25 112.5V52.5ZM41.25 67.5C41.25 66.9977 41.3859 65.7337 42.1321 63.8602C42.8677 62.0129 43.9839 60.1211 45.3111 58.4989C46.671 56.8368 47.8126 55.9898 48.2789 55.7124C48.8047 55.3995 47.6652 56.25 45 56.25V-3.75C24.2099 -3.75 8.10011 9.22767 -1.12672 20.5051C-10.9172 32.4715 -18.75 49.2868 -18.75 67.5H41.25ZM45 56.25C42.3348 56.25 41.1953 55.3995 41.7211 55.7124C42.1874 55.9898 43.329 56.8368 44.6889 58.4989C46.0161 60.1211 47.1323 62.0129 47.8679 63.8602C48.6141 65.7337 48.75 66.9977 48.75 67.5H108.75C108.75 49.2868 100.917 32.4715 91.1267 20.5051C81.8999 9.22767 65.7901 -3.75 45 -3.75V56.25ZM48.75 67.5C48.75 59.204 55.454 52.5 63.75 52.5V112.5C88.591 112.5 108.75 92.341 108.75 67.5H48.75ZM63.75 52.5H63.7463V112.5H63.75V52.5Z" fill="white" mask="url(#path-1-inside-1_274_14437)"/>
</g>
<defs>
<clipPath id="clip0_274_14437">
<rect width="90" height="90" fill="white"/>
</clipPath>
</defs>
</svg>