<svg width="750" height="456" viewBox="0 0 750 456" fill="none" xmlns="http://www.w3.org/2000/svg">
<g style="mix-blend-mode:luminosity" opacity="0.7">
<mask id="mask0_2028_97411" style="mask-type:luminance" maskUnits="userSpaceOnUse" x="0" y="0" width="750" height="456">
<path d="M0 455.836H749.101V0.8901H0V455.836Z" fill="white"/>
</mask>
<g mask="url(#mask0_2028_97411)">
<path d="M771.989 355.489H741.857L536.745 237.068C521.738 228.403 497.474 228.403 482.564 237.068L278.788 355.489H248.953V382.051C248.984 387.73 252.755 393.411 260.261 397.743L484.197 527.032C499.206 535.698 523.468 535.698 538.376 527.032L760.857 397.741C768.312 393.408 772.02 387.73 771.989 382.051V355.489Z" fill="#97B5FF"/>
<path d="M760.682 339.798C775.691 348.464 775.768 362.516 760.858 371.182L538.377 500.473C523.468 509.139 499.204 509.139 484.197 500.473L260.262 371.184C245.253 362.519 245.174 348.466 260.084 339.801L482.565 210.509C497.475 201.845 521.738 201.843 536.746 210.509L760.682 339.798Z" fill="#CCD9FF"/>
<path d="M343.723 202.977L343.734 206.529L359.806 197.25L359.796 193.697L343.723 202.977ZM359.688 214.372L372.439 207.01L372.422 200.993L359.67 208.355L359.688 214.372ZM388.346 197.826L388.328 191.809L375.576 199.171L375.594 205.189L388.346 197.826ZM343.765 217.538L343.781 223.555L356.533 216.193L356.517 210.176L343.765 217.538ZM388.316 187.192L388.306 183.643L343.741 209.372L343.751 212.921L388.316 187.192ZM366.205 260.609C376.836 254.47 385.429 239.591 385.396 227.375C385.367 217.503 379.719 212.398 371.942 214.031C370.091 214.422 368.125 215.187 366.08 216.367C355.448 222.506 346.855 237.389 346.89 249.606C346.917 259.474 352.567 264.583 360.339 262.947C362.19 262.557 364.161 261.788 366.205 260.609ZM338.98 198.603L392.99 167.419L393.223 249.462L339.213 280.645L338.98 198.603Z" fill="#587DE5"/>
<path d="M371.943 214.033C379.72 212.401 385.368 217.505 385.397 227.377C385.43 239.593 376.837 254.472 366.206 260.611C364.162 261.791 362.191 262.559 360.34 262.949L362.302 254.691C363.526 254.431 364.828 253.922 366.184 253.14C373.224 249.075 378.913 239.222 378.891 231.133C378.872 224.597 375.135 221.209 369.984 222.295L371.943 214.033Z" fill="#97B5FF"/>
<path d="M353.391 245.85C353.41 252.386 357.152 255.768 362.302 254.687L360.34 262.945C352.568 264.581 346.918 259.471 346.891 249.603L353.391 245.85Z" fill="#3123C3"/>
<path d="M369.985 222.295C375.136 221.209 378.873 224.598 378.892 231.134C378.914 239.223 373.225 249.076 366.185 253.141C364.829 253.923 363.527 254.432 362.303 254.692C357.154 255.773 353.411 252.391 353.393 245.855C353.37 237.762 359.06 227.906 366.103 223.84C367.454 223.059 368.761 222.55 369.985 222.295Z" fill="#587DE5"/>
<path d="M366.081 216.367C368.125 215.187 370.091 214.422 371.943 214.031L369.984 222.293C368.76 222.547 367.454 223.056 366.102 223.837C359.059 227.905 353.369 237.759 353.391 245.852L346.891 249.605C346.856 237.389 355.449 222.506 366.081 216.367Z" fill="#5647CB"/>
<path d="M372.423 200.992L372.441 207.009L359.689 214.371L359.672 208.354L372.423 200.992Z" fill="white"/>
<path d="M356.519 210.176L356.535 216.193L343.784 223.555L343.768 217.538L356.519 210.176Z" fill="white"/>
<path d="M388.308 183.644L388.318 187.193L343.754 212.922L343.744 209.373L388.308 183.644Z" fill="#CCD9FF"/>
<path d="M359.8 193.696L359.81 197.248L343.738 206.527L343.727 202.975L359.8 193.696Z" fill="#CCD9FF"/>
<path d="M388.33 191.811L388.347 197.828L375.596 205.191L375.578 199.173L388.33 191.811Z" fill="white"/>
<path d="M656.062 357.647C660.427 360.167 660.45 364.248 656.114 366.767L552.518 426.971C548.188 429.487 541.136 429.491 536.771 426.971L364.873 327.726C360.516 325.21 360.492 321.121 364.822 318.605L468.418 258.402C472.754 255.883 479.806 255.886 484.163 258.401L656.062 357.647Z" fill="#97B5FF"/>
<path d="M659.125 186.914L487.227 87.6693C485.107 86.4456 483.182 86.3031 481.759 87.0493L481.755 87.0431L481.666 87.093L481.614 87.123L478.205 89.0329L479.709 89.5891C479.451 90.334 479.306 91.2027 479.304 92.1939L478.964 212.004C478.949 217.02 482.479 223.124 486.837 225.639L658.734 324.885C659.51 325.333 660.259 325.631 660.968 325.801L660.788 327.438L664.235 325.505L664.224 325.503C665.716 324.711 666.651 322.935 666.658 320.369L666.998 200.56C667.012 195.544 663.491 189.434 659.125 186.914Z" fill="#97B5FF"/>
<path d="M655.647 188.863C660.012 191.383 663.534 197.491 663.519 202.507L663.18 322.318C663.165 327.334 659.621 329.354 655.256 326.833L483.358 227.588C478.999 225.071 475.471 218.967 475.484 213.951L475.824 94.1413C475.838 89.1254 479.39 87.1006 483.749 89.6179L655.647 188.863Z" fill="#0D095E"/>
<path d="M654.831 198.401L654.497 316.398L484.178 218.063L484.513 100.067L654.831 198.401Z" fill="#5447CB"/>
<path d="M659.349 340.831V340.833V331.553L653.626 334.911L484.166 237.073C479.808 234.557 472.757 234.553 468.421 237.073L368.899 294.909L361.592 292.315V301.827L361.593 301.824C361.598 303.48 362.692 305.137 364.877 306.398L536.774 405.643C541.138 408.163 548.19 408.159 552.52 405.643L656.115 345.439C658.305 344.166 659.379 342.498 659.349 340.831Z" fill="#587CE5"/>
<path d="M434.66 337.41L461.568 352.946L459.783 354.387C459.185 354.876 458.287 354.84 457.348 354.298L438.865 343.627C437.919 343.081 437.031 342.086 436.43 340.903L434.66 337.41Z" fill="#0D095E"/>
<path d="M656.064 327.037C660.428 329.558 660.451 333.638 656.114 336.158L552.519 396.361C548.189 398.878 541.137 398.882 536.773 396.361L364.876 297.117C360.517 294.599 360.495 290.512 364.823 287.995L468.42 227.793C472.756 225.272 479.807 225.276 484.165 227.792L656.064 327.037Z" fill="#97B5FF"/>
<path d="M637.705 327.432C639.013 328.187 639.028 329.414 637.728 330.169L581.829 362.654C580.529 363.409 578.411 363.406 577.102 362.651L419.423 271.615C418.114 270.859 418.109 269.636 419.408 268.88L475.306 236.396C476.605 235.64 478.717 235.64 480.026 236.396L637.705 327.432Z" fill="#587CE5"/>
<path d="M453.661 278.408L446.386 282.637L437.926 277.752L445.2 273.524L453.661 278.408Z" fill="#0D095E"/>
<path d="M441.646 271.471L434.37 275.699L424.93 270.248L432.205 266.02L441.646 271.471Z" fill="#0D095E"/>
<path d="M480.119 249.118L472.852 253.34L463.41 247.889L470.677 243.666L480.119 249.118Z" fill="#0D095E"/>
<path d="M473.59 256.487L466.323 260.711L453.789 253.475L461.057 249.251L473.59 256.487Z" fill="#0D095E"/>
<path d="M466.736 263.679L459.467 267.902L444.168 259.069L451.437 254.846L466.736 263.679Z" fill="#0D095E"/>
<path d="M464.469 273.507L457.194 277.734L434.551 264.662L441.825 260.433L464.469 273.507Z" fill="#0D095E"/>
<path d="M465.676 285.346L458.402 289.574L449.941 284.69L457.217 280.462L465.676 285.346Z" fill="#0D095E"/>
<path d="M477.954 292.437L470.678 296.664L461.955 291.627L469.23 287.4L477.954 292.437Z" fill="#0D095E"/>
<path d="M619.218 321.299L614.549 324.012L486.018 249.805L490.686 247.091L619.218 321.299Z" fill="#0D095E"/>
<path d="M603.518 320.359L596.25 324.582L476.406 255.391L483.674 251.166L603.518 320.359Z" fill="#0D095E"/>
<path d="M589.155 323.213L581.887 327.438L469.879 262.769L477.147 258.545L589.155 323.213Z" fill="#0D095E"/>
<path d="M632.209 328.798L627.54 331.512L618.105 326.063L622.775 323.351L632.209 328.798Z" fill="#0D095E"/>
<path d="M538.385 327.326L531.11 331.555L474.234 298.717L481.509 294.489L538.385 327.326Z" fill="#0D095E"/>
<path d="M581.314 329.827L574.045 334.051L463.025 269.953L470.294 265.73L581.314 329.827Z" fill="#0D095E"/>
<path d="M563.602 330.742L556.327 334.969L460.748 279.788L468.022 275.559L563.602 330.742Z" fill="#0D095E"/>
<path d="M602.585 330.964L595.318 335.188L585.443 329.485L592.71 325.262L602.585 330.964Z" fill="#0D095E"/>
<path d="M625.194 332.873L617.926 337.098L599.805 326.635L607.072 322.411L625.194 332.873Z" fill="#0D095E"/>
<path d="M552.204 335.304L544.93 339.531L534.664 333.604L541.938 329.376L552.204 335.304Z" fill="#0D095E"/>
<path d="M615.57 338.463L608.303 342.688L598.869 337.239L606.136 333.017L615.57 338.463Z" fill="#0D095E"/>
<path d="M605.951 344.053L598.683 348.277L577.596 336.102L584.865 331.879L605.951 344.053Z" fill="#0D095E"/>
<path d="M596.343 349.643L589.067 353.871L559.883 337.022L567.159 332.794L596.343 349.643Z" fill="#0D095E"/>
<path d="M586.72 355.233L579.446 359.461L548.484 341.585L555.76 337.358L586.72 355.233Z" fill="#0D095E"/>
<path d="M487.132 245.038L482.463 247.75L473.021 242.299L477.691 239.587L487.132 245.038Z" fill="#0D095E"/>
<path d="M460.629 348.61C461.568 349.153 462.048 349.912 461.924 350.675L461.568 352.941L434.66 337.405L438.57 337.191C439.895 337.123 441.2 337.394 442.146 337.939L460.629 348.61Z" fill="#587CE5"/>
<path d="M518.408 336.811C519.717 337.566 519.723 338.798 518.425 339.552L487.473 357.539C486.173 358.294 484.047 358.294 482.74 357.539L426.654 325.158C425.345 324.403 425.347 323.176 426.645 322.419L457.595 304.433C458.895 303.678 461.015 303.675 462.323 304.428L518.408 336.811Z" fill="#587CE5"/>
<path d="M629.91 354.381L629.919 357.12L609.742 368.77L609.734 366.03L629.91 354.381Z" fill="#0D095E"/>
<path d="M642.294 347.234L642.303 349.973L633.627 354.98L633.621 352.241L642.294 347.234Z" fill="#0D095E"/>
<path d="M654.672 340.082L654.681 342.822L646.011 347.828L646.004 345.088L654.672 340.082Z" fill="#0D095E"/>
<path d="M585.08 132.094L585.109 119.711L600.488 128.59C595.317 129.605 590.181 130.771 585.08 132.094Z" fill="#ACC4FF"/>
<path d="M601.886 153.871L585.053 144.152L585.08 132.099C590.181 130.777 595.317 129.61 600.488 128.595L601.943 129.435L601.886 153.871Z" fill="#8398F3"/>
<path d="M601.879 157.82L585.045 148.101L585.055 144.148L601.889 153.867L601.879 157.82Z" fill="#97B5FF"/>
<path d="M601.855 167.816L585.021 158.098L585.044 148.103L601.878 157.822L601.855 167.816Z" fill="#7B93DF"/>
<path d="M601.785 198.168L584.951 188.45L585.021 158.095L601.855 167.813L601.785 198.168Z" fill="#8A9FF5"/>
<path d="M604.771 127.789L618.449 119.84L618.435 125.7C613.865 126.279 609.306 126.975 604.771 127.789Z" fill="#7996EA"/>
<path d="M615.708 161.848L601.887 153.868L601.943 129.433L604.772 127.789C609.306 126.975 613.865 126.279 618.436 125.7L618.357 160.309L615.708 161.848Z" fill="#506ADE"/>
<path d="M612.291 163.832L601.877 157.82L601.887 153.867L615.708 161.846L612.291 163.832Z" fill="#6587EA"/>
<path d="M609.722 172.359L601.855 167.817L601.878 157.823L612.292 163.835L609.739 165.319L609.722 172.359Z" fill="#4965CA"/>
<path d="M601.785 198.168L601.855 167.813L609.722 172.355L609.671 193.586L601.785 198.168Z" fill="#5771E0"/>
<path d="M600.488 128.59L585.109 119.711L601.617 110.117L618.449 119.837L604.772 127.786C603.341 128.042 601.914 128.31 600.488 128.59Z" fill="#D1DBFD"/>
<path d="M601.943 129.434L600.488 128.594C601.914 128.314 603.341 128.046 604.772 127.79L601.943 129.434Z" fill="#A7AFF1"/>
<path d="M626.555 182.074L609.723 172.355L609.739 165.314L626.573 175.034L626.555 182.074Z" fill="#2A1EAF"/>
<path d="M626.483 212.434L609.65 202.714L609.672 193.591L609.723 172.36L626.555 182.08L626.483 212.434Z" fill="#382AC5"/>
<path d="M634.448 172.668L632.541 171.567L634.453 170.456L634.448 172.668Z" fill="#1D11B6"/>
<path d="M634.44 176.617L629.125 173.549L632.541 171.563L634.448 172.664L634.44 176.617Z" fill="#312EC2"/>
<path d="M634.416 186.617L626.553 182.079L626.57 175.038L629.124 173.554L634.438 176.623L634.416 186.617Z" fill="#160BA2"/>
<path d="M626.482 212.434L626.555 182.08L634.418 186.618L634.369 207.85L626.482 212.434Z" fill="#2418B8"/>
<path d="M632.541 171.562L615.709 161.843L618.358 160.305L626.246 155.72L635.426 161.021L634.474 161.574L634.454 170.451L632.541 171.562Z" fill="#4D40C9"/>
<path d="M629.125 173.551L612.291 163.832L615.708 161.845L632.541 171.565L629.125 173.551Z" fill="#615DD5"/>
<path d="M626.572 175.035L609.738 165.316L612.292 163.832L629.126 173.552L626.572 175.035Z" fill="#463BB5"/>
<path d="M651.283 182.387L634.449 172.669L634.454 170.456L634.474 161.58L651.308 171.299L651.283 182.387Z" fill="#8398F3"/>
<path d="M651.272 186.336L634.439 176.618L634.448 172.664L651.282 182.382L651.272 186.336Z" fill="#97B5FF"/>
<path d="M651.25 196.332L634.418 186.613L634.44 176.619L651.273 186.337L651.25 196.332Z" fill="#7B93DF"/>
<path d="M651.178 226.691L634.346 216.973L634.367 207.849L634.416 186.617L651.248 196.336L651.178 226.691Z" fill="#8A9FF5"/>
<path d="M666.998 200.672L667 200.559C667.013 195.544 663.492 189.434 659.126 186.914L651.283 182.386L651.308 171.298L667.816 161.704L667.727 200.248L666.998 200.672Z" fill="#506ADE"/>
<path d="M663.519 202.691V202.508C663.534 197.492 660.012 191.383 655.647 188.864L651.271 186.338L651.281 182.384L659.125 186.913C663.491 189.432 667.012 195.542 666.998 200.558L666.997 200.67L663.519 202.691Z" fill="#6587EA"/>
<path d="M654.754 224.609L654.828 198.398L651.248 196.331L651.271 186.336L655.646 188.862C660.011 191.382 663.533 197.49 663.518 202.506V202.69L659.095 205.261L659.062 222.106L654.754 224.609Z" fill="#4965CA"/>
<path d="M651.18 226.691L651.25 196.336L654.829 198.402L654.756 224.614L651.18 226.691Z" fill="#5771E0"/>
<path d="M651.306 171.297L634.473 161.578L635.425 161.024L650.98 151.985L667.814 161.703L651.306 171.297Z" fill="#A7AFF1"/>
<path d="M675.878 240.945L666.898 235.761L666.972 209.806L675.93 214.979L675.878 240.945Z" fill="#3123C3"/>
<path d="M666.898 235.766L663.432 233.765L663.504 207.81L666.971 209.811L666.898 235.766Z" fill="#4540CF"/>
<path d="M663.432 233.762L659.045 231.229L659.064 222.108L659.096 205.263L663.505 207.807L663.432 233.762Z" fill="#2A1EAF"/>
<path d="M675.877 240.945L675.929 214.979L692.437 205.385L692.384 231.354L675.877 240.945Z" fill="#1D11B6"/>
<path d="M675.931 214.98L666.973 209.808L666.998 200.67L667.726 200.247L675.605 195.668L692.438 205.387L675.931 214.98Z" fill="#4D40C9"/>
<path d="M666.973 209.812L663.506 207.811L663.521 202.696L666.998 200.674L666.973 209.812Z" fill="#615DD5"/>
<path d="M663.506 207.805L659.098 205.26L663.521 202.689L663.506 207.805Z" fill="#463BB5"/>
<path d="M532.425 421.473C505.349 405.842 464.492 403.023 432.55 413.001C430.746 413.565 430.219 415.869 431.596 417.164L438.889 424.043C440.155 425.237 439.749 427.324 438.139 427.987C436.848 428.522 435.584 429.087 434.353 429.687C432.685 430.502 432.584 432.836 434.19 433.762L446.096 440.629C447.441 441.405 449.078 441.464 450.472 440.783C451.834 440.118 453.266 439.524 454.746 438.999C468.027 434.287 485.691 435.263 497.231 441.925C503.159 445.349 506.499 449.71 507.251 454.187C507.627 456.418 509.382 458.154 511.642 458.28L529.428 459.285C530.879 459.368 531.934 460.774 531.514 462.166C530.852 464.363 529.819 466.526 528.42 468.624C527.462 470.061 528.21 472.018 529.869 472.495L545.051 476.867C547.312 477.52 549.729 476.649 551.084 474.727C554.231 470.263 556.2 465.582 556.962 460.844C559.23 446.777 551.05 432.227 532.425 421.473Z" fill="#97B5FF"/>
<path d="M431.082 389.723L429.023 387.782L429.088 364.803L433.134 367.138L442.16 375.649C438.23 377.045 434.509 378.717 431.108 380.693L431.082 389.723Z" fill="#4E4ACA"/>
<path d="M433.136 367.137L429.09 364.802L429.095 363.327L433.136 367.137Z" fill="#3E3FCA"/>
<path d="M505.491 397.738C505.488 397.736 505.487 397.733 505.484 397.73C505.487 397.733 505.489 397.736 505.491 397.738ZM505.451 397.681C505.447 397.675 505.442 397.667 505.437 397.661C505.442 397.667 505.447 397.673 505.451 397.681ZM497.823 390.976C497.809 390.969 497.796 390.961 497.783 390.954C497.796 390.961 497.81 390.969 497.823 390.976ZM497.743 390.93C496.993 390.498 496.211 390.09 495.41 389.704C495.144 389.576 494.865 389.464 494.593 389.34C494.049 389.094 493.505 388.848 492.943 388.623L492.773 388.548C494.524 389.239 496.189 390.033 497.743 390.93ZM492.167 388.314C491.681 388.132 491.188 387.957 490.691 387.789L490.536 387.74C489.948 387.544 489.354 387.358 488.752 387.183C489.918 387.519 491.059 387.897 492.167 388.314Z" fill="#3E3FCA"/>
<path d="M455.26 388.008C458.367 386.905 461.714 386.114 465.166 385.634L465.178 385.639C464.628 385.717 464.082 385.802 463.538 385.894C463.374 385.922 463.208 385.943 463.044 385.973L462.942 385.989C462.788 386.017 462.64 386.058 462.487 386.088C461.643 386.248 460.809 386.423 459.986 386.622C459.648 386.703 459.318 386.794 458.986 386.882C458.318 387.058 457.657 387.244 457.007 387.445C456.823 387.502 456.632 387.547 456.45 387.604C456.05 387.734 455.653 387.868 455.26 388.008Z" fill="#4E4ACA"/>
<path d="M488.589 387.137L488.389 387.088C487.331 386.792 486.256 386.528 485.164 386.297L484.98 386.253C486.205 386.507 487.409 386.8 488.589 387.137ZM484.929 386.242C484.725 386.202 484.515 386.177 484.311 386.137C483.555 385.988 482.793 385.854 482.023 385.738C481.862 385.714 481.705 385.677 481.545 385.656C481.332 385.624 481.113 385.611 480.898 385.583C480.225 385.496 479.55 385.421 478.872 385.357C478.643 385.334 478.418 385.299 478.189 385.279C480.474 385.468 482.733 385.789 484.929 386.242ZM465.175 385.638L465.164 385.633C465.864 385.536 466.565 385.452 467.273 385.379C466.989 385.411 466.708 385.449 466.424 385.483C466.139 385.516 465.855 385.548 465.572 385.584C465.439 385.602 465.307 385.621 465.175 385.638ZM467.421 385.364C469.356 385.173 471.314 385.078 473.272 385.078C474.908 385.078 476.546 385.144 478.171 385.278C478.027 385.267 477.882 385.267 477.738 385.254C476.993 385.201 476.246 385.163 475.498 385.136C475.256 385.127 475.017 385.102 474.777 385.097H474.58C474.127 385.088 473.675 385.083 473.222 385.083C472.595 385.083 471.967 385.092 471.341 385.112L471.22 385.113C471.072 385.118 470.926 385.137 470.776 385.143C469.804 385.183 468.835 385.249 467.869 385.337C467.72 385.351 467.57 385.352 467.421 385.364Z" fill="#3E3FCA"/>
<path d="M442.16 375.648C442.904 375.385 443.658 375.131 444.417 374.887C444.419 374.887 444.421 374.886 444.422 374.886C443.661 375.13 442.906 375.383 442.16 375.648Z" fill="#4E4ACA"/>
<path d="M455.008 372.242C455.047 372.235 455.087 372.228 455.127 372.221C455.217 372.203 455.308 372.187 455.398 372.171L455.407 372.17C455.274 372.193 455.14 372.218 455.008 372.242ZM469.39 370.675C469.398 370.674 469.405 370.674 469.413 370.674C469.5 370.67 469.587 370.667 469.674 370.664H469.675C469.58 370.667 469.485 370.671 469.39 370.675Z" fill="#3E3FCA"/>
<path d="M554.393 443.402C553.076 440.572 551.314 437.795 549.107 435.113L549.127 428.317C550.359 428.004 551.51 427.556 552.516 426.971L557.79 423.906L557.774 429.79C557.773 430.042 557.769 430.293 557.762 430.543C557.752 430.877 557.722 431.211 557.699 431.546C557.685 431.768 557.678 431.992 557.658 432.216C557.597 432.91 557.517 433.607 557.404 434.3C557.346 434.666 557.279 435.03 557.208 435.394C557.173 435.564 557.119 435.734 557.082 435.905C556.989 436.331 556.886 436.755 556.773 437.178C556.683 437.517 556.591 437.854 556.487 438.19C556.359 438.617 556.216 439.04 556.067 439.464C555.992 439.677 555.934 439.89 555.856 440.103C555.812 440.219 555.756 440.333 555.709 440.449C555.528 440.916 555.327 441.381 555.121 441.846C554.988 442.145 554.864 442.443 554.722 442.741C554.617 442.962 554.507 443.182 554.393 443.402Z" fill="#605AD5"/>
<path d="M549.127 428.32L549.131 426.903C553.714 421.531 556.509 415.765 557.464 409.911C557.466 409.891 557.47 409.871 557.474 409.851C557.476 409.831 557.48 409.812 557.483 409.792C557.484 409.788 557.484 409.786 557.484 409.782C557.709 408.367 557.828 406.947 557.841 405.527C557.843 405.465 557.843 405.404 557.844 405.341L557.79 423.91L552.515 426.974C551.509 427.559 550.358 428.008 549.127 428.32Z" fill="#504FD5"/>
<path d="M549.062 451.352L549.109 435.113C551.315 437.795 553.077 440.572 554.395 443.402C554.247 443.688 554.095 443.973 553.94 444.259C553.827 444.469 553.731 444.682 553.613 444.892L553.546 445.001C553.098 445.789 552.616 446.572 552.097 447.348C551.976 447.529 551.84 447.705 551.716 447.886C551.302 448.482 550.874 449.076 550.419 449.667L550.217 449.942C549.846 450.415 549.46 450.885 549.062 451.352Z" fill="#504FD5"/>
<path d="M440.768 410.758L431.041 405.148L431.085 389.723L431.111 380.694L448.85 390.928L448.8 409.138C446.086 409.598 443.405 410.138 440.768 410.758Z" fill="#7B98ED"/>
<path d="M448.78 415.379L440.766 410.757C443.403 410.137 446.084 409.597 448.797 409.137L448.78 415.379Z" fill="#6B8DED"/>
<path d="M507.766 411.57C496.629 408.633 484.621 407.166 472.618 407.166C464.586 407.166 456.559 407.823 448.799 409.138L448.849 390.928C450.816 389.784 452.982 388.812 455.26 388.006C455.653 387.866 456.05 387.732 456.45 387.602C456.632 387.545 456.823 387.5 457.007 387.443C457.657 387.242 458.318 387.056 458.986 386.88C459.318 386.792 459.648 386.701 459.985 386.62C460.809 386.421 461.643 386.246 462.487 386.086C462.64 386.056 462.788 386.015 462.942 385.987L463.044 385.971C463.208 385.941 463.374 385.92 463.538 385.892C464.081 385.8 464.628 385.715 465.178 385.637L507.769 410.228L507.766 411.57Z" fill="#47488F"/>
<path d="M507.77 410.227L465.178 385.636C465.309 385.618 465.442 385.6 465.574 385.582C465.858 385.546 466.141 385.513 466.426 385.481C466.71 385.447 466.991 385.408 467.275 385.377C467.324 385.372 467.374 385.367 467.424 385.362C467.573 385.35 467.723 385.348 467.871 385.335C468.837 385.247 469.806 385.181 470.779 385.141C470.929 385.135 471.075 385.116 471.222 385.111L471.344 385.11C471.97 385.09 472.597 385.081 473.225 385.081C473.677 385.081 474.13 385.086 474.582 385.095H474.78C475.02 385.1 475.258 385.125 475.501 385.133C476.248 385.161 476.996 385.198 477.741 385.252C477.884 385.265 478.029 385.265 478.173 385.276C478.179 385.277 478.186 385.277 478.192 385.277C478.421 385.297 478.645 385.332 478.874 385.355C479.553 385.418 480.228 385.493 480.9 385.581C481.115 385.608 481.334 385.622 481.548 385.653C481.708 385.675 481.864 385.712 482.025 385.736C482.795 385.852 483.558 385.986 484.314 386.135C484.518 386.175 484.728 386.2 484.931 386.24C484.949 386.243 484.966 386.247 484.983 386.251L485.166 386.295C486.259 386.526 487.334 386.79 488.391 387.086L488.591 387.135C488.645 387.151 488.7 387.166 488.753 387.182C489.356 387.357 489.95 387.543 490.537 387.739L490.692 387.788C491.19 387.956 491.682 388.131 492.168 388.313C492.372 388.391 492.574 388.468 492.774 388.547L492.944 388.622C493.507 388.847 494.051 389.093 494.594 389.339C494.867 389.463 495.146 389.576 495.412 389.703C496.213 390.089 496.994 390.497 497.744 390.929C497.758 390.938 497.772 390.946 497.784 390.953C497.798 390.961 497.81 390.968 497.824 390.976C501.2 392.938 503.73 395.205 505.415 397.625C505.415 397.626 505.416 397.626 505.416 397.628C505.422 397.636 505.427 397.644 505.434 397.651C505.435 397.654 505.437 397.658 505.439 397.66C505.444 397.666 505.448 397.674 505.452 397.68C505.456 397.684 505.458 397.687 505.461 397.692C505.465 397.697 505.469 397.704 505.472 397.709C505.477 397.715 505.482 397.723 505.486 397.729C505.488 397.733 505.49 397.735 505.492 397.737C507.523 400.709 508.285 403.902 507.778 407.037L507.77 410.227Z" fill="#373D8F"/>
<path d="M507.719 427.793C507.564 426.8 507.282 425.814 506.874 424.84C505.419 421.374 502.353 418.088 497.674 415.386C496.922 414.951 496.142 414.545 495.342 414.159C495.075 414.03 494.792 413.917 494.518 413.794C493.976 413.548 493.433 413.302 492.872 413.077C492.135 412.783 491.386 412.5 490.62 412.243L490.47 412.197C489.765 411.962 489.045 411.745 488.318 411.542C487.263 411.245 486.186 410.982 485.094 410.752C484.814 410.692 484.525 410.644 484.243 410.589C483.485 410.443 482.724 410.307 481.954 410.192C481.581 410.136 481.204 410.086 480.828 410.037C480.157 409.948 479.482 409.874 478.805 409.811C478.425 409.774 478.047 409.737 477.667 409.709C476.922 409.653 476.177 409.617 475.43 409.589C475.124 409.578 474.819 409.558 474.511 409.552C474.055 409.542 473.599 409.536 473.142 409.536C472.519 409.536 471.894 409.546 471.271 409.567C471.084 409.573 470.896 409.588 470.71 409.596C469.735 409.637 468.764 409.702 467.798 409.789C467.318 409.834 466.838 409.881 466.359 409.937C466.073 409.969 465.785 410.001 465.501 410.039C464.819 410.128 464.142 410.232 463.469 410.347C463.304 410.374 463.137 410.397 462.972 410.426C462.786 410.459 462.603 410.504 462.418 410.538C461.573 410.699 460.737 410.877 459.912 411.075C459.576 411.155 459.247 411.247 458.915 411.334C458.247 411.509 457.586 411.697 456.934 411.899C456.347 412.079 455.76 412.258 455.19 412.46C452.91 413.267 450.745 414.239 448.779 415.381L448.797 409.139C456.557 407.824 464.584 407.167 472.616 407.167C484.619 407.167 496.627 408.634 507.764 411.572L507.719 427.793Z" fill="#373D8F"/>
<path d="M448.848 390.93L431.109 380.695C434.51 378.719 438.231 377.047 442.161 375.651C442.907 375.386 443.662 375.132 444.423 374.888C444.883 374.741 445.345 374.598 445.81 374.458L465.166 385.634C461.713 386.114 458.366 386.905 455.259 388.007C452.981 388.814 450.815 389.786 448.848 390.93Z" fill="#C7D4FD"/>
<path d="M532.657 408.445L507.924 407.048L507.776 407.039C508.283 403.904 507.521 400.711 505.49 397.74C505.489 397.737 505.487 397.735 505.484 397.731C505.48 397.725 505.475 397.717 505.47 397.711C505.467 397.706 505.463 397.7 505.459 397.695C505.457 397.69 505.454 397.686 505.45 397.682C505.447 397.675 505.442 397.669 505.437 397.662C505.435 397.66 505.433 397.656 505.432 397.654C505.425 397.646 505.42 397.639 505.414 397.63C505.414 397.629 505.413 397.629 505.413 397.627C503.728 395.208 501.198 392.94 497.822 390.978C497.81 390.97 497.796 390.963 497.782 390.955C497.77 390.948 497.756 390.94 497.742 390.932C496.189 390.034 494.524 389.241 492.773 388.549C492.573 388.471 492.37 388.393 492.166 388.316C491.059 387.898 489.918 387.521 488.752 387.184C488.698 387.168 488.643 387.153 488.589 387.137C487.409 386.801 486.206 386.507 484.981 386.253C484.964 386.249 484.947 386.246 484.929 386.242C482.733 385.79 480.475 385.468 478.19 385.28C478.184 385.28 478.177 385.28 478.171 385.278C476.546 385.145 474.909 385.078 473.273 385.078C471.314 385.078 469.357 385.173 467.422 385.365C467.372 385.37 467.322 385.375 467.273 385.38C466.566 385.452 465.865 385.536 465.165 385.633L445.809 374.458C448.781 373.565 451.862 372.828 455.007 372.246C455.139 372.222 455.273 372.197 455.405 372.173C459.963 371.351 464.661 370.852 469.389 370.678C469.484 370.674 469.579 370.671 469.674 370.667C470.847 370.627 472.018 370.608 473.192 370.608C473.194 370.608 473.197 370.608 473.198 370.608C473.202 370.608 473.205 370.608 473.208 370.608C474.193 370.608 475.178 370.622 476.163 370.649L532.833 403.369C532.888 403.974 532.917 404.578 532.917 405.183C532.92 406.272 532.832 407.36 532.657 408.445Z" fill="#B7C9FD"/>
<path d="M532.833 403.367L476.162 370.647C483.347 370.853 490.481 371.806 497.188 373.507L527.823 391.194C530.783 395.074 532.453 399.206 532.833 403.367Z" fill="#A4B8F5"/>
<path d="M527.825 391.195L497.189 373.508C503.781 375.18 509.961 377.575 515.361 380.694C520.761 383.811 524.916 387.382 527.825 391.195Z" fill="#B7C9FD"/>
<path d="M512.366 412.887C510.851 412.421 509.315 411.982 507.764 411.573L507.767 410.231L512.366 412.887Z" fill="#7B98ED"/>
<path d="M527.92 419.051C523.064 416.623 517.839 414.566 512.366 412.882L507.768 410.226L507.776 407.036L507.924 407.045L532.657 408.443C532.072 412.075 530.487 415.662 527.92 419.051Z" fill="#6B8DED"/>
<path d="M526.748 432.566L507.707 431.491L507.718 427.791L507.763 411.569C509.314 411.978 510.851 412.417 512.365 412.883C517.839 414.567 523.063 416.624 527.919 419.051C527.561 419.526 527.181 419.997 526.783 420.463L526.748 432.566Z" fill="#6B8DED"/>
<path d="M442.158 375.648L433.133 367.138L445.807 374.456C445.339 374.596 444.878 374.74 444.416 374.887C443.656 375.131 442.902 375.385 442.158 375.648Z" fill="#7873DB"/>
<path d="M549.132 426.902L534.421 422.665C533.768 422.263 533.103 421.866 532.423 421.473C530.961 420.628 529.46 419.823 527.92 419.053C530.487 415.665 532.072 412.077 532.657 408.445C532.832 407.36 532.92 406.272 532.917 405.183C532.917 404.578 532.888 403.974 532.833 403.369L536.772 405.643C538.954 406.902 541.807 407.532 544.655 407.532C547.506 407.532 550.352 406.902 552.518 405.643L557.723 402.618C557.812 403.587 557.852 404.557 557.843 405.527C557.829 406.947 557.71 408.366 557.485 409.781C557.485 409.785 557.485 409.788 557.484 409.791C557.482 409.811 557.478 409.83 557.475 409.85C557.472 409.87 557.468 409.89 557.465 409.91C556.51 415.765 553.716 421.53 549.132 426.902ZM445.809 374.458L433.135 367.14L429.094 363.33C436.719 360.624 444.936 358.686 453.412 357.515L476.163 370.649C475.178 370.622 474.193 370.608 473.208 370.608C473.205 370.608 473.202 370.608 473.198 370.608C473.197 370.608 473.194 370.608 473.192 370.608C472.018 370.608 470.846 370.628 469.673 370.667C469.586 370.671 469.499 370.673 469.412 370.677C464.674 370.851 459.964 371.349 455.397 372.174C455.307 372.19 455.216 372.207 455.126 372.224C451.937 372.809 448.82 373.554 445.809 374.458Z" fill="#6868DB"/>
<path d="M544.655 407.531C541.807 407.531 538.954 406.901 536.772 405.643L532.834 403.369C532.454 399.208 530.784 395.076 527.824 391.196L536.772 396.362C538.954 397.622 541.807 398.252 544.655 398.252C547.506 398.252 550.352 397.621 552.518 396.362L555.784 394.465C556.823 397.152 557.469 399.881 557.723 402.618L552.518 405.643C550.352 406.901 547.506 407.531 544.655 407.531ZM497.189 373.509C490.482 371.808 483.347 370.855 476.163 370.649L453.412 357.515C458.003 356.88 462.668 356.47 467.357 356.286L497.189 373.509Z" fill="#5557D3"/>
<path d="M544.655 398.254C541.807 398.254 538.955 397.624 536.772 396.364L527.824 391.198C524.916 387.385 520.761 383.814 515.36 380.696C509.96 377.578 503.781 375.183 497.189 373.511L467.357 356.288C469.279 356.212 471.206 356.175 473.131 356.175C475.661 356.175 478.189 356.24 480.71 356.371L482.74 357.542C483.394 357.919 484.252 358.108 485.11 358.108C485.967 358.108 486.823 357.919 487.473 357.542L488.443 356.978C504.735 358.702 520.331 363.203 532.938 370.481C544.767 377.31 552.382 385.671 555.785 394.467L552.519 396.364C550.352 397.623 547.506 398.254 544.655 398.254Z" fill="#6868DB"/>
<path d="M485.111 358.105C484.253 358.105 483.394 357.917 482.741 357.539L480.711 356.368C483.301 356.502 485.881 356.704 488.444 356.976L487.474 357.539C486.824 357.917 485.968 358.105 485.111 358.105Z" fill="#5557D3"/>
<path d="M534.42 422.664L532.619 422.146L526.783 420.464C527.181 419.998 527.561 419.527 527.919 419.052C529.459 419.822 530.96 420.627 532.423 421.472C533.103 421.864 533.768 422.262 534.42 422.664Z" fill="#6868DB"/>
<path d="M549.063 451.352L526.715 444.916L526.75 432.565L526.785 420.462L532.621 422.144L534.422 422.662C537.554 424.596 540.365 426.641 542.855 428.776C545.233 430.813 547.317 432.932 549.109 435.113L549.063 451.352Z" fill="#3E3FCA"/>
<path d="M549.108 435.109C547.316 432.928 545.232 430.81 542.854 428.772C543.45 428.829 544.052 428.856 544.653 428.856C546.181 428.856 547.707 428.675 549.128 428.314L549.108 435.109Z" fill="#4E4ACA"/>
<path d="M544.655 428.859C544.054 428.859 543.451 428.832 542.855 428.776C540.365 426.641 537.554 424.596 534.422 422.663L549.133 426.9L549.13 428.317C547.708 428.678 546.182 428.859 544.655 428.859Z" fill="#3E3FCA"/>
<path d="M475.571 184.098L407.854 145.001L408.037 80.078L475.755 119.175L475.571 184.098ZM445.902 151.939L443.476 159.172C445.714 161.283 448.092 163.104 450.565 164.533C454.325 166.703 457.876 167.731 461.025 167.73C468.659 167.73 473.914 161.683 473.945 151.21C473.977 139.271 467.199 125.227 457.807 116.351L455.39 123.58C461.607 129.457 466.098 138.764 466.075 146.668C466.055 153.604 462.574 157.608 457.516 157.608C455.431 157.608 453.079 156.927 450.592 155.491C448.955 154.546 447.377 153.341 445.902 151.939ZM427.338 124.303C427.306 136.251 434.084 150.296 443.476 159.172L445.902 151.939C439.675 146.057 435.185 136.76 435.208 128.846C435.226 121.912 438.707 117.913 443.762 117.913C445.848 117.913 448.203 118.594 450.692 120.031C452.328 120.976 453.906 122.181 455.39 123.58L457.807 116.351C455.576 114.235 453.191 112.418 450.717 110.989C446.961 108.821 443.41 107.795 440.262 107.795C432.628 107.795 427.37 113.838 427.338 124.303Z" fill="#8AA4ED"/>
<path d="M484.258 189.109L475.57 184.094L475.754 119.171L484.442 124.187L484.258 189.109Z" fill="#415ABC"/>
<path d="M501.411 199.016L484.258 189.111L484.442 124.189L501.596 134.093L501.411 199.016Z" fill="#576DDD"/>
<path d="M501.412 199.016L501.597 134.093L507.763 130.508L507.579 195.432L501.412 199.016Z" fill="#221C7F"/>
<path d="M475.753 119.172L408.035 80.0748L414.202 76.4913L475.774 112.04L475.753 119.172Z" fill="#DBE4FF"/>
<path d="M484.442 124.191L475.754 119.176L475.775 112.044L484.462 117.058L484.442 124.191Z" fill="#929ACE"/>
<path d="M501.596 134.094L484.441 124.189L484.461 117.056L507.762 130.509L501.596 134.094Z" fill="#A8ADEF"/>
<path d="M443.476 159.172C434.084 150.296 427.306 136.251 427.338 124.303L435.207 128.845C435.185 136.76 439.675 146.057 445.902 151.939L443.476 159.172Z" fill="#6F65D5"/>
<path d="M435.207 128.844L427.338 124.302C427.369 113.836 432.628 107.793 440.262 107.793C443.409 107.793 446.96 108.819 450.716 110.988C453.191 112.416 455.576 114.234 457.807 116.35L455.39 123.578C453.906 122.179 452.327 120.974 450.691 120.029C448.203 118.592 445.848 117.911 443.762 117.911C438.707 117.911 435.226 121.911 435.207 128.844Z" fill="#897FDB"/>
<path d="M461.023 167.73C457.875 167.732 454.324 166.703 450.564 164.533C448.09 163.105 445.713 161.283 443.475 159.172L445.901 151.939C447.376 153.342 448.954 154.546 450.59 155.491C453.078 156.928 455.43 157.609 457.515 157.609C462.573 157.609 466.054 153.604 466.074 146.668C466.097 138.764 461.606 129.457 455.389 123.58L457.806 116.352C467.198 125.227 473.976 139.271 473.944 151.21C473.912 161.683 468.658 167.73 461.023 167.73Z" fill="#B6CBFF"/>
<path d="M606.329 292.258L588.008 281.68L588.018 278.019L606.34 288.597L606.329 292.258Z" fill="#B6B5CE"/>
<path d="M606.34 288.594L588.018 278.016L588.019 277.741L606.34 288.318V288.594Z" fill="#CBC7EF"/>
<path d="M610.872 305.805L587.977 292.587L587.982 291.142L610.876 304.361L610.872 305.805Z" fill="#E0E9FF"/>
<path d="M619.18 307.945L587.986 289.935L587.99 288.489L619.185 306.5L619.18 307.945Z" fill="#E0E9FF"/>
<path d="M616.996 304.031L587.994 287.288L587.997 285.848L617.001 302.593L616.996 304.031Z" fill="#B6B5CE"/>
<path d="M627.73 292.887L612.08 283.852L612.131 265.87L627.781 274.904L627.73 292.887Z" fill="#8394EF"/>
<path d="M589.395 257.449L567.381 244.74L567.395 240.046L589.408 252.755L589.395 257.449Z" fill="#CBC7EF"/>
<path d="M589.38 262.07L533.889 230.033L533.895 227.983L589.386 260.019L589.38 262.07Z" fill="#CBC7EF"/>
<path d="M584.626 285.793L571.969 278.485C571.635 277.366 571.451 276.245 571.451 275.18C571.451 275.171 571.451 275.163 571.451 275.154C571.46 272.33 572.76 270.599 574.707 270.33L581.945 274.51C583.878 277.015 585.16 280.226 585.16 283.043C585.16 283.052 585.16 283.061 585.16 283.069C585.158 284.141 584.968 285.056 584.626 285.793Z" fill="#B6B5CE"/>
<path d="M581.949 274.512L574.711 270.332C574.888 270.307 575.071 270.295 575.257 270.295C576.183 270.295 577.23 270.597 578.334 271.236C579.663 272.003 580.902 273.153 581.949 274.512Z" fill="#CBC7EF"/>
<path d="M581.362 287.93C580.438 287.93 579.393 287.628 578.288 286.99C575.435 285.344 572.996 281.929 571.971 278.488L584.629 285.796C583.992 287.175 582.826 287.93 581.362 287.93Z" fill="#E0E9FF"/>
<path d="M624.047 305.453L587.998 284.64L588.002 283.195L624.052 304.007L624.047 305.453Z" fill="#B6B5CE"/>
<path d="M568.597 281.398L545.701 268.179L545.706 266.733L568.601 279.954L568.597 281.398Z" fill="#E0E9FF"/>
<path d="M568.605 278.746L537.41 260.734L537.415 259.29L568.609 277.3L568.605 278.746Z" fill="#E0E9FF"/>
<path d="M568.613 276.094L540.713 259.984L540.715 258.544L568.618 274.653L568.613 276.094Z" fill="#B6B5CE"/>
<path d="M568.619 273.449L544.984 259.803L544.988 258.359L568.624 272.004L568.619 273.449Z" fill="#B6B5CE"/>
<path d="M568.627 270.492L557.182 263.885L557.193 260.224L568.638 266.831L568.627 270.492Z" fill="#B6B5CE"/>
<path d="M568.639 266.828L557.193 260.221L557.195 259.946L568.639 266.553V266.828Z" fill="#CBC7EF"/>
<path d="M627.684 310.656L584.629 285.798C584.97 285.061 585.16 284.146 585.163 283.075C585.163 283.066 585.163 283.057 585.163 283.048C585.163 280.231 583.88 277.02 581.948 274.515L588.019 278.02L588.009 281.681L606.33 292.259L606.341 288.598L627.713 300.937L627.684 310.656ZM588 284.642L624.048 305.455L624.053 304.009L588.004 283.197L588 284.642ZM587.994 287.287L616.995 304.03L617 302.592L587.996 285.847L587.994 287.287ZM571.971 278.49L533.441 256.244L533.469 246.525L557.195 260.224L557.183 263.885L568.629 270.492L568.64 266.831L574.71 270.336C572.762 270.604 571.462 272.335 571.454 275.159C571.454 275.168 571.454 275.176 571.454 275.185C571.454 276.25 571.637 277.371 571.971 278.49ZM540.713 259.989L568.614 276.099L568.619 274.658L540.716 258.549L540.713 259.989ZM544.986 259.806L568.62 273.453L568.625 272.008L544.989 258.363L544.986 259.806Z" fill="#6D81CE"/>
<path d="M627.713 300.938L606.341 288.598V288.322L588.02 277.745L588.018 278.02L581.948 274.516C580.9 273.157 579.662 272.007 578.333 271.24C577.228 270.601 576.182 270.299 575.256 270.299C575.069 270.299 574.887 270.311 574.709 270.336L568.64 266.831V266.556L557.196 259.949L557.194 260.224L533.469 246.525L533.471 245.945C533.471 245.94 533.471 245.935 533.471 245.93C533.479 244.76 534.066 244.084 534.921 244.079C534.924 244.079 534.927 244.079 534.931 244.079C534.934 244.079 534.936 244.079 534.939 244.079C535.282 244.081 535.669 244.19 536.076 244.419C536.077 244.419 536.079 244.42 536.079 244.42C536.091 244.428 536.105 244.435 536.117 244.442L625.088 295.809C626.54 296.648 627.709 298.666 627.714 300.336C627.714 300.343 627.714 300.35 627.714 300.356L627.713 300.938Z" fill="#8394EF"/>
<path d="M626.215 316.762C625.88 316.762 625.504 316.659 625.107 316.443C625.082 316.429 625.057 316.414 625.03 316.4L536.059 265.032C534.608 264.194 533.435 262.172 533.43 260.502C533.43 260.496 533.43 260.49 533.43 260.482L533.442 256.24L571.972 278.486C572.997 281.927 575.437 285.342 578.289 286.988C579.394 287.626 580.439 287.928 581.364 287.928C582.827 287.928 583.993 287.173 584.63 285.794L627.685 310.652L627.674 314.894C627.67 316.074 627.083 316.757 626.225 316.762C626.221 316.762 626.218 316.762 626.215 316.762ZM587.987 289.932L619.181 307.942L619.186 306.497L587.991 288.486L587.987 289.932ZM587.978 292.582L610.874 305.8L610.878 304.356L587.983 291.137L587.978 292.582ZM545.704 268.175L568.6 281.394L568.603 279.949L545.709 266.729L545.704 268.175ZM537.412 260.732L568.607 278.745L568.611 277.298L537.417 259.289L537.412 260.732Z" fill="#97B5FF"/>
<path d="M605.13 278.891C604.072 278.891 602.88 278.546 601.618 277.817C597.304 275.325 593.813 269.295 593.814 264.333C593.814 264.324 593.814 264.314 593.814 264.304C593.823 260.788 595.589 258.76 598.154 258.76C599.212 258.76 600.406 259.105 601.669 259.835C605.982 262.324 609.468 268.351 609.468 273.314C609.468 273.324 609.468 273.334 609.468 273.342C609.458 276.86 607.695 278.891 605.13 278.891Z" fill="#CBC7EF"/>
<path d="M589.356 270.738L568.307 258.587L568.312 256.536L589.361 268.69L589.356 270.738Z" fill="#CBC7EF"/>
<path d="M589.369 266.41L533.879 234.374L533.885 232.318L589.375 264.354L589.369 266.41Z" fill="#CBC7EF"/>
<path d="M632.715 313.555L627.685 310.65L627.713 300.931L632.743 303.834L632.715 313.555ZM533.442 256.238L528.412 253.334L528.44 243.615L533.469 246.518L533.442 256.238Z" fill="#929ACE"/>
<path d="M632.741 303.84L627.711 300.936L627.713 300.355C627.713 300.349 627.713 300.341 627.713 300.335C627.708 298.665 626.539 296.647 625.087 295.808L536.116 244.441C536.103 244.434 536.089 244.427 536.077 244.419C536.077 244.419 536.076 244.418 536.074 244.418C535.667 244.189 535.281 244.079 534.937 244.078C534.935 244.078 534.932 244.078 534.93 244.078C534.926 244.078 534.922 244.078 534.919 244.078C534.065 244.083 533.477 244.759 533.47 245.929C533.47 245.934 533.47 245.939 533.47 245.944L533.467 246.524L528.438 243.621L528.525 212.445L632.83 272.665L632.741 303.84ZM612.079 283.859L627.729 292.893L627.78 274.911L612.13 265.876L612.079 283.859ZM593.813 264.334C593.811 269.296 597.302 275.326 601.616 277.818C602.878 278.547 604.071 278.892 605.128 278.892C607.693 278.892 609.456 276.861 609.466 273.343C609.466 273.335 609.466 273.325 609.466 273.315C609.466 268.353 605.98 262.325 601.667 259.836C600.405 259.106 599.21 258.761 598.152 258.761C595.587 258.761 593.821 260.789 593.813 264.305C593.813 264.315 593.813 264.325 593.813 264.334ZM568.306 258.586L589.355 270.737L589.36 268.689V268.687L568.311 256.535L568.306 258.586ZM533.877 234.373L589.367 266.409L589.373 264.353L533.883 232.316L533.877 234.373ZM533.888 230.037L589.379 262.074L589.385 260.023L533.895 227.987L533.888 230.037ZM567.378 244.742L589.393 257.451L589.405 252.756L567.392 240.047L567.378 244.742Z" fill="#A8ADEF"/>
<path d="M632.091 324.188L528.975 264.653C528.597 263.598 528.386 262.523 528.389 261.515L528.412 253.337L533.442 256.24L533.43 260.482C533.43 260.49 533.43 260.496 533.43 260.502C533.435 262.172 534.608 264.195 536.059 265.032L625.03 316.401C625.057 316.414 625.081 316.429 625.106 316.443C625.504 316.659 625.88 316.762 626.215 316.762C626.218 316.762 626.221 316.762 626.225 316.762C627.083 316.757 627.67 316.074 627.674 314.894L627.685 310.652L632.716 313.557L632.692 321.734C632.69 322.743 632.472 323.57 632.091 324.188Z" fill="#BCCEFF"/>
<path d="M629.77 325.473C629.057 325.473 628.253 325.24 627.403 324.749L533.643 270.617C531.611 269.443 529.848 267.101 528.975 264.653L632.091 324.188C631.577 325.021 630.762 325.473 629.77 325.473Z" fill="#A9BDF7"/>
<path d="M632.83 272.664L528.525 212.445L528.537 208.508C528.544 206.138 529.734 204.772 531.461 204.772C532.173 204.772 532.976 205.004 533.826 205.494L627.585 259.626C630.499 261.307 632.85 265.38 632.84 268.728L632.83 272.664Z" fill="#8394EF"/>
</g>
</g>
</svg>
