<svg width="6" height="20" viewBox="0 0 6 20" fill="none" xmlns="http://www.w3.org/2000/svg">
<path d="M2.99996 5.33366C4.28329 5.33366 5.33329 4.28366 5.33329 3.00033C5.33329 1.71699 4.28329 0.666992 2.99996 0.666992C1.71663 0.666992 0.666626 1.71699 0.666626 3.00033C0.666626 4.28366 1.71663 5.33366 2.99996 5.33366ZM2.99996 7.66699C1.71663 7.66699 0.666626 8.71699 0.666626 10.0003C0.666626 11.2837 1.71663 12.3337 2.99996 12.3337C4.28329 12.3337 5.33329 11.2837 5.33329 10.0003C5.33329 8.71699 4.28329 7.66699 2.99996 7.66699ZM2.99996 14.667C1.71663 14.667 0.666626 15.717 0.666626 17.0003C0.666626 18.2837 1.71663 19.3337 2.99996 19.3337C4.28329 19.3337 5.33329 18.2837 5.33329 17.0003C5.33329 15.717 4.28329 14.667 2.99996 14.667Z" fill="#1C1C1C"/>
</svg>
